CoelacanthPearl.sfdir
StartChar: exclam
Encoding: 33 33 75
Width: 291
VWidth: 1159
Flags: W
HStem: -28.557 176.317<121.343 169.433>
VStem: 58.3891 174.639<34.62 81.4493> 86.7953 150.021<515.798 654.482> 112.656 69.6766<209 433.949>
LayerCount: 2
Fore
SplineSet
112.6558 209 m 17x90
 112.6558 339 110.6558 437 103.6558 533 c 0
 101.061876924 580 85.4983384614 604 86.7953 654 c 1
 180.994438372 664 231.001388372 692 236.81615 661 c 1xa0
 220.81615 625 222.81615 602 216.81615 533 c 0
 203.736125862 408 182.33245 342 182.33245 208 c 9
 112.6558 209 l 17x90
EndSplineSet
Refer: 48 46 N 1 0 0 1 36.7093 0 2
Validated: 33
Substitution2: "pcap-1" exclam.pcap
Substitution2: "smcp-1" exclam.smcp
Position2: "cpsp-1" dx=0 dy=0 dh=50 dv=100
EndChar
StartChar: dollar
Encoding: 36 36 1373
Width: 463
VWidth: 1159
UnlinkRmOvrlpSave: 1
Flags: W
HStem: 0.639648 61.7803<149.997 307.403> 437.47 60.4199<167.114 326.155>
VStem: 67 72.8799<343.405 412.825> 346.97 71.3506<96.3621 173.46>
LayerCount: 2
Back
SplineSet
383.089165634 373.231009453 m 1
 331.95573117 408.293409256 l 1
 333.494076021 410.536862529 336.147181899 414.47254914 336.968467464 415.700220866 c 1
 313.132860938 427.565412705 285.40773076 435.889648438 256.860351562 435.889648438 c 0
 168.139383572 435.889648438 129 396.400772516 129 366.01953125 c 0
 129 344.117870603 188.038145659 308.404700826 268.526603889 281.373321697 c 0
 323.668671448 262.854317022 418.3203125 227.621402477 418.3203125 139.870117188 c 0
 418.3203125 60.2704540697 327.786029274 0.6396484375 224.099609375 0.6396484375 c 0
 150.871118825 0.6396484375 85.1756852367 38.7949031803 48.8284238856 85.6261590671 c 0
 32.9605528115 106.070954714 l 1
 50.2430642409 125.334749775 l 0
 60.4069384479 136.663820237 72.3958722374 149.408430695 82.1969305444 160.124292985 c 1
 127.946852556 118.280002623 l 1
 123.807712262 113.754526291 120.892402041 110.607494576 115.588154094 104.875517086 c 1
 142.336495091 81.3513933414 183.077105871 62.6396484375 224.099609375 62.6396484375 c 0
 311.708728917 62.6396484375 356.3203125 113.521262225 356.3203125 139.870117188 c 0
 356.3203125 173.477406483 310.331328552 201.930468993 248.787849236 222.599334553 c 0
 182.459785941 244.875062841 67 280.505898254 67 366.01953125 c 0
 67 451.678802628 158.028070157 497.889648438 256.860351562 497.889648438 c 0
 313.816261557 497.889648438 363.504586523 475.275302708 398.265384649 451.396031746 c 0
 423.2470893 434.234604891 l 1
 406.653564561 408.872131122 l 0
 397.623608722 395.070240223 390.703077674 384.33479797 383.089165634 373.231009453 c 1
EndSplineSet
Fore
SplineSet
422.450195312 432.580078125 m 1
 402.276694901 401.243424025 390.312383342 378.85976835 370 352 c 1
 318.770507812 386.870117188 l 1
 325.856603443 394.536828712 329.400390625 400.644601207 329.400390625 410.459960938 c 3
 329.400390625 419.220721066 294.327148437 437.469726562 256.860351562 437.469726562 c 3
 195.751508044 437.469726562 139.879882812 413.493487365 139.879882812 380.099609375 c 3
 139.879882812 335.998361853 206.220318807 323.077968399 271.259765625 296.309570312 c 0
 360.461886893 259.596498337 418.3203125 223.297396966 418.3203125 139.870117188 c 3
 418.3203125 60.5625 327.459960938 0.6396484375 224.099609375 0.6396484375 c 3
 140.831054688 0.6396484375 66.4873046875 49.8984375 34.5595703125 107.110351562 c 1
 52.3255050875 128.173121388 77.5302476473 151.72997744 98 176 c 1
 144.559570312 136.650390625 l 1
 140.47319153 131.159288194 130.969726562 119.088480077 130.969726562 111.940429688 c 3
 130.969726562 85.1803275718 178.947199799 62.419921875 231.120117188 62.419921875 c 3
 287.739772868 62.419921875 346.969726562 97.4334480964 346.969726562 133.469726562 c 3
 346.969726562 164.071702399 313.20610965 192.788361385 251.8203125 212.41015625 c 0
 149.138295096 245.232170061 67 279.257257882 67 366.01953125 c 3
 67 442.24890148 156.41731809 497.889648438 256.860351562 497.889648438 c 3
 328.149872217 497.889648438 388.416104093 462.560589962 422.450195312 432.580078125 c 1
EndSplineSet
Refer: 1970 58113 N 0.0181668 0.693762 -0.968418 0.0253589 226.417 -112.881 2
Substitution2: "case-1" dollar.alt
Substitution2: "lnum-1" dollar.alt
EndChar
StartChar: ampersand
Encoding: 38 38 78
Width: 676
Flags: W
HStem: -11 75.279<162.066 300.158 510.187 594.294> 439.065 52.365<565.788 646.828>
VStem: 17 87.5371<126.845 274.343> 81 68.1603<474.622 561.727> 267.065 83.9348<460.513 550.634>
LayerCount: 2
Fore
SplineSet
209.3116 350.8605 m 1xe8
 143.479865928 322.7645625 104.53715 269.38228125 104.53715 216 c 3
 104.53715 122.289970589 155.261391177 64.279 238.3442 64.279 c 3
 303.012825001 64.279 340.8901625 126.394019 371.3768 166.1069 c 1
 309.721560868 301.650428972 242.781586956 337.047146728 209.3116 350.8605 c 1xe8
197 570.2373 m 1
 177.986805768 570.2373 149.16035 553.191360869 149.16035 525 c 3xd8
 149.16035 478.745448183 191.087595283 458.362086364 218.60235 438.7627 c 1
 251.163327344 460.635084416 267.0652 480.887292208 267.0652 501.1395 c 3
 267.0652 535.010970589 238.125226087 570.2373 197 570.2373 c 1
646.8279 439.0652 m 1
 599.958799397 439.0652 562.650227766 426.676302099 551.94655 397.63495 c 0
 523.161944737 320.270728847 498.375201316 257.469184616 460.7953 184.6558 c 1
 492.507380769 90.4196421428 525.766392307 60.19295 551.29075 60.19295 c 3
 585.176104605 60.19295 608.071614473 103.59500625 620.8931 131.05345 c 1
 672 108 l 1
 640 35.093470354 616 -11.39765 530 -11.39765 c 3
 477 -11.39765 433 34.1539207964 406 91.5489 c 1
 374 65.6962361345 332 -11 199 -11 c 3
 80 -11 17 85 17 172 c 3xe8
 17 278.525383496 77.3272286185 352.67540534 146.15125 387.1395 c 1
 110.614204546 411.283039062 81 452.141335938 81 506 c 3
 81 593 156 626 231 653 c 1
 316 623 351 575 351 498 c 3
 351 482.886254546 316.273042857 432.821972727 283.7627 404.4837 c 1
 332.080175 385.848685245 395.6558 322.651678688 426.1721 256.2138 c 1
 452.122881632 302.219161454 483.595626296 378.555744833 493.0978 421.97915 c 0
 499.9102 453.313633674 454.4942 472.596392857 431.7862 481.0326 c 1
 448.2699 531.39765 l 1
 500.971423636 509.34667069 592.571690909 490.052063793 655.3116 491.43025 c 1
 646.8279 439.0652 l 1
EndSplineSet
Position2: "cpsp-1" dx=0 dy=0 dh=50 dv=100
Substitution2: "smcp-1" ampersand.smcp
Substitution2: "pcap-1" ampersand.pcap
EndChar
StartChar: quotesingle
Encoding: 39 39 79
Width: 200
VWidth: 1159
Flags: W
HStem: 445.7 254<72.6024 126.312>
VStem: 49.1721 100.57<480.008 699.7> 72.6024 53.7092<445.7 665.664>
LayerCount: 2
Fore
SplineSet
49.1721 699.700178505 m 9xc0
 149.74185 699.700178505 l 17xc0
 148.876604339 630.734178505 128.542494518 537.034178505 126.3116 445.700178505 c 9
 72.60235 445.700178505 l 17xa0
 70.2681950232 536.911178505 50.1673835482 630.890178505 49.1721 699.700178505 c 9xc0
EndSplineSet
Validated: 1
Position2: "Extra space for context kern-1" dx=35 dy=0 dh=70 dv=0
Position2: "cpsp-1" dx=0 dy=0 dh=7 dv=14
EndChar
StartChar: comma
Encoding: 44 44 46
Width: 217
VWidth: 1159
Flags: W
HStem: -134.937 283.585
VStem: 20.1295 174.45<36.3884 79.9558>
LayerCount: 2
Fore
SplineSet
69.203125 -134.936523438 m 1
 34 -82 l 1
 61.5012661706 -63.9090571161 92 -28 84.5163 -12.1721 c 0
 73.5887548994 10.9394746352 54.9052957631 29.3951175695 30.60235 39.1177629883 c 0
 24.6884 41.4837 20.1295185059 49.7635870117 20.1295185059 56.8596129883 c 3
 20.1295185059 63.9565314941 25.3393209983 68.6672924629 30.60235 72.2364185059 c 0
 62.2939584472 93.7281003906 70.8264136426 106.867768773 88.0345996094 138.003999219 c 0
 91.1136675293 143.575217969 98.5934811035 148.648930714 105.69039961 148.648930714 c 3
 112.787318115 148.648930714 118.304623188 142.975784145 122.250173633 138.003999219 c 0
 143.282202929 111.501556104 158.93723306 92.5946672891 179.634068505 84.3007370117 c 0
 190.088315039 80.1113626465 194.579731495 72.8996750488 194.579731495 65.6340685059 c 3
 194.579731495 17.2613040812 148.856714713 -85.9128626567 69.203125 -134.936523438 c 1
EndSplineSet
Validated: 33
Position2: "Extra space for context kern-1" dx=78 dy=0 dh=156 dv=0 [ddx={} ddy={} ddh={} ddv={}]
Position2: "cpsp-1" dx=0 dy=0 dh=7 dv=14
EndChar
StartChar: period
Encoding: 46 46 48
Width: 217
VWidth: 1159
Flags: W
HStem: -28.557 176.317<84.6342 132.724>
VStem: 21.6798 174.639<34.62 81.4493>
LayerCount: 2
Fore
SplineSet
186.857308105 39.9046066406 m 0
 151.957056836 20.1471091796 143.172421826 11.7709362793 125.978268505 -19.0950825684 c 0
 122.921513818 -24.6787967285 116.601462988 -28.5570455566 109.505437012 -28.5570455566 c 3
 102.408518505 -28.5570455566 94.0188503906 -24.5020759278 90.6666685059 -19.0950825684 c 0
 74.8996695312 5.86953256836 65.2053890137 21.7902556153 32.1535659179 41.4495748535 c 0
 26.6760627441 44.6491342285 21.6798418946 53.2774748535 21.6798418946 60.3743933594 c 3
 21.6798418946 67.4704193359 26.8956249512 72.1955203125 32.1535659179 75.7503063477 c 0
 61.679898291 96.0817001465 74.1945713867 106.224922901 90.6666685059 137.115040039 c 0
 93.6154271484 142.756768604 102.408518505 147.759971534 109.505437012 147.759971534 c 3
 116.601462988 147.759971534 122.796559716 142.626459326 125.978268505 137.115040039 c 0
 140.320790722 112.718966066 153.927761523 93.5040755372 186.857308105 74.2062306641 c 0
 192.358909571 71.0388023437 196.319271094 65.9263436523 196.319271094 58.8294251465 c 3
 196.319271094 51.7325066406 192.416031446 42.9890297363 186.857308105 39.9046066406 c 0
EndSplineSet
Validated: 1
Position2: "Extra space for context kern-1" dx=78 dy=0 dh=156 dv=0
Position2: "cpsp-1" dx=0 dy=0 dh=7 dv=14
EndChar
StartChar: zero
Encoding: 48 48 63
Width: 573
Flags: W
HStem: -12 82<220.302 367.309> 431 77<209.556 352.22>
VStem: 51 85<162.78 347.8> 440 82<155.702 338.788>
LayerCount: 2
Fore
SplineSet
282 431 m 3
 171 431 136 317 136 259 c 3
 136 171 186 70 305 70 c 3
 379 70 440 153 440 248 c 3
 440 365 353 431 282 431 c 3
285 508 m 3
 456 508 522 364 522 252 c 3
 522 140 449 -12 297 -12 c 3
 134 -12 51 112 51 260 c 3
 51 336 107 508 285 508 c 3
EndSplineSet
Substitution2: "case-1" zero.proportionallining
Substitution2: "tnum-1" zero.tabulartext
Substitution2: "lnum-1" zero.proportionallining
Substitution2: "numr-1" zero.numerator
Substitution2: "dnom-1" zero.denom
Substitution2: "'zero' Slashed Zero lookup 22-1" zero.alt
EndChar
StartChar: one
Encoding: 49 49 64
Width: 485
VWidth: 1159
Flags: HW
HStem: -0.65625 55.2236<110.567 192.988 302.558 377.154> 448.641 56.4805<117.524 196.729> 456.085 63.9658<296.311 378.812>
VStem: 206.17 83.4951<76.9742 437.962>
LayerCount: 2
Fore
SplineSet
117.524414062 505.12109375 m 1xd0
 131.851456626 504.191219644 149.100390269 503.761934173 167.881705655 503.761934173 c 0
 243.678473089 503.761934173 344.433616719 510.753839631 378.8125 520.05078125 c 9
 378.984375 456.084960938 l 1xb0
 296.46875 454.317382812 294.21875 436.859375 292.806640625 423.62890625 c 0
 289.40234375 384.358398438 289.665039062 314.629882812 289.665039062 248.504882812 c 3
 289.665039062 166.608398438 295.474533498 99.661053904 302.337890625 76.615234375 c 0
 306.736710409 63.262671857 329.519966497 57.3773913359 380.9296875 55.734375 c 9
 377.154296875 -0.65625 l 1
 340.273893005 -0.369195302944 299.50408299 -0.211279659969 253.803787367 -0.211279659969 c 0
 210.729119283 -0.211279659969 163.274234909 -0.351571048414 110.567382812 -0.65625 c 9
 103.021484375 54.5673828125 l 1
 135.763569642 56.1120197886 190.356523781 69.3104573194 193.157226562 75.8779296875 c 0
 202.020004693 99.0405079718 206.169921875 136.235351562 206.169921875 248.504882812 c 3
 206.169921875 349.026367188 204.9609375 370.470703125 200.547851562 419.208984375 c 0
 198.512695312 438.486328125 184.651367188 442.657226562 115.690429688 448.640625 c 9
 117.524414062 505.12109375 l 1xd0
EndSplineSet
Substitution2: "dnom-1" one.denom
Substitution2: "numr-1" one.numerator
Substitution2: "tnum-1" one.tabulartext
Substitution2: "lnum-1" one.proportionallining
EndChar
StartChar: two
Encoding: 50 50 65
Width: 623
Flags: HW
HStem: -6.54492 15.6328G<99.4619 121.188 487.648 502.273> 0.992188 76.8711<201.317 441.038> 425.687 90.0449<207.098 327.535>
VStem: 350.269 94.7588<284.3 402.511>
LayerCount: 2
Fore
SplineSet
87.302734375 386.836914062 m 1xb0
 123.980253671 431.68583749 193.160491339 515.731445312 289.674804688 515.731445312 c 1
 395.63878765 515.731445312 445.02734375 426.194600354 445.02734375 357.551757812 c 3
 445.02734375 219.575001779 223.648708109 117.965097942 201.237304688 77.86328125 c 1
 326.039860158 87.6882869403 402.158607567 75.6184169764 414.154296875 82.6318359375 c 1
 456.62413382 100.914904091 479.825074196 141.532225991 499.125976562 166.438476562 c 1
 558.072265625 121.48828125 l 1
 558.072265625 121.48828125 510.359938424 80.9584353012 494.185546875 -11.912109375 c 1
 481.110902269 -1.23708173675 359.538779624 0.9921875 334.098632812 0.9921875 c 1x70
 254.951826748 0.9921875 134.602097773 3.76627430396 107.774414062 -6.544921875 c 1
 81.046875 57.76171875 l 1
 145.408343027 127.662238289 350.268554688 238.240282637 350.268554688 344.666015625 c 3
 350.268554688 404.887793359 307.578457229 425.686523438 268.663085938 425.686523438 c 1
 227.191004079 425.686523438 167.498716895 386.951728103 126.244140625 342.372070312 c 1
 87.302734375 386.836914062 l 1xb0
EndSplineSet
Substitution2: "case-1" two.proportionallining
Substitution2: "lnum-1" two.proportionallining
Substitution2: "tnum-1" two.tabulartext
Substitution2: "numr-1" two.numerator
Substitution2: "dnom-1" two.denom
EndChar
StartChar: three
Encoding: 51 51 66
Width: 490
Flags: HW
HStem: -177.1 53.4707<114.552 147.554> 425.581 81.8042<172.493 275.111>
VStem: 291.367 91.4232<300.86 409.107> 326.294 91.4463<0.994154 126.769>
LayerCount: 2
Fore
SplineSet
91.6611328125 -123.62890625 m 1xd0
 263.54708969 -65.6119174511 326.293945312 -9.55870690353 326.293945312 55.8349609375 c 3xd0
 326.293945312 132.962610287 272.884319617 159.036243076 233.853515625 184.943359375 c 1
 216.486177207 173.91254081 165.236529373 147.880763098 130.74609375 138.388671875 c 1
 99.5302734375 183.491210938 l 1
 195.67312775 235.645170291 291.3671875 280.544268662 291.3671875 362.170898438 c 3
 291.3671875 397.750300104 261.169822076 425.580624023 228.697865625 425.580624023 c 3
 171.56986123 425.580624023 138.932906104 388.97669248 111.177351855 364.872159278 c 1
 73.9510619628 402.511373926 l 1
 99.8139851562 444.115723535 179.711400684 507.384854834 249.019701513 507.384854834 c 3
 331.194224707 507.384854834 382.790434278 448.02138086 382.790434278 381.367524072 c 3xe0
 382.790434278 297.559056728 330.329719465 261.564348048 306.267578125 240.3359375 c 1
 349.172675672 214.649459822 417.740234375 165.614198351 417.740234375 68.4609375 c 3
 417.740234375 -55.4290682166 213.870190824 -148.784580583 118 -177.099609375 c 1
 91.6611328125 -123.62890625 l 1xd0
EndSplineSet
Substitution2: "dnom-1" three.denom
Substitution2: "numr-1" three.numerator
Substitution2: "tnum-1" three.tabulartext
Substitution2: "lnum-1" three.proportionallining
EndChar
StartChar: four
Encoding: 52 52 67
Width: 641
VWidth: 1159
Flags: W
HStem: -8.63477 21G<542.871 565.894> 1.04492 72.3633<161.038 359.951 442.193 518.943> 495.018 20G<391.258 439.155>
VStem: 360.952 81.2412<-104.114 1.04492 77.3945 330.084>
LayerCount: 2
Fore
SplineSet
359.951171875 74.9599609375 m 1x70
 359.951171875 175.426330189 361.159179688 266.608398438 355.930664062 334.5234375 c 1
 355.930664062 334.5234375 237.784464748 172.404139587 160.889648438 73.408203125 c 1
 218.967343506 74.9599609375 313.356743159 74.9599609375 359.951171875 74.9599609375 c 1x70
466.108398438 479.17578125 m 1
 444.689453125 432.868164062 441.502624571 350.695737294 440.897706982 224.267536572 c 0
 440.55351767 152.331728821 441.624385982 160.554288418 442.193359375 77.39453125 c 1
 516.842433034 76.5282351841 503.138147588 82.0349310915 549.87890625 122.48046875 c 1
 549.87890625 122.48046875 591.503169428 105.833466249 595.077148438 103.841796875 c 1
 595.077148438 103.841796875 572.727086522 36.232989454 559.060546875 -8.634765625 c 1xb0
 526.680623236 -0.279416755379 477.008571188 1.98720714906 442.193359375 2.1435546875 c 1
 441.48037571 -46.3520634997 450.699325412 -89.4580089827 465.4140625 -105.715820312 c 1
 417.388439432 -113.103068244 422.391025799 -156.095169761 392 -177.099609375 c 1
 392 -177.099609375 323.115168684 -142.959655092 320.409179688 -138.801757812 c 1
 357.622869435 -101.554242458 360.669975907 -57.7928730422 360.952148438 1.044921875 c 1
 59.59327038 1.044921875 125.966911877 9.94457029005 80.1083984375 -34.75390625 c 1
 80.1083984375 -34.75390625 21.4462220357 4.04517047019 17.505859375 7.71484375 c 1
 37.1960901944 27.4549496647 377.388671875 447.77734375 405.126953125 515.017578125 c 1
 466.108398438 479.17578125 l 1
EndSplineSet
Validated: 33
Substitution2: "dnom-1" four.denom
Substitution2: "numr-1" four.numerator
Substitution2: "tnum-1" four.tabulartext
Substitution2: "lnum-1" four.proportionallining
EndChar
StartChar: five
Encoding: 53 53 68
Width: 488
VWidth: 1159
Flags: W
HStem: 420.284 88.7549<173.652 357.588> 550.239 20G<380.351 385.02>
VStem: 102.699 70.7256<308.774 420.213> 306.973 81.498<24.9985 170.456>
LayerCount: 2
Fore
SplineSet
102.69921875 509.0390625 m 5
 256.250976562 501.951171875 290.1796875 505.631835938 320.098632812 507.995117188 c 4
 351.400390625 510.466796875 375.683163167 548.040321315 385.01953125 570.239257812 c 5
 385.01953125 570.239257812 430.492422805 539.563581069 433.568359375 537.970703125 c 5
 403.518498358 483.73894848 371.958984375 420.75390625 351.440429688 420.86328125 c 4
 269.734375 421.30078125 276.327148438 420.033203125 173.65234375 420.284179688 c 5
 173.65234375 420.284179688 174.005477924 321.940653026 173.424804688 308.461914062 c 5
 308.730213229 316.501947111 388.470703125 237.880778556 388.470703125 122.732421875 c 7
 388.470703125 -38.9668011996 223.587635937 -157.603482359 69 -177.099609375 c 5
 69 -177.099609375 69.3986299408 -115.162573757 66.654296875 -111.411132812 c 5
 131.620330966 -103.229801043 306.97265625 -47.8611458637 306.97265625 111.155273438 c 7
 306.97265625 149.161897424 280.474349454 235.799020386 97.517578125 227.197265625 c 5
 104.558112047 304.810418512 106.481445312 418.76171875 102.69921875 509.0390625 c 5
EndSplineSet
Validated: 33
Substitution2: "dnom-1" five.denom
Substitution2: "numr-1" five.numerator
Substitution2: "tnum-1" five.tabulartext
Substitution2: "lnum-1" five.proportionallining
EndChar
StartChar: six
Encoding: 54 54 69
Width: 603
VWidth: 1159
Flags: W
HStem: -14.0537 76.3018<255.462 383.761> 340.866 79.7994<271.991 387.114> 656.493 20G<280.843 384.088>
VStem: 86.6972 88.8108<163.546 384.707> 443.152 84.1069<119.83 281.405>
LayerCount: 2
Fore
SplineSet
384.087890625 676.493164062 m 1
 384.087890625 676.493164062 403.990597725 619.61037578 408.567382812 614.150390625 c 1
 228.487998209 509.783366183 175.508 423.698280518 175.508 261.36505 c 3
 175.508 192.592178692 218.274981927 62.248046875 322.010742188 62.248046875 c 3
 372.618743201 62.248046875 443.15205 110.627068244 443.15205 185.8696 c 3
 443.15205 302.696220343 376.107106002 340.865549903 322.172261865 340.865549903 c 3
 295.315040679 340.865549903 282.203016456 326.146852321 269.47525288 317.644942528 c 1
 236.533210888 370.02995 l 1
 257.363035098 395.863725 290.03988618 420.6649 340.65616538 420.6649 c 3
 451.439013003 420.6649 527.25895 317.112859969 527.25895 197.19295 c 3
 527.25895 83.5660419472 429.08310834 -14.0537109375 306.094726562 -14.0537109375 c 3
 140.011144607 -14.0537109375 86.6972106934 148.484872703 86.6972106934 243.2464 c 3
 86.6972106934 426.975713376 177.598739051 570.254457592 384.087890625 676.493164062 c 1
EndSplineSet
Validated: 1
Substitution2: "dnom-1" six.denom
Substitution2: "numr-1" six.numerator
Substitution2: "tnum-1" six.tabulartext
Substitution2: "lnum-1" six.proportionallining
EndChar
StartChar: seven
Encoding: 55 55 70
Width: 575
Flags: HW
HStem: 426.44 80.5371<152.503 401.205>
LayerCount: 2
Fore
SplineSet
179.084960938 514.116210938 m 1
 179.7734375 513.083984375 194.768554688 507.251953125 206.2109375 506.977539062 c 0
 323.365234375 504.208007812 485.98828125 506.028320312 507.037109375 507.927734375 c 1
 507.037109375 507.927734375 525.509765625 455.395507812 529.170898438 451.54296875 c 1
 503.528320312 411.6328125 219.539176689 -134.829303124 209.734375 -172.337890625 c 5
 209.734375 -172.337890625 108.386322598 -172.113512823 106.305664062 -172.180664062 c 5
 203.195372184 20.1726928826 300.901367188 189.842773438 415.913085938 408.1015625 c 0
 419.330078125 414.3359375 414.325195312 421.909179688 404.180664062 422.647460938 c 0
 339.8515625 427.34375 330.202148438 427.350585938 282.171875 426.440429688 c 0
 162.384765625 424.583007812 136.880603498 413.700283927 110.012695312 343.680664062 c 1
 110.012695312 343.680664062 61.8106510239 368.984082824 57.427734375 370.1484375 c 1
 57.427734375 370.1484375 113.490234375 500.1171875 122.692382812 544.783203125 c 1
 179.084960938 514.116210938 l 1
EndSplineSet
Substitution2: "dnom-1" seven.denom
Substitution2: "numr-1" seven.numerator
Substitution2: "tnum-1" seven.tabulartext
Substitution2: "lnum-1" seven.proportionallining
EndChar
StartChar: eight
Encoding: 56 56 71
Width: 570
VWidth: 1159
UnlinkRmOvrlpSave: 1
Flags: W
HStem: -12.5264 66.5264<237.184 369.748> 596.136 64.7168<221.798 334.876>
VStem: 82.5742 90.4258<118.32 235.13> 119.264 84.0918<463.903 577.618> 365.527 82.4727<455.699 565.992> 401 87.877<84.6847 218.086>
LayerCount: 2
Fore
SplineSet
272.333984375 596.135742188 m 3xe8
 237.108400983 596.135742188 203.35546875 570.940661593 203.35546875 523.268554688 c 3
 203.35546875 382.115003186 488.876953125 362.149062541 488.876953125 173.89453125 c 3xd4
 488.876953125 87.6819690175 437.276279164 -12.5263671875 279.974609375 -12.5263671875 c 7
 163.43678299 -12.5263671875 82.57421875 59.3987685114 82.57421875 167.532226562 c 3
 82.57421875 321.800668889 365.52734375 392.678527547 365.52734375 505.934570312 c 3
 365.52734375 566.348785178 321.444351094 596.135742188 272.333984375 596.135742188 c 3xe8
275.196289062 660.852539062 m 3
 309.469560689 660.852539062 448 652.211302001 448 499 c 3
 448 356.592503849 173 324.056565347 173 182 c 3xe8
 173 144.479504719 209.4739847 54 309 54 c 3
 359.913157609 54 401 88.506777561 401 146 c 3
 401 205.435124094 376.776527499 231.752900761 337 260 c 0
 199.000247266 358.00020556 119.263671875 413.715947823 119.263671875 491.041015625 c 3
 119.263671875 614.638491857 220.559812246 660.852539062 275.196289062 660.852539062 c 3
EndSplineSet
Substitution2: "dnom-1" eight.denom
Substitution2: "numr-1" eight.numerator
Substitution2: "lnum-1" eight.proportionallining
Substitution2: "tnum-1" eight.tabulartext
EndChar
StartChar: greater
Encoding: 62 62 333
Width: 463
VWidth: 0
Flags: W
LayerCount: 2
Fore
SplineSet
57.419825 417.14678 m 1
 106 485.116 l 1
 412 276.116 l 1
 82 66.116 l 1
 45.97915 125.93215 l 1
 271.722325 268.39318 l 1
 57.419825 417.14678 l 1
EndSplineSet
Validated: 1
Position2: "'case' vertical ajustments for all-caps-1" dx=0 dy=90 dh=0 dv=0
EndChar
StartChar: A
Encoding: 65 65 26
Width: 733
VWidth: 1159
Flags: HMW
AnchorPoint: "Top" 382 679 basechar 0
AnchorPoint: "Bottom" 368 -15 basechar 0
LayerCount: 2
Fore
SplineSet
252 252 m 1
 299 248 416 255 460 255 c 1
 431 332 391 424 364 507 c 1
 333 426 288 331 252 252 c 1
510 -10 m 5
 510 -10 493 53 493 54 c 5
 511 60 544 60 532 83 c 4
 510 125 504 146 485 189 c 1
 403 190 335 191 227 192 c 1
 207 150 201 139 182 96 c 4
 172 73 193 70 227 64 c 5
 222 -8 l 5
 192 -1 156 1 120 1 c 7
 94 1 68 0 46 -3 c 5
 45 14 44 37 43 61 c 5
 82 71 87 76 97 97 c 4
 194 295 270 453 326 599 c 0
 343 643 341 650 349 689 c 1
 415 689 l 1
 421 653 423 645 438 600 c 0
 509 387 559 291 651 80 c 4
 659 61 667 63 693 59 c 5
 694 42 696 17 697 -2 c 5
 665 -1 635 1 607 1 c 7
 574 1 543 -1 510 -10 c 5
EndSplineSet
Validated: 33
Position2: "cpsp-1" dx=0 dy=0 dh=50 dv=100
Substitution2: "c2pc-1" a.pcap
Substitution2: "c2sc-1" a.smcp
EndChar
StartChar: B
Encoding: 66 66 27
Width: 691
Flags: HMW
AnchorPoint: "Bottom" 313 -15 basechar 0
AnchorPoint: "Top" 327 679 basechar 0
LayerCount: 2
Fore
SplineSet
77 67 m 1
 122 67 151 66 152 71 c 0
 154 80 153 172 153 287 c 3
 153 444 150 582 145 596 c 0
 142 604 145 611 134 612 c 0
 120 613 85 617 72 619 c 1
 84 690 l 1
 115 685 125 678 192 678 c 3
 242 678 282 688 330 688 c 3
 487 688 565 603 565 510 c 3
 565 442 522 387 456 364 c 1
 561 348 628 275 628 187 c 3
 628 69 514 -3 364 -3 c 3
 305 -3 264 2 198 2 c 3
 123 2 113 -1 82 -3 c 1
 77 67 l 1
290 377 m 3
 400 377 452 421 452 485 c 3
 452 537 431 620 330 620 c 3
 310 620 279 617 273 614 c 0
 263 610 262 583 261 573 c 0
 255 494 257 408 258 377 c 1
 283 377 279 377 290 377 c 3
349 320 m 3
 329 320 280 317 257 317 c 1
 258 218 257 143 258 87 c 0
 259 68 261 66 274 66 c 0
 285 66 342 66 382 66 c 3
 453 66 514 102 514 191 c 3
 514 258 445 320 349 320 c 3
EndSplineSet
Position2: "cpsp-1" dx=0 dy=0 dh=50 dv=100
Substitution2: "c2pc-1" b.pcap
Substitution2: "c2sc-1" b.smcp
EndChar
StartChar: C
Encoding: 67 67 28
Width: 732
VWidth: 1159
Flags: W
HStem: -16 75<324.657 532.763> 616 72<305.31 517.851>
VStem: 43 115<224.684 446.36> 597 62<492.205 547.426> 632 57<153.196 187.719>
AnchorPoint: "Top" 417 679 basechar 0
AnchorPoint: "Bottom" 403 -15 basechar 0
LayerCount: 2
Fore
SplineSet
43 320 m 3xe8
 43 503 166 688 414 688 c 3
 482 688 512 679 572 663 c 0
 607 654 612 657 629 668 c 1
 679 644 l 1
 655 595 657 577 659 522 c 0
 661 486 643 478 597 477 c 1xf0
 571 525 581 556 566 566 c 0
 514 602 475 616 412 616 c 3
 263 616 158 512 158 333 c 3
 158 150 305 59 428 59 c 3
 536 59 600 109 632 200 c 1
 689 186 l 1
 683 135 663 99 648 52 c 1
 582 17 519 -16 428 -16 c 3
 201 -16 43 121 43 320 c 3xe8
EndSplineSet
Validated: 33
Position2: "cpsp-1" dx=0 dy=0 dh=50 dv=100
Substitution2: "c2pc-1" c.pcap
Substitution2: "c2sc-1" c.smcp
EndChar
StartChar: D
Encoding: 68 68 29
Width: 804
VWidth: 1159
Flags: W
HStem: -10 70<66.5 129.877> -5 73<225.381 515.185> 617 71<262.927 468.084>
VStem: 131 118<390.955 596.715> 138 108<115.517 572.23> 663 105<214.882 437.965>
AnchorPoint: "Top" 382 679 basechar 0
AnchorPoint: "Bottom" 368 -15 basechar 0
LayerCount: 2
Fore
SplineSet
380 68 m 3x6c
 565 68 663 162 663 326 c 3
 663 562 448 617 355 617 c 3
 309 617 286 607 263 597 c 0
 250 591 249 580 249 575 c 0x74
 247 516 246 451 246 388 c 3
 246 281 248 192 255 103 c 0
 256 94 252 93 268 88 c 0
 300 76 349 68 380 68 c 3x6c
63 682 m 1
 111 678 130 674 177 674 c 1
 261 674 305 688 387 688 c 3
 533 688 768 597 768 350 c 3
 768 70 552 -5 364 -5 c 3x74
 295 -5 258 2 185 2 c 3
 148 2 115 -1 67 -10 c 1
 62 60 l 1
 113 71 137 78 137 95 c 0
 138 134 138 187 138 239 c 3xac
 138 386 135 534 131 605 c 0
 131 611 87 609 60 610 c 1
 63 682 l 1
EndSplineSet
Validated: 1
Position2: "cpsp-1" dx=0 dy=0 dh=50 dv=100
Substitution2: "c2pc-1" d.pcap
Substitution2: "c2sc-1" d.smcp
EndChar
StartChar: E
Encoding: 69 69 30
Width: 683
Flags: HW
HStem: -14 65<95.7077 142.082> 1 76<254.078 526.75> 306 69<254 469.271> 612 67<85 143.054 256.953 516.686> 667 20G<558 581>
VStem: 144 110<77.9826 305 374 607.868> 480 63<261.095 305.939 375.112 419.629> 519 59<543 603.369> 568 59<127.365 143.729>
AnchorPoint: "Top" 349 679 basechar 0
AnchorPoint: "Bottom" 340 -15 basechar 0
LayerCount: 2
Fore
SplineSet
85 684 m 1xa680
 149 681 253 679 349 679 c 3xb680
 452 679 546 681 570 687 c 1
 592 671 599 660 599 647 c 3
 599 629 580 605 578 543 c 1
 519 538 l 1x2d
 512 566 527 600 511 602 c 0
 463 608 393 612 332 612 c 3
 310 612 289 611 271 610 c 0
 263 609 257 606 257 595 c 0
 256 523 255 441 254 374 c 1
 299 376 457 374 462 375 c 0
 471 376 470 400 481 432 c 1
 547 419 l 1
 539 387 535 357 535 327 c 3
 535 307 538 286 543 262 c 1
 480 243 l 1
 463 286 472 306 464 306 c 0
 430 305 308 304 252 305 c 1
 252 218 251 153 253 95 c 0
 253 80 260 78 266 78 c 0
 305 78 342 77 377 77 c 3
 415 77 450 78 484 79 c 0
 522 81 532 100 568 164 c 1
 627 141 l 1
 612 80 603 57 591 0 c 1
 500 -3 404 1 313 1 c 3x7680
 233 1 158 0 97 -14 c 1
 85 51 l 1
 123 59 143 67 143 75 c 1
 143 113 144 225 144 346 c 3
 144 474 143 591 143 602 c 0
 143 608 117 608 82 611 c 1
 85 684 l 1xa680
EndSplineSet
Position2: "cpsp-1" dx=0 dy=0 dh=50 dv=100
Substitution2: "c2pc-1" e.pcap
Substitution2: "c2sc-1" e.smcp
EndChar
StartChar: F
Encoding: 70 70 31
Width: 622
Flags: W
HStem: -10 74<84.9459 132.994 247.287 352.911> 298 67<243 440.434> 606 70<72 133.256 241.001 463.988>
VStem: 133 114<69.127 299 367 606.875> 455 70<242.2 297.439>
AnchorPoint: "Top" 324 679 basechar 0
AnchorPoint: "Bottom" 235 -15 basechar 0
LayerCount: 2
Fore
SplineSet
352 -11 m 1
 302 -3 254 1 208 1 c 3
 166 1 126 -2 86 -10 c 1
 73 64 l 1
 113 69 132 68 133 85 c 1
 133 109 134 155 134 217 c 3
 134 360 134 545 133 604 c 0
 133 607 107 606 66 612 c 1
 72 681 l 1
 125 678 211 676 296 676 c 3
 397 676 496 679 515 696 c 1
 545 685 549 667 553 641 c 0
 559 601 561 584 563 534 c 1
 502 524 l 1
 478 562 469 594 445 597 c 0
 397 603 314 610 246 606 c 0
 243 606 241 599 241 588 c 0
 240 511 242 438 242 367 c 1
 312 368 420 365 430 365 c 0
 440 365 442 381 455 419 c 1
 526 408 l 1
 517 379 513 353 513 327 c 3
 513 301 518 275 525 244 c 1
 455 226 l 1
 434 277 444 298 430 298 c 0
 399 299 312 298 243 299 c 1
 244 199 242 141 247 79 c 0
 248 64 256 71 364 69 c 1
 352 -11 l 1
EndSplineSet
Position2: "cpsp-1" dx=0 dy=0 dh=50 dv=100
Substitution2: "c2pc-1" f.pcap
Substitution2: "c2sc-1" f.smcp
EndChar
StartChar: G
Encoding: 71 71 32
Width: 770
Flags: HW
HStem: -12 70<347.252 554.941> 284 70<456 538.645> 299 65<685.834 720.646> 617 71<303.793 536.554>
VStem: 38 120<240.252 452.584> 572 109<88.0959 282.279> 586 61<662.609 683>
AnchorPoint: "Top" 424 679 basechar 0
AnchorPoint: "Bottom" 424 -15 basechar 0
LayerCount: 2
Fore
SplineSet
38 334 m 3xbc
 38 542 217 688 426 688 c 1
 483 688 524 675 566 662 c 0
 589 655 581 673 586 683 c 1
 647 688 l 1xba
 685 544 l 1
 628 525 l 1
 606 559 542 617 417 617 c 3
 259 617 158 513 158 360 c 1
 158 169 294 58 469 58 c 1
 515 58 544 70 567 88 c 0
 569 90 572 95 572 99 c 0
 572 141 575 196 574 268 c 0
 574 281 577 282 540 283 c 0
 511 284 488 282 456 284 c 1
 456 354 l 1xdc
 557 342 661 355 720 364 c 1
 726 299 l 1
 698 297 685 292 685 278 c 0
 683 200 682 152 681 98 c 0
 681 88 687 87 709 77 c 1
 704 32 l 1
 622 18 503 -12 436 -12 c 1
 222 -12 38 124 38 334 c 3xbc
EndSplineSet
Position2: "cpsp-1" dx=0 dy=0 dh=50 dv=100
Substitution2: "c2pc-1" g.pcap
Substitution2: "c2sc-1" g.smcp
EndChar
StartChar: H
Encoding: 72 72 33
Width: 893
VWidth: 1159
Flags: W
HStem: -7 76<69 130.81 613.132 657.07> 311 68<246 662> 617 69<604.594 656.451> 623 70<778.152 821.5>
VStem: 136 110<69.0823 311 379 605.175> 657 120<385.053 613.034> 662 106<72.4788 312 379 499.728>
AnchorPoint: "Top" 458 679 basechar 0
AnchorPoint: "Bottom" 455 -15 basechar 0
LayerCount: 2
Fore
SplineSet
69 687 m 1xda
 113 679 156 674 200 674 c 3
 234 674 268 678 307 684 c 1
 312 614 l 1
 293 610 258 609 253 607 c 1
 251 569 245 471 244 379 c 5
 662 379 l 5xda
 662 445 657 598 657 607 c 0
 652 613 633 613 601 617 c 1
 605 686 l 1xec
 640 681 669 677 697 677 c 3
 733 677 769 681 820 693 c 1
 835 623 l 1
 811 616 778 618 777 609 c 0xdc
 771 502 768 359 768 232 c 3
 768 162 769 101 771 80 c 0
 772 71 803 71 835 71 c 1
 835 71 828 -6 828 -7 c 1
 787 -2 748 0 709 0 c 3
 679 0 648 -2 614 -8 c 1
 611 13 607 39 604 66 c 1
 637 68 657 68 658 83 c 0
 663 169 662 227 662 312 c 5
 246 311 l 5
 246 231 243 137 246 81 c 0
 247 60 290 70 309 68 c 1
 309 68 302 -8 302 -9 c 1
 257 -3 220 0 184 0 c 3
 146 0 109 -2 69 -7 c 1
 69 -7 57 67 57 69 c 1
 86 69 131 66 131 75 c 0
 136 191 136 340 136 463 c 3
 136 535 134 589 130 602 c 0
 127 613 101 613 64 615 c 1
 69 687 l 1xda
EndSplineSet
Validated: 33
Position2: "cpsp-1" dx=0 dy=0 dh=50 dv=100
Substitution2: "c2pc-1" h.pcap
Substitution2: "c2sc-1" h.smcp
EndChar
StartChar: I
Encoding: 73 73 34
Width: 453
VWidth: 1159
Flags: W
HStem: -8 21G<69.1579 95.5 360.5 387.389> 672 20G<74.4211 102.5 362 391.026>
VStem: 179 106<67.4773 555.247>
AnchorPoint: "Top" 233 679 basechar 0
AnchorPoint: "Bottom" 234 -15 basechar 0
LayerCount: 2
Fore
SplineSet
76 692 m 1
 129 680 179 675 230 675 c 3
 281 675 334 681 390 689 c 1
 394 611 l 1
 359 612 298 610 298 609 c 0
 288 534 285 428 285 283 c 3
 285 215 287 150 291 72 c 0
 291 67 333 64 391 64 c 1
 386 -8 l 1
 335 -1 282 0 231 0 c 3
 175 0 120 -2 71 -11 c 1
 64 65 l 1
 130 66 173 59 174 75 c 0
 177 155 179 257 179 362 c 3
 179 465 177 548 174 607 c 0
 174 610 101 615 70 616 c 1
 76 692 l 1
EndSplineSet
Validated: 33
Position2: "cpsp-1" dx=0 dy=0 dh=50 dv=100
Substitution2: "c2pc-1" i.pcap
Substitution2: "c2sc-1" i.smcp
EndChar
StartChar: J
Encoding: 74 74 35
Width: 401
Flags: HMW
AnchorPoint: "Top" 211 679 basechar 0
AnchorPoint: "Bottom" 266 -65 basechar 0
LayerCount: 2
Fore
SplineSet
153 601 m 0
 150 613 101 615 42 616 c 1
 49 691 l 1
 101 680 145 675 188 675 c 3
 243 675 295 682 361 691 c 1
 366 613 l 1
 333 613 271 611 270 603 c 0
 259 491 263 385 263 231 c 0
 263 126 269 88 267 51 c 1
 267 -35 204 -94 136 -136 c 0
 115 -149 95 -163 75 -177 c 1
 35 -118 l 1
 58 -106 76 -95 95 -82 c 0
 102 -77 110 -72 116 -66 c 0
 148 -34 161 13 163 105 c 1
 163 136 156 589 153 601 c 0
EndSplineSet
Position2: "cpsp-1" dx=0 dy=0 dh=50 dv=100
Substitution2: "c2pc-1" j.pcap
Substitution2: "c2sc-1" j.smcp
EndChar
StartChar: K
Encoding: 75 75 36
Width: 754
Flags: HW
HStem: -9 60<477.833 505.773 657.262 710.145> 618 63<451.556 485.984> 624 62<71.8065 127.913 579.432 637.242>
VStem: 132 112<372.702 614.266> 132 98<63.726 301 369 611.945>
AnchorPoint: "Top" 369 679 basechar 0
AnchorPoint: "Bottom" 374 -15 basechar 0
LayerCount: 2
Fore
SplineSet
452 681 m 1xd0
 471 677 489 675 507 675 c 3
 549 675 592 681 637 692 c 1
 652 624 l 1
 608 614 582 609 562 590 c 0
 487 518 392 443 313 363 c 1
 622 94 l 1
 661 65 689 61 718 46 c 1
 709 -8 l 1
 676 -4 645 1 609 1 c 3
 555 1 526 -4 479 -9 c 1
 469 51 l 1
 471 52 508 58 506 60 c 1
 490 72 322 220 230 301 c 1xa8
 230 226 232 126 233 79 c 0
 233 67 255 59 301 57 c 1
 293 -8 l 1
 252 -2 215 1 172 1 c 3
 141 1 108 -1 68 -6 c 1
 62 62 l 1
 109 62 127 58 127 64 c 0
 130 170 132 276 132 388 c 3
 132 464 133 523 129 594 c 0
 127 623 121 615 60 624 c 1
 72 686 l 1
 109 679 144 676 179 676 c 3
 217 676 253 680 291 686 c 1xb0
 299 618 l 1
 256 614 244 613 244 604 c 1
 241 526 232 448 232 369 c 1
 301 440 389 513 461 586 c 0
 476 602 482 606 486 610 c 0
 486 610 464 614 448 618 c 1
 452 681 l 1xd0
EndSplineSet
Position2: "cpsp-1" dx=0 dy=0 dh=50 dv=100
Substitution2: "c2pc-1" k.pcap
Substitution2: "c2sc-1" k.smcp
EndChar
StartChar: L
Encoding: 76 76 37
Width: 682
Flags: HW
HStem: -15 21G<597.5 622> -8 75<67 125.875> 1 72<237.907 482.508> 615 73<240.153 324.479>
VStem: 128 109<73.0258 605.596> 581 67<115.869 170>
AnchorPoint: "Top" 207 679 basechar 0
AnchorPoint: "Bottom" 335 -15 basechar 0
LayerCount: 2
Fore
SplineSet
324 688 m 1x5c
 329 615 l 1
 234 605 237 604 237 575 c 0
 237 518 238 149 237 133 c 1
 238 85 237 73 247 73 c 0x3c
 311 72 475 71 518 80 c 0
 563 89 550 99 581 183 c 1
 648 170 l 1
 649 104 634 129 610 -15 c 1x9c
 585 -7 578 -2 532 -1 c 0
 518 -1 426 1 319 1 c 1x3c
 94 1 113 -8 67 -8 c 1
 60 67 l 1
 101 68 125 70 126 80 c 0
 127 90 128 187 128 303 c 3
 128 454 123 582 122 598 c 0
 121 611 110 609 55 609 c 1
 60 688 l 1
 102 679 149 675 193 675 c 3
 239 675 285 680 324 688 c 1x5c
EndSplineSet
Position2: "cpsp-1" dx=0 dy=0 dh=50 dv=100
Substitution2: "c2pc-1" l.pcap
Substitution2: "c2sc-1" l.smcp
EndChar
StartChar: M
Encoding: 77 77 38
Width: 998
Flags: HW
HStem: -11 74<92.4595 150.107 235.715 290.649 702.306 759.735> -3 21G<461.5 533> 610 76<849.918 920.737> 614 79<105.848 161.624>
VStem: 156 79<74.3466 346.086> 462 66<-3 78.7803> 751 99<333.22 529> 763 104<73.4554 349>
AnchorPoint: "Top" 516 679 basechar 0
AnchorPoint: "Bottom" 497 -15 basechar 0
LayerCount: 2
Fore
SplineSet
934 -11 m 1xad
 897 -3 859 0 820 0 c 3
 783 0 745 -3 703 -13 c 1
 693 61 l 1
 740 74 762 74 763 91 c 0xad
 768 237 758 399 751 529 c 1
 690 394 624 256 568 128 c 0
 551 90 538 43 528 -3 c 1
 462 -3 l 1x4e
 461 39 447 73 429 119 c 0
 364 289 251 512 247 530 c 1
 236 404 234 249 235 114 c 0
 235 58 228 81 300 66 c 1
 290 -9 l 1
 259 -2 224 0 186 0 c 3
 156 0 124 -1 93 -11 c 1
 85 63 l 1
 149 71 157 87 156 102 c 1
 156 104 174 546 174 550 c 1
 176 573 172 592 162 601 c 0
 154 608 145 615 94 614 c 1
 107 693 l 1x9e
 162 682 223 676 277 678 c 1
 303 679 312 654 313 650 c 0
 374 488 449 329 521 173 c 1
 519 181 736 659 737 660 c 0
 744 674 757 684 774 682 c 0
 825 676 870 681 920 686 c 1
 928 610 l 1
 871 604 850 616 850 597 c 0x2e
 848 432 862 271 867 86 c 0
 867 69 876 71 937 68 c 1
 934 -11 l 1xad
EndSplineSet
Position2: "cpsp-1" dx=0 dy=0 dh=50 dv=100
Substitution2: "c2pc-1" m.pcap
Substitution2: "c2sc-1" m.smcp
EndChar
StartChar: N
Encoding: 78 78 39
Width: 802
Flags: HW
HStem: -11 17G<36.6471 61.5 260 282.963 652 727.667> 611 67<31 85.078 732.807 787.134> 671 20G<555.632 588>
VStem: 93 84<72 332.119> 101 82<210.975 498> 654 63<196 319.371> 661 70<3.9 26.8811>
AnchorPoint: "Bottom" 407 -15 basechar 0
AnchorPoint: "Top" 410 679 basechar 0
LayerCount: 2
Fore
SplineSet
31 684 m 1xc8
 58 684 114 674 150 674 c 0
 170 674 181 661 186 656 c 0
 341 483 477 350 649 196 c 1
 651 294 654 355 654 463 c 3
 654 490 654 516 654 541 c 0
 652 640 616 604 549 615 c 1
 558 691 l 1xac
 618 681 669 678 721 678 c 3
 742 678 764 679 787 681 c 1
 796 611 l 1
 753 605 734 617 734 610 c 0
 721 432 717 289 717 93 c 0xcc
 717 66 725 29 731 6 c 1
 661 -15 l 1
 643 33 610 69 576 106 c 0
 446 247 323 362 183 498 c 1xca
 183 490 179 152 177 145 c 1
 174 45 198 76 292 68 c 1
 280 -13 l 1
 240 -4 201 0 166 0 c 3
 124 0 84 -5 39 -11 c 1
 29 74 l 1
 78 72 92 64 93 85 c 0xd0
 100 207 101 329 101 455 c 3
 101 494 101 514 101 548 c 1
 101 574 88 610 28 605 c 1
 31 684 l 1xc8
EndSplineSet
Position2: "cpsp-1" dx=0 dy=0 dh=50 dv=100
Substitution2: "c2pc-1" n.pcap
Substitution2: "c2sc-1" n.smcp
EndChar
StartChar: O
Encoding: 79 79 40
Width: 819
VWidth: 1159
Flags: W
HStem: -16 72<346.672 526.99> 616 73<284.654 475.048>
VStem: 46 119<261.919 449.449> 653 115<214.618 413.376>
AnchorPoint: "Bottom" 418 -15 basechar 0
AnchorPoint: "Top" 399 679 basechar 0
LayerCount: 2
Fore
SplineSet
381 616 m 3
 255 616 165 528 165 381 c 3
 165 208 293 56 434 56 c 3
 568 56 653 163 653 297 c 3
 653 453 533 616 381 616 c 3
405 689 m 3
 594 689 768 540 768 329 c 3
 768 131 601 -16 414 -16 c 3
 242 -16 46 100 46 331 c 3
 46 533 215 689 405 689 c 3
EndSplineSet
Position2: "cpsp-1" dx=0 dy=0 dh=50 dv=100
Substitution2: "c2pc-1" o.pcap
Substitution2: "c2sc-1" o.smcp
EndChar
StartChar: P
Encoding: 80 80 41
Width: 639
Flags: W
HStem: -15 69<83.6667 124.139> 198 68<237.579 397.12> 205 67<237 286.335> 618 68<230.869 402.993>
VStem: 119 111<277.687 608.946> 126 111<66.3363 205 267.256 600.713> 501 105<360.507 516.779>
AnchorPoint: "Bottom" 227 -15 basechar 0
AnchorPoint: "Top" 323 679 basechar 0
LayerCount: 2
Fore
SplineSet
296 266 m 1xda
 419 266 501 345 501 441 c 1
 501 507 450 573 403 597 c 0
 380 609 336 617 305 618 c 0
 271 619 230 606 230 604 c 0
 232 535 235 393 235 272 c 1xba
 254 266 274 266 296 266 c 1xda
59 681 m 1
 89 677 105 675 146 675 c 1
 221 675 251 686 324 686 c 1
 489 686 606 572 606 446 c 1
 606 345 525 198 287 198 c 1xda
 273 198 247 203 237 205 c 1
 238 150 241 95 243 73 c 0
 244 60 293 71 331 62 c 1
 324 -11 l 1
 277 -1 242 0 207 0 c 3
 173 0 138 1 86 -15 c 1
 63 54 l 1
 123 75 126 60 126 72 c 0
 126 104 126 136 126 179 c 3xb6
 126 337 124 537 119 605 c 0
 119 610 107 609 54 609 c 1
 59 681 l 1
EndSplineSet
Position2: "cpsp-1" dx=0 dy=0 dh=50 dv=100
Substitution2: "c2pc-1" p.pcap
Substitution2: "c2sc-1" p.smcp
EndChar
StartChar: Q
Encoding: 81 81 42
Width: 801
Flags: HW
HStem: -171 74<683.094 828.457> -12 82<334.469 436.601> 619 73<276.077 461.215>
VStem: 42 107<247.224 459.392> 642 103<228.036 436.809>
AnchorPoint: "Bottom" 321 -15 basechar 0
AnchorPoint: "Top" 394 679 basechar 0
LayerCount: 2
Fore
SplineSet
354 619 m 3
 255 619 149 517 149 356 c 3
 149 185 294 70 429 70 c 3
 540 70 642 175 642 321 c 3
 642 507 503 619 354 619 c 3
545 27 m 1
 617 -56 712 -97 779 -97 c 3
 799 -97 816 -96 825 -96 c 1
 843 -150 l 1
 823 -159 785 -171 738 -171 c 3
 619 -171 512 -109 419 -12 c 1
 181 -12 42 150 42 332 c 3
 42 541 194 692 389 692 c 3
 585 692 745 548 745 357 c 3
 745 208 663 74 545 27 c 1
EndSplineSet
Position2: "cpsp-1" dx=0 dy=0 dh=50 dv=100
Substitution2: "salt-1" Q.alt
Substitution2: "c2pc-1" q.pcap
Substitution2: "c2sc-1" q.smcp
EndChar
StartChar: R
Encoding: 82 82 43
Width: 800
Flags: HMW
AnchorPoint: "Bottom" 360 -15 basechar 0
AnchorPoint: "Top" 341 679 basechar 0
LayerCount: 2
Fore
SplineSet
242 360 m 1
 268 359 297 357 325 357 c 3
 398 357 477 412 477 494 c 3
 477 566 416 621 346 621 c 3
 290 621 239.144404185 613.256320488 240 597 c 0
 241 578 242 435 242 360 c 1
72 675 m 1
 115 674 141 673 179 673 c 3
 239 673 265 692 335 692 c 3
 460 692 582 626 582 502 c 3
 582 403 509 345 452 316 c 1
 577 121 670 43 785 40 c 1
 770 -29 l 1
 595 -25 414 161 341 293 c 1
 330 292 318 291 303 291 c 3
 279 291 261 293 242 294 c 1
 243 231 243 136 243 80 c 0
 243 67 268 65 313 64 c 1
 300 -14 l 1
 265 -4 228 0 191 0 c 3
 157 0 122 -4 87 -13 c 1
 73 64 l 1
 128 63 134 78 135 76 c 1
 140 186 141 262 141 339 c 3
 141 420 140 486 138 590 c 1
 136 605 124 604 72 606 c 1
 72 675 l 1
EndSplineSet
Position2: "cpsp-1" dx=0 dy=0 dh=50 dv=100
Substitution2: "salt-1" R.alt
Substitution2: "c2pc-1" r.pcap
Substitution2: "c2sc-1" r.smcp
EndChar
StartChar: S
Encoding: 83 83 44
Width: 588
Flags: HW
HStem: -14 77<229.377 400.265> -1 21G<78 143> 613 74<228.678 408.829>
VStem: 78 63<3 24.1148> 91 97<472.587 574.953> 440 95<101.773 223.017>
AnchorPoint: "Bottom" 315 -15 basechar 0
AnchorPoint: "Top" 321 679 basechar 0
LayerCount: 2
Fore
SplineSet
57 185 m 1x74
 124 195 l 1
 155 147 165 127 178 119 c 0
 203 91 268 63 317 63 c 3
 413 63 440 114 440 170 c 3
 440 248 319 290 231 326 c 0
 210 334 91 377 91 502 c 3
 91 593 179 687 316 687 c 3
 379 687 418 676 443 666 c 0
 456 661 448 663 457 681 c 1
 518 665 l 1
 506 632 506 615 508 596 c 0
 518 512 518 490 446 499 c 1
 431 552 433 575 416 587 c 0
 397 600 363 613 306 613 c 3
 247 613 188 579 188 525 c 3
 188 456 247 442 401 374 c 0
 514 324 535 244 535 180 c 3
 535 97 478 -14 300 -14 c 3xac
 256 -14 200 0 150 25 c 1
 151 17 145 13 141 -1 c 1
 78 3 l 1
 81 74 77 78 57 185 c 1x74
EndSplineSet
Position2: "cpsp-1" dx=0 dy=0 dh=50 dv=100
Substitution2: "c2pc-1" s.pcap
Substitution2: "c2sc-1" s.smcp
EndChar
StartChar: T
Encoding: 84 84 45
Width: 726
VWidth: 1159
Flags: HMW
AnchorPoint: "Bottom" 368 -15 basechar 0
AnchorPoint: "Top" 368 679 basechar 0
LayerCount: 2
Fore
SplineSet
135 680 m 0
 265 680 401 678 535 678 c 3
 569 678 603 678 636 678 c 0
 657 678 665 692 674 703 c 1
 723 671 l 1
 706 631 685 584 686 536 c 1
 610 548 l 1
 623 603 l 1
 597 603 485 607 424 608 c 1
 422 462 418 297 418 148 c 3
 418 132 418 112 418 101 c 0
 418 60 405 76 521 68 c 1
 511 -9 l 1
 478 0 435 2 390 2 c 3
 326 2 259 1 215 -14 c 1
 202 63 l 1
 273 65 305 74 305 81 c 0
 306 166 308 392 308 526 c 3
 308 561 308 590 309 609 c 1
 265 608 203 608 152 607 c 0
 108 607 113 614 77 539 c 1
 4 570 l 1
 27 612 57 684 77 721 c 1
 99 703 121 680 135 680 c 0
EndSplineSet
Validated: 33
Position2: "cpsp-1" dx=0 dy=0 dh=50 dv=100
Substitution2: "c2pc-1" t.pcap
Substitution2: "c2sc-1" t.smcp
EndChar
StartChar: U
Encoding: 85 85 53
Width: 816
Flags: W
HStem: -13 88<308.037 549.516> 610 66<715.018 775.284> 616 69<49.4167 109.229 222.011 277.696>
VStem: 109 113<150.891 608.316> 635 80<158.27 609.484>
AnchorPoint: "Ogonek" 499.65 23.6582 basechar 0
AnchorPoint: "Bottom" 420 -15 basechar 0
AnchorPoint: "Top" 423 679 basechar 0
LayerCount: 2
Fore
SplineSet
50 686 m 1xd8
 78 681 123 679 169 679 c 3
 208 679 247 681 277 685 c 1
 285 616 l 1xb8
 237 610 222 618 222 602 c 0
 222 586 219 387 225 250 c 0
 227 201 230 158 258 130 c 0
 292 95 344 75 454 75 c 3
 473 75 542 79 587 121 c 0
 617 148 628 186 633 246 c 0
 641 337 636 506 635 601 c 0
 635 617 617 612 574 613 c 1
 576 686 l 1
 603 681 651 676 692 676 c 3
 728 676 761 679 776 687 c 1
 781 610 l 1
 739 611 715 609 715 604 c 0
 715 590 720 468 716 246 c 0
 715 167 692 105 647 62 c 0
 595 11 514 -13 419 -13 c 3
 303 -13 223 14 173 61 c 0
 131 101 117 161 113 229 c 0
 111 266 114 581 109 596 c 0
 106 608 95 608 43 613 c 1
 50 686 l 1xd8
EndSplineSet
Position2: "cpsp-1" dx=0 dy=0 dh=50 dv=100
Substitution2: "c2pc-1" u.pcap
Substitution2: "c2sc-1" u.smcp
EndChar
StartChar: V
Encoding: 86 86 54
Width: 756
Flags: W
HStem: -10 21G<319.5 391> 602 74<548.365 606.136> 609 76<197.72 228.44 547 605.652 692.361 747.351> 618 71<10.8169 60.3952>
AnchorPoint: "Bottom" 358 -15 basechar 0
AnchorPoint: "Top" 390 679 basechar 0
LayerCount: 2
Fore
SplineSet
228 685 m 1xa0
 239 610 l 1
 224 610 203 610 199 609 c 0xa0
 191 607 192 602 195 594 c 1
 252 482 376 178 382 143 c 1
 390 159 602 581 606 589 c 1
 609 596 606 602 601 602 c 0xc0
 589 603 559 605 545 608 c 1
 547 685 l 1xa0
 576 676 613 676 651 676 c 3xc0
 688 676 727 681 747 689 c 1
 756 608 l 1
 710 594 694 596 689 582 c 1
 666 547 488 215 418 59 c 0
 407 35 398 14 391 -9 c 1
 322 -10 l 1
 317 18 312 20 303 55 c 0
 272 171 162 407 67 586 c 0
 51 616 52 606 0 618 c 1
 12 689 l 1x90
 57 679 92 677 121 677 c 3
 152 677 182 682 228 685 c 1xa0
EndSplineSet
Position2: "cpsp-1" dx=0 dy=0 dh=50 dv=100
Substitution2: "c2pc-1" v.pcap
Substitution2: "c2sc-1" v.smcp
EndChar
StartChar: W
Encoding: 87 87 55
Width: 1038
Flags: HW
HStem: -8 20G<271.5 342.5 631 699> 616 74<198.407 244.946 580.37 615.84 777 863.741> 624 66<990.052 1028.17>
AnchorPoint: "Bottom" 498 -15 basechar 0
AnchorPoint: "Top" 530 679 basechar 0
LayerCount: 2
Fore
SplineSet
1027 690 m 1xa0
 1038 624 l 1xa0
 977 595 984 617 945 528 c 1
 821 270 781 182 724 47 c 0
 712 20 712 19 699 -6 c 1
 631 -9 l 1
 631 11 624 32 617 66 c 0
 595 170 559 276 534 378 c 1
 437 207 353 45 351 36 c 0
 345 15 346 11 339 -8 c 1
 276 -8 l 1
 267 31 269 37 248 113 c 0
 217 225 134 473 94 552 c 0
 89 562 76 586 60 597 c 0
 38 612 25 612 0 615 c 1
 14 692 l 1
 40 681 84 676 129 676 c 3
 173 676 217 685 244 690 c 1
 254 616 l 1
 213 607 198 616 198 591 c 1
 198 584 198 579 204 568 c 1
 225 512 332 217 342 161 c 1
 351 178 500 439 504 450 c 1
 472 561 450 600 445 608 c 1
 439 614 419 614 398 616 c 1xc0
 405 686 l 1
 430 680 472 676 509 676 c 3
 547 676 586 680 615 688 c 1
 624 615 l 1
 618 613 609 611 599 609 c 0
 581 605 576 592 582 580 c 1
 613 506 693 201 699 155 c 1
 762 292 833 437 869 554 c 0
 885 605 847 608 774 613 c 1
 777 685 l 1
 806 680 846 677 890 677 c 3
 933 677 981 681 1027 690 c 1xa0
EndSplineSet
Position2: "cpsp-1" dx=0 dy=0 dh=50 dv=100
Substitution2: "c2pc-1" w.pcap
Substitution2: "c2sc-1" w.smcp
EndChar
StartChar: X
Encoding: 88 88 56
Width: 690
Flags: HW
HStem: -9 70<184.623 233 432.485 475.002 610.131 670.4> 0 67<182.958 233> 613 66<119 211 427.661 461.001> 621 62<10 74.1973 211.302 242 427.683 461.566 559.299 631.19>
AnchorPoint: "Bottom" 340 -15 basechar 0
AnchorPoint: "Top" 338 679 basechar 0
LayerCount: 2
Fore
SplineSet
10 683 m 1x50
 56 681 92 679 119 679 c 3x20
 157 679 187 681 242 688 c 1
 245 621 l 1x10
 234 617 225 616 211 613 c 0
 209 613 210 599 211 598 c 1
 212 598 346 415 348 413 c 1
 362 436 439 556 461 592 c 0
 465 598 468 606 462 607 c 1
 453 609 427 611 418 620 c 1
 428 684 l 1
 454 679 478 677 503 677 c 3
 544 677 585 680 631 687 c 1
 637 620 l 1
 578 610 564 612 534 573 c 0
 527 564 511 536 385 368 c 1
 408 338 577 122 593 101 c 1
 617 71 626 70 683 61 c 1
 669 -9 l 1xa0
 641 -2 608 0 573 0 c 3
 523 0 471 0 433 -8 c 1
 428 59 l 1
 441 63 457 63 466 64 c 0
 483 68 481 74 475 82 c 0
 395 198 341 278 328 297 c 1
 277 228 213 125 183 77 c 1
 182 76 187 67 193 67 c 0
 204 66 224 67 235 62 c 1
 233 -5 l 1
 189 -1 153 0 117 0 c 3
 84 0 51 0 12 -7 c 1
 9 55 l 1
 51 63 70 69 97 95 c 0
 104 102 133 148 288 342 c 1
 102 573 87 595 75 607 c 0
 58 620 33 616 9 621 c 1
 10 683 l 1x50
EndSplineSet
Position2: "cpsp-1" dx=0 dy=0 dh=50 dv=100
Substitution2: "c2pc-1" x.pcap
Substitution2: "c2sc-1" x.smcp
EndChar
StartChar: Y
Encoding: 89 89 57
Width: 736
VWidth: 1159
Flags: W
HStem: -6 72<249.478 335.748 451.7 541.25> 604 74<175 241 626.52 687.009> 611 75<233.345 265.6 503.658 536.526>
VStem: 338 106<77.7581 291>
AnchorPoint: "Bottom" 393 -15 basechar 0
AnchorPoint: "Top" 386 679 basechar 0
LayerCount: 2
Fore
SplineSet
274 611 m 1xb0
 255 612 252 604 241 604 c 0
 239 604 232 593 233 592 c 1
 292 481 370 385 396 348 c 1
 435 414 542 599 542 594 c 1
 546 599 549 606 537 607 c 0
 527 608 510 608 499 613 c 1
 504 688 l 1
 525 683 566 677 608 677 c 3
 637 677 667 682 688 689 c 1
 698 610 l 1
 659 610 643 603 633 590 c 1
 564 515 491 393 444 291 c 1
 443 249 440 205 450 88 c 0
 452 72 497 69 550 66 c 1
 541 -6 l 1
 488 0 438 0 389 0 c 3
 344 0 298 0 250 -11 c 1
 232 63 l 1
 302 72 340 79 338 94 c 1
 338 97 335 261 336 264 c 1
 313 297 221 456 106 591 c 1
 102 600 76 603 44 617 c 1
 50 687 l 1
 82 683 131 678 175 678 c 3xd0
 210 678 243 680 265 686 c 1
 274 611 l 1xb0
EndSplineSet
Validated: 33
Position2: "cpsp-1" dx=0 dy=0 dh=50 dv=100
Substitution2: "c2pc-1" y.pcap
Substitution2: "c2sc-1" y.smcp
EndChar
StartChar: Z
Encoding: 90 90 58
Width: 696
Flags: W
HStem: 0 67<199 568.049> 610 66.0352<126.721 501>
AnchorPoint: "Bottom" 342 -15 basechar 0
AnchorPoint: "Top" 354 679 basechar 0
LayerCount: 2
Fore
SplineSet
19 548 m 1
 49 615 50 708 106 719 c 1
 123 700 145 680 147 680 c 0
 181.208984375 679.287109375 360.1796875 676.03515625 494.947265625 676.03515625 c 3
 557.234375 676.03515625 600.34375 678 636 678 c 1
 662 639 l 1
 663 639 657 633 656 633 c 0
 650 632 207 69 199 67 c 1
 295 67 405.96875 70 470 70 c 3
 575.04296875 70 588 92 616 178 c 1
 678 150 l 1
 640 61 626 15 595 -30 c 1
 563 -11 562.022460938 2 474 2 c 3
 357.982421875 2 106 3 43 0 c 1
 23 53 l 1
 65 74 96 105 127 138 c 1
 249 284 377 456 498 606 c 1
 501 610 l 1
 479 606 151 606 140 605 c 1
 118 611 110 599 80 528 c 1
 19 548 l 1
EndSplineSet
Position2: "cpsp-1" dx=0 dy=0 dh=50 dv=100
Substitution2: "c2pc-1" z.pcap
Substitution2: "c2sc-1" z.smcp
EndChar
StartChar: bracketleft
Encoding: 91 91 85
Width: 246
VWidth: 1515
Flags: W
HStem: -177 70.4189<159.269 219> 647.581 69.4189<163.684 219>
VStem: 37 182<-177 -106.581 647.581 717> 37 75.0791<-94.0508 634.051>
LayerCount: 2
Fore
SplineSet
112.079101562 634.05078125 m 1xd0
 112.079101562 -94.05078125 l 5xd0
 219 -106.581054688 l 5
 219 -177 l 5
 37 -177 l 5
 37 717 l 1
 219 717 l 1
 219 647.581054688 l 1xe0
 112.079101562 634.05078125 l 1xd0
EndSplineSet
Validated: 1
Position2: "cpsp-1" dx=0 dy=0 dh=50 dv=100
Position2: "'case' vertical ajustments for all-caps-1" dx=0 dy=90 dh=0 dv=0
EndChar
StartChar: asciicircum
Encoding: 94 94 872
Width: 463
VWidth: 1159
Flags: W
HStem: 374 322
LayerCount: 2
Fore
SplineSet
424 401 m 1
 372 374 l 1
 232 554 l 1
 91 374 l 1
 40 401 l 1
 210 696 l 1
 253 696 l 1
 424 401 l 1
EndSplineSet
Validated: 1
EndChar
StartChar: a
Encoding: 97 97 0
Width: 477
Flags: HMW
AnchorPoint: "Top" 230 537 basechar 0
AnchorPoint: "Ogonek" 396 22 basechar 0
AnchorPoint: "Bottom" 213 -15 basechar 0
LayerCount: 2
Fore
SplineSet
291 258 m 1
 290 259 288 259 286 259 c 1
 258 251 194 229 175 216 c 0
 137 189 133 168 133 137 c 3
 133 97 164 71 218 71 c 3
 234 71 267 86 292 111 c 1
 290 139 290 167 290 202 c 3
 290 224 292 246 291 258 c 1
267 517 m 3
 294 517 358 460 373 433 c 0
 386 409 385 386 385 367 c 1
 385 294 383 194 383 127 c 3
 383 94 388 87 392 82 c 0
 395 79 406 76 408 76 c 3
 414 76 442 85 443 85 c 1
 452 26 l 1
 436 19 384 -7 368 -7 c 3
 346 -7 322 8 311 39 c 1
 255 6 208 -10 149 -10 c 3
 68 -10 37 49 37 99 c 1
 37 124 38 150 50 180 c 0
 61 208 78 233 96 242 c 1
 148 277 227 301 292 326 c 1
 292 342 l 1
 292 375 287 379 281 390 c 1
 277 395 244 436 222 436 c 3
 199 436 163 411 163 408 c 3
 163 404 161 395 161 395 c 1
 81 366 l 1
 81 367 58 390 58 407 c 3
 58 424 78 449 118 474 c 0
 138 486 226 517 267 517 c 3
EndSplineSet
Substitution2: "pcap-1" a.pcap
Substitution2: "smcp-1" a.smcp
EndChar
StartChar: b
Encoding: 98 98 1
Width: 552
Flags: HMW
AnchorPoint: "Bottom" 263 -15 basechar 0
AnchorPoint: "Top" 145 720 basechar 0
LayerCount: 2
Fore
SplineSet
152 385 m 1
 153 304 151 228 151 147 c 1
 151 144 150 142 151 141 c 1
 181 94 236 64 278 64 c 3
 368 64 442 127 442 221 c 3
 442 306 354 423 246 423 c 3
 207 423 168 396 152 385 c 1
0 676 m 1
 47 678 87 704 135 744 c 1
 179 714 l 1
 169 689 165 657 163 641 c 0
 157 595 153 530 152 453 c 1
 188 473 238 500 295 500 c 3
 402 500 532 373 532 269 c 3
 532 116 402 -11 241 -11 c 3
 160 -11 132 20 121 20 c 1
 111 20 101 5 85 -16 c 5
 33 9 l 1
 33 10 42 41 45 48 c 1
 47 64 60 97 61 149 c 0
 63 236 65 288 65 375 c 3
 65 484 63 510 57 581 c 0
 55 600 49 618 32 617 c 1
 28 617 12 615 12 615 c 1
 0 676 l 1
EndSplineSet
Substitution2: "case-1" B
Substitution2: "pcap-1" b.pcap
Substitution2: "smcp-1" b.smcp
EndChar
StartChar: c
Encoding: 99 99 2
Width: 444
VWidth: 1159
Flags: HMW
AnchorPoint: "Top" 252 537 basechar 0
AnchorPoint: "Bottom" 243 -15 basechar 0
LayerCount: 2
Fore
SplineSet
350 370 m 5
 336 384 275 431 232 431 c 7
 162 431 116 367 116 274 c 7
 116 169 185 79 278 79 c 7
 318 79 344 95 379 122 c 5
 421 56 l 5
 372 24 316 -10 249 -10 c 7
 190 -10 20 40 20 230 c 7
 20 389 133 516 269 516 c 7
 335 516 399 485 422 464 c 5
 407 399 418 404 350 370 c 5
EndSplineSet
Validated: 1
Substitution2: "case-1" C
Substitution2: "pcap-1" c.pcap
Substitution2: "smcp-1" c.smcp
EndChar
StartChar: d
Encoding: 100 100 3
Width: 553
VWidth: 1159
Flags: HMW
AnchorPoint: "Bottom" 259 -15 basechar 0
AnchorPoint: "Top" 400 732 basechar 0
LayerCount: 2
Fore
SplineSet
404 39 m 1
 361 13 315 -10 257 -10 c 3
 115 -10 20 103 20 230 c 3
 20 320 78 419 159 458 c 0
 212 490 261 500 320 500 c 3
 341 500 377 492 400 487 c 1
 400 528 399 566 398 593 c 1
 395 613 382 615 369 615 c 3
 364 615 349 611 342 610 c 1
 326 670 l 1
 380 682 433 703 473 743 c 1
 521 713 l 1
 516 698 507 670 505 655 c 0
 489 512 489 347 489 190 c 3
 489 155 491 115 494 85 c 1
 496 74 505 66 516 67 c 0
 525 68 532 69 541 70 c 1
 545 6 l 1
 517 -7 477 -27 462 -27 c 3
 446 -27 424 -18 414 6 c 0
 410 16 406 30 404 39 c 1
264 423 m 3
 241 423 207 415 185 397 c 0
 153 381 111 338 111 298 c 3
 111 173 183 70 309 70 c 3
 346 70 380 87 405 107 c 1
 406 173 406 266 403 331 c 1
 401 362 385 392 347 406 c 0
 322 415 282 423 264 423 c 3
EndSplineSet
Validated: 33
Substitution2: "case-1" D
Substitution2: "pcap-1" d.pcap
Substitution2: "smcp-1" d.smcp
EndChar
StartChar: e
Encoding: 101 101 4
Width: 506
Flags: HMW
AnchorPoint: "Bottom" 261 -15 basechar 0
AnchorPoint: "Ogonek" 389 18 basechar 0
AnchorPoint: "Top" 270 538 basechar 0
LayerCount: 2
Fore
SplineSet
274 517 m 3
 351 517 429 458 453 364 c 1
 456 356 459 351 465 350 c 1
 465 282 l 1
 360 265 237 242 142 222 c 1
 142 220 142 217 142 215 c 1
 152 140 207 70 282 70 c 3
 327 70 381 115 406 158 c 1
 463 115 l 1
 425 56 361 -12 250 -12 c 3
 94 -12 33 129 33 230 c 3
 33 419 167 517 274 517 c 3
257 444 m 3
 211 444 148 391 142 288 c 1
 349 327 l 1
 352 327 353 330 353 333 c 1
 350 393 302 444 257 444 c 3
EndSplineSet
Substitution2: "pcap-1" e.pcap
Substitution2: "smcp-1" e.smcp
EndChar
StartChar: f
Encoding: 102 102 5
Width: 362
Flags: HMW
AnchorPoint: "Bottom" 161 -15 basechar 0
AnchorPoint: "Top" 224 735 basechar 0
LayerCount: 2
Fore
SplineSet
314 749 m 3
 351 749 394 741 426 721 c 1
 431 688 401 651 380 637 c 1
 345 657 310 670 282 670 c 3
 226 670 212 639 200 556 c 0
 199 549 197 529 196 498 c 1
 246 499 291 501 340 503 c 1
 340 433 l 1
 290 435 243 437 193 439 c 1
 192 394 186 324 186 304 c 3
 186 233 193 134 201 92 c 0
 205 71 215 65 235 64 c 0
 253 63 273 62 291 61 c 1
 286 -8 l 1
 243 -3 183 1 134 1 c 3
 103 1 55 -4 27 -7 c 1
 25 59 l 1
 37 60 51 60 63 62 c 0
 82 65 89 69 91 82 c 0
 99 137 103 214 103 280 c 3
 103 307 103 388 101 437 c 1
 77 436 51 434 24 433 c 1
 24 503 l 1
 49 502 76 500 98 499 c 1
 96 534 95 545 95 558 c 3
 95 614 142 656 194 697 c 0
 224 721 277 749 314 749 c 3
EndSplineSet
Substitution2: "salt-1" f.alt
Substitution2: "case-1" F
Substitution2: "pcap-1" f.pcap
Substitution2: "smcp-1" f.smcp
EndChar
StartChar: g
Encoding: 103 103 6
Width: 467
VWidth: 1159
Flags: HMW
AnchorPoint: "Bottom" 222 -162 basechar 0
AnchorPoint: "Top" 231 537 basechar 0
LayerCount: 2
Fore
SplineSet
203 105 m 1
 210 97 224 81 295 81 c 3
 303 81 310 81 320 81 c 3
 411 81 456 29 456 -22 c 3
 456 -129 313 -177 176 -177 c 3
 65 -177 15 -107 15 -52 c 3
 15 9 65 39 97 64 c 1
 73 79 64 98 59 115 c 1
 80 128 104 142 128 146 c 1
 79 171 30 231 30 298 c 3
 30 429 157 514 239 514 c 3
 278 514 315 504 350 486 c 1
 377 488 399 487 427 487 c 3
 447 487 450 486 459 486 c 1
 458 478 453 402 453 402 c 1
 441 407 431 409 420 412 c 0
 416 413 414 412 411 412 c 1
 426 387 436 342 436 309 c 3
 436 217 345 134 232 112 c 0
 220 110 206 106 203 105 c 1
213 446 m 3
 178 446 121 392 121 321 c 3
 121 244 161 198 223 173 c 1
 300 186 352 235 352 290 c 3
 352 350 309 446 213 446 c 3
99 -33 m 3
 99 -73 151 -86 193 -86 c 3
 312 -86 381 -56 381 -23 c 3
 381 0 361 9 325 9 c 3
 305 9 286 9 271 9 c 3
 235 9 176 18 154 30 c 1
 133 17 99 -9 99 -33 c 3
EndSplineSet
Validated: 33
Substitution2: "case-1" G
Substitution2: "pcap-1" g.pcap
Substitution2: "smcp-1" g.smcp
EndChar
StartChar: h
Encoding: 104 104 7
Width: 559
Flags: HMW
AnchorPoint: "Top" 160 720 basechar 0
AnchorPoint: "Bottom" 280 -15 basechar 0
LayerCount: 2
Fore
SplineSet
169 384 m 1
 169 338 169 266 170 191 c 1
 172 145 171 91 176 73 c 1
 177 62 185 60 194 58 c 0
 199 57 211 55 218 55 c 1
 208 -8 l 1
 181 -4 163 0 130 0 c 1
 100 0 57 -5 27 -8 c 1
 22 56 l 1
 32 57 40 58 50 60 c 0
 61 62 69 71 70 87 c 1
 74 134 80 217 80 276 c 3
 80 495 75 587 70 610 c 1
 68 617 63 624 56 624 c 3
 51 624 37 622 30 622 c 1
 10 683 l 1
 60 692 112 715 150 747 c 1
 194 712 l 1
 191 697 184 667 182 653 c 0
 174 610 170 535 169 461 c 1
 228 492 303 516 332 516 c 3
 426 516 477 450 483 371 c 0
 485 344 488 248 488 184 c 3
 488 141 492 101 495 82 c 1
 499 62 511 59 518 58 c 0
 522 57 534 57 539 56 c 1
 527 -8 l 1
 500 -3 482 0 452 0 c 1
 418 0 387 -5 361 -9 c 1
 352 54 l 1
 359 55 365 57 372 58 c 0
 383 60 390 76 391 90 c 0
 394 127 397 183 397 210 c 3
 397 248 389 331 386 346 c 0
 376 396 354 432 299 432 c 3
 250 432 214 410 169 384 c 1
EndSplineSet
Substitution2: "pcap-1" h.pcap
Substitution2: "smcp-1" h.smcp
EndChar
StartChar: k
Encoding: 107 107 10
Width: 515
Flags: HMW
AnchorPoint: "Top" 153 720 basechar 0
AnchorPoint: "Bottom" 255 -15 basechar 0
LayerCount: 2
Fore
SplineSet
156 300 m 1
 202 333 263 398 302 431 c 1
 305 433 304 436 302 437 c 1
 294 439 282 440 273 441 c 1
 277 503 l 1
 307 501 332 498 365 498 c 1
 399 498 437 501 471 505 c 1
 476 442 l 1
 406 437 373 409 335 377 c 1
 248 308 l 1
 306 223 383 152 459 77 c 1
 475 62 492 59 504 56 c 1
 501 -10 l 1
 464 -5 454 0 413 0 c 1
 380 0 352 -4 318 -9 c 1
 313 60 l 1
 319 60 325 62 328 62 c 1
 289 124 249 170 167 247 c 1
 167 246 157 242 157 241 c 1
 163 178 167 109 168 96 c 0
 169 82 176 66 186 64 c 0
 192 63 201 61 208 60 c 1
 201 -11 l 1
 163 -5 153 0 108 0 c 1
 79 0 50 -4 19 -9 c 1
 12 57 l 1
 22 58 33 59 42 62 c 1
 52 65 57 77 61 97 c 1
 71 143 75 223 75 280 c 3
 75 443 68 551 62 600 c 0
 60 618 54 622 38 622 c 1
 31 621 22 621 17 620 c 1
 8 688 l 1
 68 698 99 710 146 745 c 1
 191 710 l 1
 184 695 172 666 171 651 c 0
 166 594 156 412 156 300 c 1
EndSplineSet
Substitution2: "case-1" K
Substitution2: "pcap-1" k.pcap
Substitution2: "smcp-1" k.smcp
EndChar
StartChar: l
Encoding: 108 108 11
Width: 245
VWidth: 1159
Flags: HMW
AnchorPoint: "Top" 132 720 basechar 0
AnchorPoint: "Bottom" 122 -15 basechar 0
LayerCount: 2
Fore
SplineSet
166 303 m 3
 166 232 171 116 176 82 c 1
 178 67 185 63 193 62 c 1
 209 59 222 58 238 56 c 1
 233 -9 l 1
 192 -5 158 0 113 0 c 5
 79 0 39 -5 7 -8 c 1
 5 57 l 1
 16 58 29 59 39 61 c 1
 58 63 63 74 64 82 c 1
 71 133 79 221 79 276 c 3
 79 507 74 583 69 604 c 0
 67 615 58 625 49 625 c 3
 43 625 28 623 20 622 c 1
 6 683 l 1
 70 695 104 707 154 744 c 1
 199 709 l 1
 192 694 182 665 180 650 c 0
 172 582 166 418 166 303 c 3
EndSplineSet
Validated: 1
Substitution2: "case-1" L
Substitution2: "pcap-1" l.pcap
Substitution2: "smcp-1" l.smcp
EndChar
StartChar: m
Encoding: 109 109 12
Width: 829
Flags: HMW
AnchorPoint: "Top" 424 537 basechar 0
AnchorPoint: "Bottom" 427 -15 basechar 0
LayerCount: 2
Fore
SplineSet
768 190 m 3
 768 139 771 92 773 68 c 1
 773 65 774 64 778 63 c 1
 785 62 809 60 817 59 c 1
 815 -8 l 1
 780 -3 760 0 720 0 c 3
 689 0 666 -5 642 -10 c 1
 634 53 l 1
 644 54 657 55 665 57 c 1
 669 58 671 63 675 89 c 1
 677 108 681 155 681 170 c 3
 681 218 677 303 675 319 c 1
 666 377 650 413 587 413 c 3
 558 413 509 383 477 351 c 1
 477 347 477 345 477 344 c 1
 477 321 477 257 477 224 c 3
 477 163 478 95 481 73 c 1
 482 64 487 59 493 57 c 1
 498 56 518 53 526 52 c 1
 519 -9 l 1
 479 -3 469 0 422 0 c 3
 392 0 366 -5 343 -9 c 1
 335 54 l 1
 344 55 358 57 364 58 c 1
 370 58 377 61 379 88 c 1
 381 111 383 168 383 186 c 3
 383 234 379 335 375 354 c 1
 368 389 349 421 302 421 c 3
 261 421 204 381 173 354 c 1
 175 265 169 123 175 85 c 1
 178 67 187 62 194 60 c 1
 199 59 213 55 219 55 c 1
 209 -7 l 1
 172 -4 158 0 117 0 c 3
 86 0 53 -4 22 -7 c 1
 18 54 l 1
 28 55 33 55 43 58 c 0
 63 64 67 67 73 89 c 1
 81 119 84 194 84 232 c 3
 84 251 83 359 75 377 c 0
 65 406 66 411 45 411 c 1
 39 411 33 411 26 411 c 1
 21 470 l 1
 74 477 89 471 141 517 c 1
 185 485 l 1
 182 470 180 458 179 439 c 1
 218 470 282 512 341 512 c 3
 403 512 454 472 466 432 c 1
 510 463 561 500 633 500 c 3
 752 500 764 404 766 350 c 1
 768 309 768 233 768 190 c 3
EndSplineSet
Substitution2: "pcap-1" m.pcap
Substitution2: "smcp-1" m.smcp
EndChar
StartChar: n
Encoding: 110 110 13
Width: 550
Flags: HMW
AnchorPoint: "Top" 299 534 basechar 0
AnchorPoint: "Bottom" 290 -15 basechar 0
LayerCount: 2
Back
SplineSet
769 190 m 3
 769 139 772 92 774 68 c 1
 774 65 775 64 779 63 c 1
 786 62 810 60 818 59 c 1
 816 -8 l 1
 781 -3 761 0 721 0 c 3
 690 0 667 -5 643 -10 c 1
 635 53 l 1
 645 54 658 55 666 57 c 1
 670 58 672 63 676 89 c 1
 678 108 682 155 682 170 c 3
 682 218 678 303 676 319 c 1
 667 377 651 413 588 413 c 3
 559 413 510 383 478 351 c 1
 478 347 478 345 478 344 c 1
 478 321 478 257 478 224 c 3
 478 163 479 95 482 73 c 1
 483 64 488 59 494 57 c 1
 499 56 519 53 527 52 c 1
 520 -9 l 1
 480 -3 470 0 423 0 c 3
 393 0 367 -5 344 -9 c 1
 336 54 l 1
 345 55 359 57 365 58 c 1
 371 58 378 61 380 88 c 1
 382 111 384 168 384 186 c 3
 384 234 380 335 376 354 c 1
 369 389 350 421 303 421 c 3
 262 421 205 381 174 354 c 1
 176 265 170 123 176 85 c 1
 179 67 188 62 195 60 c 1
 200 59 214 55 220 55 c 1
 210 -7 l 1
 173 -4 159 0 118 0 c 3
 87 0 54 -4 23 -7 c 1
 19 54 l 1
 29 55 34 55 44 58 c 0
 64 64 68 67 74 89 c 1
 82 119 85 194 85 232 c 3
 85 251 84 359 76 377 c 0
 66 406 67 411 46 411 c 1
 40 411 34 411 27 411 c 1
 22 470 l 1
 75 477 90 471 142 517 c 1
 186 485 l 1
 183 470 181 458 180 439 c 1
 219 470 283 512 342 512 c 3
 404 512 455 472 467 432 c 1
 511 463 562 500 634 500 c 3
 753 500 765 404 767 350 c 1
 769 309 769 233 769 190 c 3
EndSplineSet
Fore
SplineSet
77 387 m 1
 71 401 52 410 37 410 c 1
 33 410 28 410 23 410 c 1
 22 469 l 1
 73 479 88 475 139 517 c 1
 186 487 l 1
 182 481 182 449 181 440 c 1
 226 469 278 513 334 513 c 3
 437 513 487 463 487 374 c 3
 487 323 489 242 489 190 c 3
 489 152 491 95 494 70 c 0
 495 65 497 63 502 62 c 1
 506 61 532 57 538 56 c 1
 536 -10 l 1
 500 -4 485 0 445 0 c 3
 414 0 385 -5 361 -9 c 1
 359 53 l 1
 368 55 384 57 390 59 c 1
 392 61 393 69 395 83 c 1
 399 118 402 194 402 222 c 3
 402 261 395 340 393 354 c 1
 387 390 376 423 325 423 c 3
 265 423 208 384 175 358 c 1
 172 256 175 108 182 65 c 1
 183 58 195 57 202 56 c 1
 206 56 214 55 218 55 c 1
 216 -8 l 1
 177 -4 163 0 119 0 c 3
 86 0 53 -4 20 -7 c 1
 20 56 l 1
 32 57 43 57 54 59 c 0
 67 61 69 61 73 74 c 1
 80 102 84 170 84 204 c 3
 84 235 81 364 77 387 c 1
EndSplineSet
Substitution2: "pcap-1" n.pcap
Substitution2: "smcp-1" n.smcp
EndChar
StartChar: o
Encoding: 111 111 14
Width: 570
Flags: HW
HStem: -11 74<235.683 375.593> 440 77<194.436 334.919>
VStem: 30 100<179.83 346.467> 436 104<152.433 329.656>
AnchorPoint: "Middle" 284.697 252.853 basechar 0
AnchorPoint: "Horn" 446.5 453.8 basechar 0
AnchorPoint: "Bottom" 288 -15 basechar 0
AnchorPoint: "Ogonek" 423 18 basechar 0
AnchorPoint: "Top" 285 537 basechar 0
LayerCount: 2
Fore
SplineSet
285 517 m 3
 446 517 540 378 540 253 c 3
 540 128 442 -11 285 -11 c 3
 149 -11 30 97 30 237 c 3
 30 418 181 517 285 517 c 3
268 440 m 3
 184 440 130 387 130 268 c 3
 130 166 219 63 302 63 c 3
 391 63 436 126 436 238 c 3
 436 359 338 440 268 440 c 3
EndSplineSet
Substitution2: "case-1" O
Substitution2: "pcap-1" o.pcap
Substitution2: "smcp-1" o.smcp
EndChar
StartChar: p
Encoding: 112 112 15
Width: 551
Flags: HMW
AnchorPoint: "Top" 286 537 basechar 0
AnchorPoint: "Bottom" 142 -154 basechar 0
LayerCount: 2
Fore
SplineSet
67 80 m 3
 67 200 58 358 51 378 c 1
 48 387 43 391 38 391 c 3
 34 391 19 391 2 391 c 1
 -8 451 l 1
 38 458 69 468 110 514 c 1
 136 507 147 500 151 465 c 1
 194 483 244 509 291 509 c 3
 426 509 531 380 531 291 c 3
 531 128 389 1 252 1 c 3
 226 1 185 6 163 15 c 1
 163 -19 165 -65 169 -76 c 1
 170 -88 178 -92 184 -92 c 1
 204 -95 224 -96 243 -97 c 1
 241 -165 l 1
 195 -164 173 -162 122 -162 c 1
 90 -162 45 -170 11 -174 c 5
 6 -107 l 1
 20 -106 32 -104 45 -102 c 1
 58 -98 61 -104 61 -86 c 1
 67 -58 67 -7 67 80 c 3
250 427 m 3
 211 427 181 406 152 387 c 1
 152 245 152 195 159 122 c 1
 198 100 238 82 290 82 c 3
 398 82 443 184 443 241 c 3
 443 324 362 427 250 427 c 3
EndSplineSet
Substitution2: "case-1" P
Substitution2: "pcap-1" p.pcap
Substitution2: "smcp-1" p.smcp
EndChar
StartChar: q
Encoding: 113 113 16
Width: 598
VWidth: 1159
Flags: HMW
AnchorPoint: "Top" 308 537 basechar 0
AnchorPoint: "Bottom" 462 -154 basechar 0
LayerCount: 2
Fore
SplineSet
424 109 m 1
 426 194 429 270 430 354 c 1
 431 353 429 360 427 363 c 1
 406 415 353 437 307 437 c 3
 215 437 136 354 136 297 c 3
 136 199 222 81 338 81 c 3
 386 81 411 98 424 109 c 1
423 31 m 1
 382 19 332 0 273 0 c 7
 142 0 37 139 37 237 c 3
 37 364 160 514 342 514 c 3
 424 514 439 489 457 489 c 1
 467 489 481 500 497 517 c 1
 543 495 l 1
 537 479 535 470 527 448 c 1
 524 431 521 399 516 321 c 1
 517 297 518 164 518 119 c 1
 518 -6 520 -52 522 -73 c 1
 523 -85 527 -90 534 -91 c 1
 555 -93 568 -95 587 -95 c 1
 583 -167 l 1
 548 -165 521 -164 469 -164 c 1
 434 -164 392 -171 360 -175 c 1
 355 -105 l 1
 368 -104 379 -102 391 -101 c 1
 408 -98 421 -95 421 -92 c 1
 423 -82 423 -16 423 31 c 1
EndSplineSet
Validated: 1
Substitution2: "case-1" Q
Substitution2: "pcap-1" q.pcap
Substitution2: "smcp-1" q.smcp
EndChar
StartChar: r
Encoding: 114 114 17
Width: 406
VWidth: 1159
Flags: HMW
AnchorPoint: "Top" 178 537 basechar 0
AnchorPoint: "Bottom" 161 -15 basechar 0
LayerCount: 2
Fore
SplineSet
164 212 m 3
 164 178 167 102 171 85 c 1
 173 83 177 62 208 61 c 0
 230 60 252 58 273 57 c 1
 271 -2 l 1
 229 -1 160 1 112 1 c 7
 80 1 41 -4 7 -7 c 1
 4 57 l 1
 20 58 41 58 52 61 c 1
 55 62 62 66 65 86 c 1
 69 113 73 220 73 249 c 3
 73 269 71 339 66 360 c 1
 57 381 47 388 30 388 c 3
 25 388 18 388 10 389 c 1
 5 449 l 1
 52 453 93 474 135 516 c 1
 149 507 168 502 168 473 c 3
 168 466 165 437 165 425 c 1
 208 465 285 517 327 517 c 3
 356 517 395 482 395 439 c 3
 395 430 389 378 296 382 c 1
 291 394 287 410 269 410 c 1
 247 410 164 345 163 330 c 1
 163 295 164 229 164 212 c 3
EndSplineSet
Validated: 33
Substitution2: "case-1" R
Substitution2: "pcap-1" r.pcap
Substitution2: "smcp-1" r.smcp
EndChar
StartChar: s
Encoding: 115 115 18
Width: 396
VWidth: 1159
Flags: HMW
AnchorPoint: "Top" 210 537 basechar 0
AnchorPoint: "Bottom" 205 -15 basechar 0
LayerCount: 2
Fore
SplineSet
82 175 m 1
 101 108 166 62 203 62 c 3
 251 62 277 89 277 118 c 3
 277 175 255 182 189 214 c 0
 134 241 50 264 50 372 c 3
 50 443 121 514 210 514 c 3
 258 514 316 504 341 484 c 1
 346 465 353 419 358 378 c 1
 313 359 l 1
 292 410 249 446 201 446 c 3
 163 446 145 421 145 391 c 3
 145 364 159 336 238 304 c 0
 342 262 377 221 377 135 c 3
 377 43 274 -7 189 -7 c 3
 133 -7 91 6 50 19 c 1
 46 40 40 61 36 87 c 0
 32 116 30 144 24 159 c 1
 82 175 l 1
EndSplineSet
Validated: 1
Substitution2: "case-1" S
Substitution2: "pcap-1" s.pcap
Substitution2: "smcp-1" s.smcp
EndChar
StartChar: t
Encoding: 116 116 19
Width: 336
VWidth: 1159
Flags: HMW
AnchorPoint: "Top" 160 629 basechar 0
AnchorPoint: "Bottom" 174 -15 basechar 0
LayerCount: 2
Fore
SplineSet
10 490 m 1
 68 511 86 545 109 632 c 1
 169 620 l 1
 167 580 165 542 163 501 c 1
 218 502 272 503 322 505 c 1
 321 431 l 1
 269 433 216 434 161 436 c 1
 160 426 157 213 157 128 c 3
 157 92 178 71 207 71 c 3
 245 71 281 77 307 90 c 1
 307 90 330 37 330 36 c 1
 296 9 248 -16 182 -16 c 3
 151 -16 62 -5 62 121 c 3
 62 231 67 330 69 433 c 1
 50 432 33 432 12 432 c 1
 10 490 l 1
EndSplineSet
Validated: 1
Substitution2: "case-1" T
Substitution2: "pcap-1" t.pcap
Substitution2: "smcp-1" t.smcp
EndChar
StartChar: u
Encoding: 117 117 20
Width: 539
Flags: HMW
AnchorPoint: "Bottom" 277 -15 basechar 0
AnchorPoint: "Ogonek" 428 18 basechar 0
AnchorPoint: "Top" 278 537 basechar 0
LayerCount: 2
Fore
SplineSet
318 470 m 1
 367 482 420 498 460 516 c 1
 490 477 l 1
 468 438 460 286 460 168 c 3
 460 139 459 111 467 85 c 1
 470 74 474 72 481 72 c 3
 490 72 508 76 519 78 c 1
 531 19 l 1
 512 11 465 -8 440 -17 c 0
 438 -18 428 -22 422 -22 c 3
 391 -22 378 23 373 50 c 1
 327 26 265 -8 208 -8 c 3
 164 -8 120 14 96 53 c 1
 79 84 72 116 72 168 c 3
 72 224 71 319 72 376 c 1
 72 381 71 383 67 383 c 3
 61 383 35 380 16 378 c 1
 7 442 l 1
 51 451 103 487 147 517 c 1
 185 477 l 1
 163 406 162 287 162 204 c 3
 162 126 176 76 244 76 c 3
 279 76 335 94 367 108 c 1
 362 196 373 386 373 396 c 3
 373 411 367 410 333 407 c 1
 318 470 l 1
EndSplineSet
Substitution2: "case-1" U
Substitution2: "pcap-1" u.pcap
Substitution2: "smcp-1" u.smcp
EndChar
StartChar: v
Encoding: 118 118 21
Width: 545
Flags: HMW
AnchorPoint: "Top" 278 537 basechar 0
AnchorPoint: "Bottom" 244 -15 basechar 0
LayerCount: 2
Fore
SplineSet
539 456 m 1
 512 441 505 442 488 413 c 0
 449 349 405 255 366 187 c 0
 330 125 290 65 266 -13 c 1
 203 -13 l 1
 171 135 122 309 67 422 c 0
 63 430 59 434 54 437 c 1
 36 443 23 444 6 449 c 1
 12 509 l 1
 38 503 77 499 107 499 c 3
 148 499 186 501 221 511 c 1
 230 445 l 1
 218 443 202 441 191 438 c 1
 187 437 182 436 182 434 c 3
 182 431 182 429 183 424 c 0
 203 342 244 209 269 132 c 1
 315 210 373 309 402 406 c 0
 405 415 400 422 400 427 c 3
 400 435 381 439 345 449 c 1
 357 510 l 1
 382 504 415 499 433 499 c 3
 465 499 501 508 528 515 c 1
 539 456 l 1
EndSplineSet
Substitution2: "case-1" V
Substitution2: "pcap-1" v.pcap
Substitution2: "smcp-1" v.smcp
EndChar
StartChar: w
Encoding: 119 119 22
Width: 783
Flags: HMW
AnchorPoint: "Top" 404 537 basechar 0
AnchorPoint: "Bottom" 363 -15 basechar 0
LayerCount: 2
Fore
SplineSet
783 455 m 1
 754 444 748 444 724 391 c 0
 702 343 664 273 623 204 c 0
 578 128 540 61 520 -10 c 1
 466 -10 l 1
 449 97 419 193 391 288 c 1
 377 256 344 204 321 167 c 0
 280 100 256 55 236 -12 c 1
 176 -12 l 1
 162 123 110 312 58 422 c 0
 55 429 57 433 53 435 c 0
 36 441 20 443 2 448 c 1
 12 508 l 1
 37 504 73 499 100 499 c 1
 140 499 167 503 201 509 c 1
 210 441 l 1
 199 438 184 435 176 435 c 0
 174 435 173 435 172 434 c 1
 172 432 172 430 172 429 c 0
 186 354 229 243 244 164 c 1
 282 218 329 302 364 382 c 1
 364 390 359 400 356 407 c 1
 352 419 346 428 339 432 c 0
 331 437 322 439 310 443 c 1
 317 504 l 1
 339 501 368 499 394 499 c 1
 427 499 461 505 491 509 c 1
 502 445 l 1
 493 442 480 439 471 436 c 1
 468 435 464 434 464 431 c 3
 464 428 464 426 464 422 c 0
 461 370 492 281 520 162 c 1
 565 225 632 328 645 399 c 0
 648 416 645 422 636 429 c 1
 631 432 633 433 594 442 c 1
 606 508 l 1
 630 504 665 499 683 499 c 1
 710 499 739 506 761 512 c 1
 783 455 l 1
EndSplineSet
Substitution2: "case-1" W
Substitution2: "pcap-1" w.pcap
Substitution2: "smcp-1" w.smcp
EndChar
StartChar: x
Encoding: 120 120 23
Width: 555
Flags: HW
HStem: -6 59<21.4262 68.1119 155.967 187.678 320.407 355.569 469.661 531.268> 439 63<34 100.889 127 221 366 386> 452 54<484.723 528.389>
AnchorPoint: "Top" 298 537 basechar 0
AnchorPoint: "Bottom" 271 -15 basechar 0
LayerCount: 2
Fore
SplineSet
15 55 m 1xa0
 41 60 55 60 68 74 c 1
 73 79 228 249 228 249 c 1
 228 249 130 383 124 390 c 1
 85 438 94 431 34 439 c 1
 34 502 l 1
 61 500 99 498 127 498 c 3
 161 498 211 501 238 508 c 1
 246 438 l 1
 239 437 226 437 221 436 c 1
 220 436 216 435 216 433 c 1
 221 429 289 315 293 311 c 1
 377 418 l 1
 379 421 384 425 386 436 c 1
 380 436 370 437 358 439 c 1
 367 502 l 1xc0
 393 498 408 499 434 499 c 3
 465 499 503 499 528 506 c 1
 531 452 l 1
 498 446 479 426 463 410 c 0
 418 363 373 311 327 264 c 1
 370 206 423 140 466 78 c 0
 482 55 476 62 534 50 c 1
 531 -8 l 1
 500 -4 448 0 414 0 c 0
 386 0 350 -3 321 -7 c 1
 314 53 l 1
 326 56 347 59 356 61 c 1
 354 64 349 67 349 68 c 1
 343 77 269 196 265 198 c 1
 261 194 169 82 162 73 c 1
 160 71 155 63 155 61 c 1
 159 60 179 55 195 53 c 1
 187 -6 l 1
 161 -4 137 0 110 0 c 0
 82 0 48 -4 22 -6 c 1
 15 55 l 1xa0
EndSplineSet
Substitution2: "pcap-1" x.pcap
Substitution2: "smcp-1" x.smcp
EndChar
StartChar: y
Encoding: 121 121 24
Width: 521
Flags: HMW
AnchorPoint: "Top" 259 537 basechar 0
AnchorPoint: "Bottom" 330 -15 basechar 0
LayerCount: 2
Fore
SplineSet
198 -175 m 1
 165 -175 175 -173 114 -173 c 1
 75 -173 59 -175 26 -176 c 1
 27 -155 30 -140 23 -117 c 1
 102 -108 107 -94 207 72 c 1
 165 191 96 368 42 433 c 0
 37 438 28 438 19 441 c 0
 13 443 11 444 3 446 c 1
 13 507 l 1
 37 503 71 499 98 499 c 1
 134 499 160 502 191 508 c 1
 202 445 l 1
 175 438 l 2
 171 437 169 434 170 427 c 0
 171 423 172 419 173 416 c 0
 185 386 233 250 278 181 c 1
 312 243 357 348 381 412 c 0
 384 420 386 431 386 435 c 1
 381 436 364 437 342 442 c 1
 358 508 l 1
 376 504 411 499 426 499 c 1
 457 499 486 506 509 513 c 1
 521 449 l 1
 480 438 479 445 465 417 c 0
 417 319 331 177 266 43 c 0
 241 -8 196 -128 198 -175 c 1
EndSplineSet
Substitution2: "pcap-1" y.pcap
Substitution2: "smcp-1" y.smcp
EndChar
StartChar: z
Encoding: 122 122 25
Width: 534
VWidth: 1159
Flags: HMW
AnchorPoint: "Bottom" 267 -15 basechar 0
AnchorPoint: "Top" 274 537 basechar 0
LayerCount: 2
Fore
SplineSet
410 0 m 1
 410 -1 195 -1 195 0 c 1
 118 1 49 -5 33 -16 c 1
 20 40 l 1
 139 147 261 307 342 429 c 1
 323 429 308 429 289 429 c 1
 236 429 199 429 144 427 c 0
 100 426 97 406 83 362 c 1
 12 386 l 1
 12 386 64 530 66 526 c 1
 104 508 91 499 259 499 c 1
 380 499 443 496 477 507 c 1
 502 466 l 1
 396 345 278 191 187 67 c 1
 195 67 327 69 335 69 c 1
 365 69 393 68 409 78 c 1
 421 86 424 94 435 122 c 0
 440 136 447 161 452 181 c 1
 514 159 l 1
 469 -22 l 1
 450 -10 442 0 410 0 c 1
EndSplineSet
Substitution2: "case-1" Z
Substitution2: "pcap-1" z.pcap
Substitution2: "smcp-1" z.smcp
EndChar
StartChar: braceleft
Encoding: 123 123 336
Width: 266
Flags: HW
HStem: -175.7 58.4189<185.247 248.64> 651.881 58.4189<185.247 248.64>
VStem: 77.791 86.918<-97.6695 72.4623 462.137 632.269> 100.291 93.418<25.3273 196.606 337.993 509.272>
LayerCount: 2
Fore
SplineSet
248.639648438 710.299804688 m 1xe0
 248.639648438 710.299804688 248.639648438 674.664248046 248.639648438 651.880859375 c 1
 196.323816206 651.221004746 164.708984375 631.710655991 164.708984375 565 c 3xe0
 164.708984375 494.769 193.708984375 478.467 193.708984375 404 c 3
 193.708984375 352.587867239 158.365421875 288.695668248 132.348632812 267.299804688 c 1
 158.365421875 245.903999463 193.708984375 182.011974686 193.708984375 130.599609375 c 3xd0
 193.708984375 56.131809375 164.708984375 39.830489375 164.708984375 -30.400390625 c 3
 164.708984375 -97.1116334597 196.323816206 -116.621393407 248.639648438 -117.28125 c 1
 248.639648438 -175.700195312 l 1
 161.652297918 -178.738724827 77.791015625 -141.066685173 77.791015625 -5.7001953125 c 3xe0
 77.791015625 54.2272067041 100.291015625 86.5951077933 100.291015625 133.599609375 c 3
 100.291015625 173.661758319 72.1738895523 226.648161331 11.5 245.16015625 c 1
 11.5 289.439453125 l 1
 72.1738895523 307.950651137 100.291015625 360.938069872 100.291015625 401 c 3xd0
 100.291015625 448.003934096 77.791015625 480.371888713 77.791015625 540.299804688 c 3
 77.791015625 675.666331003 161.652297918 713.338331003 248.639648438 710.299804688 c 1xe0
EndSplineSet
Position2: "cpsp-1" dx=0 dy=0 dh=50 dv=100
Position2: "'case' vertical ajustments for all-caps-1" dx=0 dy=90 dh=0 dv=0
EndChar
StartChar: currency
Encoding: 164 164 1205
Width: 533
Flags: HMW
HStem: 450.961 38.8428<87.4308 206.876> 706.86 38.8428<86.6769 208.358>
LayerCount: 2
Fore
SplineSet
163.645507812 46.5 m 1
 86.46484375 -40.5205078125 l 1
 31.9794921875 13.96484375 l 1
 118.901367188 91.048828125 l 1
 98.5113019593 120.093836592 86.365234375 155.647717877 86.365234375 194.030273438 c 0
 86.365234375 232.026151801 98.2836348128 267.390450103 118.546875 296.306640625 c 1
 31.9794921875 373.03515625 l 1
 86.46484375 427.520507812 l 1
 163.377929688 340.76953125 l 1
 192.008885934 359.997548915 226.916175088 372.052734375 264.630859375 372.052734375 c 0
 303.161054492 372.052734375 338.500132526 360.473195246 368.359375 340.504882812 c 1
 445.53515625 427.520507812 l 1
 500.020507812 373.03515625 l 1
 412.930664062 295.784179688 l 1
 431.813096375 267.431092448 443.513671875 232.647761963 443.513671875 194.466796875 c 0
 443.513671875 155.984730854 431.657579727 120.905043404 411.885742188 92.26171875 c 1
 500.020507812 13.96484375 l 1
 445.53515625 -40.5205078125 l 1
 367.42578125 47.427734375 l 1
 338.015478883 26.2736399302 302.273546854 14.6357421875 264.788085938 14.6357421875 c 0
 227.543333278 14.6357421875 192.518588272 26.0177077532 163.645507812 46.5 c 1
277.685546875 86.7197265625 m 0
 321.391168815 86.7197265625 360.0078125 123.189313578 360.0078125 170.612304688 c 0
 360.0078125 243.76935559 312.384970906 299.997070312 252.099609375 299.997070312 c 0
 206.568205015 299.997070312 169.8984375 263.249936342 169.8984375 217.383789062 c 0
 169.8984375 145.273183118 219.332036254 86.7197265625 277.685546875 86.7197265625 c 0
EndSplineSet
Position2: "'lnum-2' vertical adjustment" dx=0 dy=125 dh=0 dv=0
EndChar
StartChar: yen
Encoding: 165 165 451
Width: 463
VWidth: 1159
UnlinkRmOvrlpSave: 1
Flags: W
HStem: -195.143 27.832<290.394 317.58> -36.875 69.75<93 383> 63.125 69.75<93 383>
VStem: 207.261 75.8369<-163.561 112.389>
LayerCount: 2
Fore
SplineSet
274.890625 169.708984375 m 1
 274.314622807 115.248982948 272.283654214 50.1171047102 283.09765625 -128.499023438 c 0
 285.015173967 -160.170886375 292.119204273 -161.0586431 320.783203125 -167.310546875 c 1
 317.580078125 -195.142578125 l 1
 274.689595576 -186.83690152 222.038207283 -183.218788643 178.485351562 -198.678710938 c 1
 171.08984375 -171.665039062 l 1
 195.610467016 -162.26863286 206.390990071 -155.268664903 207.260742188 -117.220703125 c 0
 207.787638441 -104.621204106 205.843021338 150.767976016 205.118164062 143.750976562 c 1
 204.034116885 150.049303618 155.095264654 248.178623374 87.2695828038 343.999997223 c 0
 76.0701508093 359.82210075 59.2291043945 378.720580661 49 385 c 1
 139 433 l 1
 144.933661013 402.938576204 168.652866704 351.939024868 181.091541944 327.999991964 c 0
 221.31584563 250.585724695 252.239236655 211.848881796 255.486328125 207.837890625 c 1
 299.730787717 303.031969433 321.320964056 356.628741888 331 433 c 1
 345.5 424.066173481 396.25 400.848034565 418 391 c 1
 345.004852928 317.965777551 314.263107929 249.458544383 274.890625 169.708984375 c 1
EndSplineSet
Refer: 1970 58113 N 0.29 0 0 1.125 93 -2 2
Refer: 1970 58113 N 0.29 0 0 1.125 93 98 2
Position2: "'lnum-2' vertical adjustment" dx=0 dy=190 dh=0 dv=0
EndChar
StartChar: copyright
Encoding: 169 169 875
Width: 770
Flags: W
HStem: 0 62.7334<275.664 491.682> 618.886 62.7333<278.109 494.127>
VStem: 37.4082 63.5371<229.306 441.283> 668.846 63.5453<240.335 447.587>
LayerCount: 2
Back
SplineSet
384.896 625.619 m 0
 233.841158588 625.619 93.4082 501.815595799 93.4082 334.125 c 0
 93.4082 167.507508344 224.248407308 56 384.896 56 c 0
 535.956435694 56 676.391 179.800448792 676.391 347.494 c 0
 676.391 501.042296504 543.478405521 625.619 384.896 625.619 c 0
384.896 681.619 m 0
 572.026851668 681.619 732.391 534.603985765 732.391 347.494 c 0
 732.391 147.01017726 565.342737812 1.03137129643e-14 384.896 0 c 0
 197.824825234 0 37.4082 133.710897045 37.4082 334.125 c 0
 37.4082 534.6048436 204.453247597 681.619 384.896 681.619 c 0
EndSplineSet
Fore
SplineSet
384.892578125 618.885742188 m 3
 237.456991357 618.885742188 100.9453125 498.748478677 100.9453125 334.92578125 c 3
 100.9453125 171.606243593 231.997960887 62.7333984375 384.892578125 62.7333984375 c 3
 532.331437505 62.7333984375 668.845703125 182.871375868 668.845703125 346.693359375 c 3
 668.845703125 499.12194495 537.790486055 618.885742188 384.892578125 618.885742188 c 3
384.896 681.619 m 3
 572.009 681.619 732.391 534.6 732.391 347.494 c 3
 732.391 147.017 565.326 0 384.896 0 c 3
 197.787 0 37.4082 133.65 37.4082 334.125 c 3
 37.4082 534.598 204.47 681.619 384.896 681.619 c 3
EndSplineSet
Refer: 2 99 N 0.88 0 0 0.88 165.743 120.327 2
EndChar
StartChar: ordfeminine
Encoding: 170 170 1208
Width: 306
Flags: HW
HStem: 289 62<36 273> 386 57<92.1653 163.513 241 264.67> 510 57<106.41 182> 568 21G<55.5714 110> 612 57<108.302 178.72>
VStem: 36 56<443.917 492.988> 50 58<588 607.674> 181 56<462.099 510 563.775 599.723>
AnchorPoint: "Top" 220 542 basechar 0
AnchorPoint: "Ogonek" 386 22 basechar 0
AnchorPoint: "Bottom" 203 -15 basechar 0
LayerCount: 2
Back
SplineSet
186 532 m 2
 191.579550253 532 199 526.868919685 199 519 c 0
 199 507.472447607 197 492.964608293 197 479 c 0
 197 445 l 0
 197 440.666533794 194.682769847 436.346511815 190.88998622 433.976022048 c 0
 165.989082651 418.412957317 134.338924877 403 111 403 c 0
 79.4075586953 403 65 432.929423136 65 460 c 0
 65 492.899354545 82.7078217499 508.888352729 108.186223259 521.627553483 c 0
 108.310315679 521.689599693 108.548865219 521.803401367 108.720199941 521.879550132 c 0
 121.574029826 527.592363414 151.133273559 532 177 532 c 0
 186 532 l 2
160 681 m 0
 147.296691228 681 92.9632315623 662.631132498 66.2962677736 644.240122989 c 1
 53.8897813884 635.969132065 51 628.234339416 51 621 c 0
 51 619.073402074 51.7707209148 614.988874222 53.4181356294 609.274333028 c 1
 85.1485407588 621.739849329 l 1
 84.3676745962 624.568129408 83 629.158241471 83 634 c 0
 83 652.826217754 101.765773951 665 130 665 c 0
 155.499572062 665 183.15494968 641.949116142 190.578535126 631.556096518 c 0
 190.760629235 631.301164766 191.079381713 630.813419683 191.287160848 630.449806199 c 0
 196.073817977 622.073156221 200 611.586461764 200 591.769520272 c 1
 199.983676336 591.309304248 199 563.726235304 199 547 c 0
 199 541.047612452 194.221910553 534.833544862 187.435609839 534.079511449 c 0
 133.640707858 528.102300118 100.737490102 522.44941564 56.1834394484 503.078089269 c 0
 51.2889951652 500.98047029 49.9955296926 500.485252985 47.0701969815 493.171921207 c 0
 47.0178728204 493.041110805 46.9135441877 492.793877682 46.834764207 492.620561724 c 0
 43.921739835 486.211908106 42 462.529847291 42 444 c 0
 42 412.152279931 46.1957395416 392 83 392 c 0
 118.078791217 392 144.246874641 406.108384527 180.221149877 428.092663837 c 0
 195.917403326 437.684818723 199.362101822 421.151965844 199.611852502 420.152963125 c 0
 205.485980107 396.656452707 217.530521939 391.257213268 219.834074738 391.010075399 c 1
 225.394511226 391.839044848 257.519396792 403.941971827 278.746512859 412.811558211 c 1
 277.44697461 415.735519272 l 1
 267.98583582 412.038355084 258.179675592 408 249 408 c 0
 240.118765673 408 229.801813433 415.085960352 225.604844131 429.075858026 c 1
 221.94981197 440.040954507 221 453.45889717 221 467 c 0
 221 512.728337547 225 564.698416104 225 611 c 0
 225 620.330329959 223.166666799 635.788097124 219.890166313 641.248931268 c 1
 214.719557804 649.651170095 168.217464836 681 160 681 c 0
EndSplineSet
Fore
SplineSet
182 510 m 1xfd
 179 510 178 508 174 508 c 1
 153.076923077 505 114.283546931 495.255052317 106 492 c 0
 97 488.463414634 92 482.097560976 92 463 c 3
 92 451 101 443 113 443 c 3
 128.692307692 443 160.076923077 461 181 476 c 1
 181 480 181 478.8 181 484 c 1
 181 499 182 500 182 510 c 1xfd
160 669 m 3
 187.721518987 669 225.519038194 639.896124349 233 624 c 0
 237.965820312 613.448242188 240 597 240 587 c 1
 240 550.325757576 237 519.113636364 237 484 c 1
 237 471 237.757359313 458.485281374 240 450 c 0
 241 448 l 3
 248 448 258 453 265 457 c 1
 289 405 l 1
 275 399 254 390 237 390 c 3
 216 390 200 404 193 418 c 1
 160.913043478 396 135.065217391 386 111 386 c 3
 64 386 36 420 36 462 c 1xfd
 36 476.698113208 38.5033652914 495.066511558 41 503 c 0
 45.2828265995 516.609421998 55.1803593414 528.07704613 74 540.2890625 c 0
 87.2064463179 548.858691514 134.084033613 561 184 567 c 1
 184 568.666666667 184 573 184 573 c 1
 184 588.1875 181 594.09375 177 600 c 1
 173 605.6 161.8 612 153 612 c 3
 144.734693878 612 108 604.058823529 108 597 c 3
 108 592.090909091 110 589.636363636 110 588 c 1
 56 568 l 1
 55.1428571429 572.655172414 50 586.620689655 50 595 c 3xfb
 50 607 49.1173759745 614.628026684 60 629 c 0
 74.4230769231 648.047619048 127.307692308 669 160 669 c 3
EndSplineSet
Refer: 1970 58113 N 0.237 0 0 1 36 320 2
Position2: "cpsp-1" dx=0 dy=0 dh=7 dv=14
EndChar
StartChar: registered
Encoding: 174 174 876
Width: 564
VWidth: 1159
Flags: W
HStem: 276.219 54.5225<192.121 369.793> 369.61 40.0635<411.352 442.511> 471.66 48.2178<258.379 299.714> 615.074 42.9531<259.842 328.248> 711.695 54.5225<196.008 371.604>
VStem: 33.1963 55.4102<428.898 604.275> 188.489 69.4033<379.008 471.772 521.324 593.248> 339.328 65.6025<524.849 604.331> 477.193 55.417<438.162 609.969>
LayerCount: 2
Fore
SplineSet
256.37890625 521.32421875 m 5
 272.512695312 520.948242188 280.626953125 519.877929688 296.571289062 519.877929688 c 5
 324.661132812 519.877929688 339.328125 538.418945312 339.328125 563.54296875 c 5
 339.533203125 589.771484375 319.36328125 614.270507812 283.276367188 615.07421875 c 5
 273.450195312 614.034179688 264.248050174 612.780443029 259.622070312 593.7734375 c 4
 257 583 256.501953125 543.801757812 256.37890625 521.32421875 c 5
188.099609375 654.712890625 m 5
 202.326171875 654.340820312 212.407226562 653.96484375 228.366210938 653.96484375 c 5
 257.331054688 653.96484375 270.26953125 658.02734375 303.215820312 658.02734375 c 5
 358.229492188 658.02734375 404.930664062 618.983398438 404.930664062 569.790039062 c 5
 404.930664062 527.495117188 378.830078125 498.41796875 348.399414062 483.478515625 c 5
 389.166015625 445.271484375 411.3515625 414.314453125 448.10546875 409.673828125 c 5
 442.510742188 369.610351562 l 5
 375.2109375 372.641601562 324.928710938 415.822265625 283.869140625 471.655273438 c 5
 282.386499819 471.64671794 281.141374216 471.650180239 280 471.66015625 c 4
 272.905974872 471.685358372 267.418024113 471.751544627 258.37890625 471.772460938 c 5
 258.312145672 460.299804688 258.141607898 451.925777469 258.14453125 442.236328125 c 4
 258.130859375 428.364257812 258.063476562 426.659179688 257.892578125 424.012695312 c 5
 258.385742188 373.591796875 l 5
 246.264096882 377.147213799 233.598490234 379.0078125 220.950195312 379.0078125 c 4
 210.0608113 379.0078125 199.184259012 377.628688838 188.678710938 374.764648438 c 5
 188.489257812 424.171875 l 5
 189.001953125 425.271484375 189.173828125 427.940429688 189.223632812 441.385742188 c 5
 189.072265625 478.09765625 188.9921875 501.017578125 188.9921875 524.383789062 c 7
 188.9921875 543.7265625 189.198242188 563.350585938 189.630859375 590.0390625 c 5
 189.47265625 607.942382812 189.227539062 612.072265625 188.099609375 612.716796875 c 5
 188.099609375 654.712890625 l 5
282.897460938 711.6953125 m 3
 182.037109375 711.6953125 88.6064453125 629.452148438 88.6064453125 517.3984375 c 3
 88.6064453125 405.426757812 177.985351562 330.741210938 282.897460938 330.741210938 c 3
 383.762695312 330.741210938 477.193359375 412.986328125 477.193359375 525.040039062 c 3
 477.193359375 629.390625 387.65234375 711.6953125 282.897460938 711.6953125 c 3
282.900390625 766.217773438 m 3
 417.215820312 766.217773438 532.610351562 660.678710938 532.610351562 525.927734375 c 3
 532.610351562 381.82421875 412.581054688 276.21875 282.900390625 276.21875 c 3
 148.763671875 276.21875 33.1962890625 372.307617188 33.1962890625 516.508789062 c 3
 33.1962890625 660.612304688 153.223632812 766.217773438 282.900390625 766.217773438 c 3
EndSplineSet
Validated: 37
EndChar
StartChar: degree
Encoding: 176 176 1212
Width: 307
Flags: HW
HStem: 450.961 63.8428<92.906 203.143> 681.86 63.8428<92.2621 202.742>
VStem: 0.241211 63.8145<543.5 653.817> 230.947 63.8154<543.775 654.451>
LayerCount: 2
Back
SplineSet
147.376953125 506.9609375 m 0
 195.232556444 506.9609375 238.762695312 547.257532999 238.762695312 599.2578125 c 0
 238.762695312 651.064629548 199.752439859 689.703125 147.247070312 689.703125 c 0
 96.5282131025 689.703125 56.2412109375 649.489049601 56.2412109375 598.8984375 c 0
 56.2412109375 548.493305614 98.8608456468 506.9609375 147.376953125 506.9609375 c 0
147.376953125 450.9609375 m 0
 67.6758152613 450.9609375 0.2412109375 517.211432619 0.2412109375 598.8984375 c 0
 0.2412109375 680.383488167 65.8384027529 745.703125 147.247070312 745.703125 c 0
 229.586007165 745.703125 294.762695312 681.977079603 294.762695312 599.2578125 c 0
 294.762695312 515.402312827 225.6631626 450.9609375 147.376953125 450.9609375 c 0
EndSplineSet
Fore
SplineSet
147.408203125 514.803710938 m 0
 191.759833332 514.803710938 230.947265625 551.41678875 230.947265625 599.026367188 c 0
 230.947265625 645.862561404 194.036093971 681.860351562 147.310546875 681.860351562 c 0
 101.19548978 681.860351562 64.0556640625 644.895156912 64.0556640625 598.756835938 c 0
 64.0556640625 552.424963203 102.283017918 514.803710938 147.408203125 514.803710938 c 0
147.376953125 450.9609375 m 0
 67.7209799365 450.9609375 0.2412109375 517.25500347 0.2412109375 598.8984375 c 0
 0.2412109375 680.403073513 65.820211378 745.703125 147.247070312 745.703125 c 0
 229.660015085 745.703125 294.762695312 682.06127958 294.762695312 599.2578125 c 0
 294.762695312 515.4282111 225.625352612 450.9609375 147.376953125 450.9609375 c 0
EndSplineSet
EndChar
StartChar: germandbls
Encoding: 223 223 327
Width: 601
Flags: HW
HStem: -9 40<37 88.8477 173.148 208.525 365.019 460.981> 356 30<40 95.2842> 705 51<244.321 344.378>
VStem: 100 65<36.3341 356 396.595 588.58> 276 67<305.481 354.885> 301 22<88.2815 107.227> 396.559 58.286<487.211 649.856> 477 62<53.3627 166.162>
LayerCount: 2
Back
SplineSet
312 756 m 0xfb
 411.877 756 454.845 679.623 454.845 588.779 c 0
 454.845 446.016 343 385.103 343 345 c 0xfb
 343 322 360.358 300 417 276 c 1
 495.85 246.667 539 186.985 539 128 c 0
 539 33.1543 458.812 -9 408 -9 c 0
 365.699560976 -9 332.401317073 2 300 16 c 1
 304 30 306 44 306 59 c 0
 306 68.3555 304.571 95.6445 301 105 c 1
 323 112 l 1xf7
 342.104493506 56.8506 380.314818182 31 426 31 c 0
 451.5 31 477 56.9092 477 106 c 0
 477 163.711 429.343 194.988 396 212 c 0
 347 237 276 253 276 324 c 0
 276 346 396.559 432.484 396.559 571.703 c 0
 396.559 648.474 347.395 705 278 705 c 0
 190.602 705 180.067 591.244 171 454 c 1
 167.34 417.394 165 295.325 165 249 c 0
 165 182.096 166.167 119.272 172 54 c 0
 172.739 39 177.174 34 189 33 c 0
 196.534 32 203.466 32 211 31 c 1
 208 -6 l 1
 182.625 -1 146.375 1 121 1 c 0
 97.2266 1 60.7734 -2 37 -6 c 1
 36 30 l 1
 47 31 61 31 72 33 c 1
 89.5947 40 91.8652 53 93 81 c 1
 97.375 120.633 100 172.459 100 222 c 0
 99.4055 259.124 99.1645 308.001 99.0667 356 c 1
 40 356 l 1
 40 386 l 1
 59.9402 389.935 79.0951 397.74 99.0097 401.801 c 1
 99 418.369 99 434.298 99 449 c 0
 99 579.533 140.062 647.199 205 704 c 0
 235.911 731 265.237 756 312 756 c 0xfb
EndSplineSet
Fore
SplineSet
298 749 m 3
 405.82001954 749 476 667.537974416 476 592 c 3
 476 503.909137818 386 421 386 391 c 3
 386 367.103448276 406 342.32183908 479 314 c 0
 571.461786704 278.127563779 599 212.946745562 599 151 c 3
 599 48.6338028169 506.409574468 -7 430 -7 c 3
 374 -7 332 6 291 19 c 1
 287 40 280.594368732 60.9408266935 277 87 c 0
 273 116 271 144 265 159 c 1
 323 175 l 1
 342 108 407 62 444 62 c 3
 479.675675676 62 499 96.7142857143 499 134 c 3
 499 172.4375 485.99211491 198.812735933 430 224 c 0
 376 248.291139241 291 270.835443038 291 372 c 3
 291 459.511627907 384 490.325581395 384 584 c 3
 384 639.590288703 322.404166713 670 266 670 c 3
 210 670 195.860016863 639.020118044 184 556 c 0
 175.463484157 496.244389097 170 357.867754667 170 304 c 3
 170 233 174.2 134 179 92 c 0
 183 71 193.055943107 65.7984978841 213 64 c 0
 220.392857143 63.3333333333 228.607142857 62.6666666667 236 62 c 1
 231 -7 l 1
 199.032894737 -2.55555555556 154.427631579 1 118 1 c 3
 87 1 39 -4 11 -7 c 1
 9 59 l 1
 21 60 34.9833448914 60.1026334039 47 62 c 0
 66 65 73.106766919 68.9840225684 75 82 c 0
 83 137 87 214 87 280 c 3
 87 307 87 388 85 437 c 1
 61.3116883117 437 35.6493506494 437 9 437 c 1
 9 493 l 1
 33.6621621622 494 60.2972972973 497 82 499 c 1
 80 534 79 545 79 558 c 3
 79 614 126.291388649 655.63311092 178 697 c 0
 208 721 261 749 298 749 c 3
EndSplineSet
Substitution2: "pcap-1" uni1E9E.pcap
Substitution2: "smcp-1" uni1E9E.smcp
EndChar
StartChar: ae
Encoding: 230 230 322
Width: 672
Flags: HW
HStem: -12 82<90.5 238.813 431.019 539.083> 444 81<168.819 267.854> 444 73<416.362 504.617>
VStem: 30 96<92.8432 201.081> 43 112<387.126 436.726> 273.241 98.7586<141.087 245.863> 282 91<320.179 392.808> 536 112<334.25 398.557>
AnchorPoint: "Top" 349 537 basechar 0
AnchorPoint: "Bottom" 336.52 -15 basechar 0
LayerCount: 2
Fore
SplineSet
466 444 m 0xa3
 422.536132812 444 383.536132812 401.983398438 373 320 c 1
 532 336 l 2
 535 336 536 339 536 342 c 0
 533.878555126 397.259258564 498.755661868 444 466 444 c 0xa3
372 256 m 1xad
 372 144.182057963 418.664014983 70 491 70 c 3
 526.635917468 70 569.202540732 115 589 158 c 1
 646 115 l 1
 612.822180294 56 556.52112409 -12 459 -12 c 3
 395.705512499 -12 351.223557494 12.7919219682 320.898702232 49.0049933836 c 1
 266.293735235 17.2652047639 201.674553103 -9.99999999919 139 -10 c 3
 42 -10 30 56 30 112 c 3xb5
 30 140.209960938 31 182.98046875 42 203 c 0
 48 219 59 231 70 236 c 0
 146 281 191 290 277 305 c 1
 278.501251297 310.792350366 282 334.954638983 282 342 c 0
 282 375 277 387 271 398 c 0
 267 403 234 444 212 444 c 3
 171 444 155 421 155 418 c 3
 155 410 162 392 162 392 c 1
 54 353 l 17
 54 354 43 376 43 393 c 3
 43 417 54.3808197705 439.509815652 79 459 c 0
 103 478 208 525 257 525 c 3xcb
 278.70771445 525 324.519041389 488.257519681 349.289281121 459.739627601 c 1
 388.798325678 497.709432189 437.080218011 517 483 517 c 3
 548.571056277 517 615.823889444 459.069055096 636 366 c 0
 639 354 642 347 648 346 c 1
 648 282 l 1
 553.934507415 274.77742513 457.246795551 264.666666667 372 256 c 1xad
273.2413847 245.863003473 m 1
 227.177650586 243.250899697 181.807853631 224.564936568 165 214 c 0
 130 192 126 175 126 150 c 3
 126 101.522460938 156 71 208 71 c 3
 225.215393897 71 261.157521262 90.1809703142 286.413824909 114.454820685 c 1
 273.192961019 158.185537664 271.886409671 201.735676766 273.2413847 245.863003473 c 1
EndSplineSet
Substitution2: "pcap-1" ae.pcap
Substitution2: "smcp-1" ae.smcp
EndChar
StartChar: Aogonek
Encoding: 260 260 255
Width: 705
Flags: HW
HStem: -346.802 72.7783<499.644 569.002> -5 39<17 68.5231 644.788 690.419> 245 42<237 427.657>
VStem: 350 43<632.009 712> 407.273 71.958<-253.556 -112.001>
LayerCount: 2
Fore
SplineSet
237 287 m 1
 290 282 400 283 449 283 c 1
 410 383 384 443 342 545 c 1
 301 444 274 378 237 287 c 1
505.106445312 9.3037109375 m 0
 516.32084969 22.5255365727 526.28515625 40.5437191436 526.28515625 62.3583984375 c 0
 526.28515625 66.7541743462 526.638581464 71.5120040143 525 76 c 0
 502 139 488 173 465 236 c 1
 405 246 308 252 221 245 c 1
 194.87 183.38 174.102238681 147.306716044 154 87 c 0
 142 51 166 29 237 34 c 1
 235 -10 l 1
 202.059916664 -3.52930902503 150.109077766 0.0791015625 101.918945312 0.0791015625 c 3
 69.6460971546 0.0791015625 39.0599146067 -1.53923141794 17 -5 c 1
 17 -5 13 20 12 34 c 1
 61 48 85.7283983171 56.6656005248 96 80 c 0
 188 289 266.773421759 469.692668455 334 640 c 0
 349 678 346 679 350 712 c 1
 393 712 l 1
 398.46 684.7 393.99168642 681.341883252 407 642 c 0
 479.318 423.284016366 522.925591165 291.262696164 622 78.1982421875 c 0
 630 60.9938264767 661.846 35.0799028125 692 32 c 1
 692 32 691 8 690 -4 c 1
 665.831424255 4.17930807831 638.869227035 8.486328125 612.900390625 8.486328125 c 3
 573.31454429 8.486328125 540.722021946 -3.50827569913 523.860351562 -28 c 0
 490.810715224 -76.0055439258 479.231445312 -147.937616877 479.231445312 -196.747070312 c 3
 479.231445312 -237.611373161 508.631004142 -274.0234375 540.14453125 -274.0234375 c 3
 559.969724697 -274.0234375 583.77495698 -267.592408263 608.200195312 -253.40234375 c 1
 608.200195312 -253.40234375 619.310038072 -263.730014861 622 -271.801757812 c 1
 595.823 -315.298757813 545.232 -346.801757812 505 -346.801757812 c 3
 455.302222486 -346.801757812 407.2734375 -298.236689929 407.2734375 -235.232421875 c 3
 407.2734375 -105.156513021 468.973437955 -33.2965410067 505.106445312 9.3037109375 c 0
EndSplineSet
Position2: "cpsp-1" dx=0 dy=0 dh=50 dv=100
Substitution2: "c2pc-1" aogonek.pcap
Substitution2: "c2sc-1" aogonek.smcp
EndChar
StartChar: Eogonek
Encoding: 280 280 258
Width: 672
VWidth: 0
UnlinkRmOvrlpSave: 1
Flags: W
HStem: -347.889 73.7197<484.634 553.852> -9 35<56 102.007> 333 36<205 473.393> 657 31<48 108.489>
VStem: 124 81<87.2765 333 369 603.172> 395.766 71.875<-257.592 -149.807> 497 36<249 305.348> 538 30<537 619.889>
AnchorPoint: "Top" 330 699 basechar 0
LayerCount: 2
Fore
SplineSet
48 688 m 5xd6e0
 120.521055818 684.355725838 206.588460485 682.969176485 287.955928091 682.969176485 c 7
 429.86328558 682.969176485 557.47511282 687.186564497 574 691 c 5
 585.145145837 681.247997393 589.133414459 675.741599913 589.133414459 667.087387512 c 7
 589.133414459 650.893580795 575.168856119 623.677987617 568 537 c 5
 538 534 l 5
 527 570 546 617 510 628 c 4
 468.488636507 639.860389569 402.664140046 646.076658986 339.417525988 646.076658986 c 7
 306.677490841 646.076658986 274.628246937 644.410894684 247 641 c 4
 229 639 216 625 215 607 c 4x9ae0
 211 525.313559322 206 444.635593221 205 369 c 5
 269 371 429 371 443 372 c 4
 480 377 485 403 501 447 c 5
 535 440 l 5
 526.800908316 409.132831309 523.486685813 378.498275435 523.486685813 347.871954284 c 7
 523.486685813 314.997648821 527.305294619 282.132831309 533 249 c 5
 497 240 l 5
 477 311 484 324 443 328 c 4
 399 333 298 332 205 333 c 5
 204 235.613545816 208 147.262948207 220 81 c 4
 224 64 233 50 250 49 c 4
 295.831179232 44.5647245905 336.319436302 40.3723092792 374.696225476 40.3723092792 c 7
 414.193090286 40.3723092792 451.453436792 44.8130178498 490 58 c 4
 550.414440108 78.6680979317 560.916666667 101 601 177 c 5
 629 170 l 5
 601.909278218 96.0751847998 563.005363884 18.4683882549 538.489257812 -19.9775390625 c 4
 508.313510966 -67.2988618945 467.640625 -148.391015834 467.640625 -206.689453125 c 4
 467.640625 -242.779181534 495.826784961 -274.168945312 526.834960938 -274.168945312 c 4
 547.809960937 -274.168945312 572.993960937 -265.436945313 598.834960938 -246.168945312 c 5
 598.834960938 -246.168945312 609.943822568 -256.497164572 612.633789062 -264.569335938 c 5
 585.578932221 -312.305955472 533.145209671 -347.888671875 491.565429688 -347.888671875 c 4
 442.385016588 -347.888671875 395.765625 -303.499671875 395.765625 -247.513671875 c 4
 395.765625 -172.157942368 443.587456716 -80.3722695124 506.53125 0.1865234375 c 5
 426.116814261 0.92057786207 344.873636713 3.07020290016 269.953021447 3.07020290016 c 7xb9e0
 188.876938008 3.07020290016 115.205017511 0.552841530585 58 -9 c 5
 48 26 l 5
 101 36 124 49 124 77 c 5
 125.797958971 111.804426856 126.787753827 207.154066657 126.787753827 309.259280672 c 7xd1e0
 126.787753827 434.312117879 125.303061543 569.498316407 122 616 c 4
 121 643 116 643 43 657 c 5
 48 688 l 5xd6e0
EndSplineSet
Position2: "cpsp-1" dx=0 dy=0 dh=50 dv=100
Substitution2: "c2pc-1" eogonek.pcap
Substitution2: "c2sc-1" eogonek.smcp
EndChar
StartChar: eogonek
Encoding: 281 281 253
Width: 506
UnlinkRmOvrlpSave: 1
Flags: HW
HStem: -177.1 75.1279<279.727 366.339>
VStem: 220.79 79.4385<-124.77 -19.8732>
AnchorPoint: "Top" 209 465 basechar 0
LayerCount: 2
Fore
SplineSet
379.859375 35.443359375 m 1
 315.1875 -10 300.228515625 -48.1767578125 300.228515625 -67.099609375 c 3
 300.228515625 -88.9921875 313.544921875 -101.971679688 330.39453125 -101.971679688 c 3
 339.369140625 -101.971679688 350.14453125 -98.4560546875 361.201171875 -90.69921875 c 1
 361.201171875 -90.69921875 382.154296875 -118.986328125 387.228515625 -141.099609375 c 1
 366.802734375 -166.104492188 332.389648438 -177.099609375 301 -177.099609375 c 3
 258.454101562 -177.099609375 220.790039062 -148.606445312 220.790039062 -100.934570312 c 3
 220.790039062 -34.5546875 267.109375 43.14453125 354.228515625 85.900390625 c 1
 379.859375 35.443359375 l 1
EndSplineSet
Refer: 4 101 N 1 0 0 1 0 0 3
Substitution2: "smcp-1" eogonek.smcp
Substitution2: "case-1" Eogonek
Substitution2: "pcap-1" eogonek.pcap
EndChar
StartChar: Iogonek
Encoding: 302 302 259
Width: 453
VWidth: 0
UnlinkRmOvrlpSave: 1
Flags: W
HStem: -177.1 78.1279<215.688 317.275> -8 21G<69.1579 95.5 360.5 387.389> 4.44336 50.457<279.326 297.784> 672 20G<74.4211 102.5 362 391.026>
VStem: 142.79 98.4385<-124.77 -33.6343> 179 106<67.4773 555.247>
LayerCount: 2
Fore
SplineSet
319.859375 4.443359375 m 1xb8
 251.530182616 -20.4562133698 241.228515625 -53.8974991518 241.228515625 -67.099609375 c 3
 241.228515625 -87.1086024517 254.544765679 -98.9716796875 271.39453125 -98.9716796875 c 3
 283.573365676 -98.9716796875 298.196167184 -96.3918459311 313.201171875 -90.69921875 c 1
 313.201171875 -90.69921875 334.154062565 -118.986437988 339.228515625 -141.099609375 c 1
 316.197313492 -166.10445148 277.394435976 -177.099609375 242 -177.099609375 c 3
 189.375302063 -177.099609375 142.790039062 -148.606137637 142.790039062 -100.934570312 c 3
 142.790039062 -45.5687193842 185.144003379 19.2385619203 294.228515625 54.900390625 c 1
 319.859375 4.443359375 l 1xb8
EndSplineSet
Refer: 34 73 N 1 0 0 1 0 0 3
Position2: "cpsp-1" dx=0 dy=0 dh=50 dv=100
Substitution2: "c2pc-1" iogonek.pcap
Substitution2: "c2sc-1" iogonek.smcp
EndChar
StartChar: iogonek
Encoding: 303 303 260
Width: 307
UnlinkRmOvrlpSave: 1
Flags: HW
HStem: -177.1 75.1279<133.727 220.339> 612.7 132.6<132.865 243.135>
VStem: 74.79 79.4385<-124.77 -30.3803> 120.4 135.2<624.969 733.079>
LayerCount: 2
Fore
SplineSet
232.859375 5.443359375 m 1xe0
 164.530273438 -24.8740234375 154.228515625 -53.712890625 154.228515625 -67.099609375 c 3
 154.228515625 -88.9921875 167.544921875 -101.971679688 184.39453125 -101.971679688 c 3
 193.369140625 -101.971679688 204.14453125 -98.4560546875 215.201171875 -90.69921875 c 1
 215.201171875 -90.69921875 236.154296875 -118.986328125 241.228515625 -141.099609375 c 1
 220.802734375 -166.104492188 186.389648438 -177.099609375 155 -177.099609375 c 3
 112.454101562 -177.099609375 74.7900390625 -148.606445312 74.7900390625 -100.934570312 c 3
 74.7900390625 -45.2138671875 111.830078125 20.009765625 207.228515625 55.900390625 c 1
 232.859375 5.443359375 l 1xe0
EndSplineSet
Refer: 8 105 N 1 0 0 1 0 0 3
Substitution2: "smcp-1" iogonek.smcp
Substitution2: "case-1" Iogonek
Substitution2: "pcap-1" iogonek.pcap
EndChar
StartChar: dotlessi
Encoding: 305 305 50
Width: 331
Flags: HMW
AnchorPoint: "Bottom" 167 -15 basechar 0
AnchorPoint: "Ogonek" 221 18 basechar 0
AnchorPoint: "Top" 170 537 basechar 0
LayerCount: 2
Fore
SplineSet
213 212 m 3
 213 171 216 113 221 74 c 1
 221 66 231.087890625 63.322265625 239 61 c 0
 254.333007812 56.5 269.666992188 55.75 285 55 c 1
 280 -11 l 1
 239.62109375 -5.9228515625 194.318359375 0 150 0 c 1
 111.302734375 0 88.326171875 -6 46 -10 c 1
 40 53 l 1
 58.318359375 54.125 85.3232421875 57.6201171875 102 62 c 0
 113 64.888671875 120.02734375 75.3603515625 121 88 c 0
 123 114 124 179 124 208 c 3
 124 229.316873562 126.022974327 313.793231058 118 386 c 0
 117 395 116 403 102 403 c 1
 97 403 79 399 70 397 c 1
 60 463 l 1
 121.791044776 474.454545455 150.626865672 480.181818182 198 517 c 1
 242 498 l 1
 236 481 227.622009466 441.071896956 224 421 c 0
 216 376.666826071 213 231.000382571 213 212 c 3
EndSplineSet
Substitution2: "pcap-1" i.pcap
Substitution2: "smcp-1" i.smcp
EndChar
StartChar: kgreenlandic
Encoding: 312 312 345
Width: 503
Flags: W
HStem: -10 71<178.291 193.69 309.5 319.356 447.446 493> 407 68<8.07353 53.5729> 441 62<268.548 293.626>
VStem: 67 82<73.187 229.917 285 405.929>
LayerCount: 2
Back
SplineSet
159 247 m 1
 159 246.400390625 149 241.599609375 149 241 c 1
 154.5 178 159.283017291 109.940307838 160 97 c 0
 160.78667693 82.8018310458 168.493332216 66.8811078527 178 65 c 0
 184.174017255 63.778331945 192.519972279 61.66640625 200 61 c 1
 193 -10 l 1
 155.247979526 -4.0771484375 145.118904902 1 100 1 c 1
 71.1572265625 1 42.314453125 -3.2001953125 11 -8 c 1
 4 58 l 1
 14.0002790179 58.7145182292 25.111328125 60.1427408854 34 63 c 1
 44 66 49 78 53 98 c 1
 62.9166666667 144.153110048 67 222.526315789 67 280 c 3
 67 334.62475131 59.9916994987 370.632004639 54 387 c 0
 51.8384770532 404.659220128 46 409.466796875 30 409 c 1
 23.2639160156 408.428710938 14.1511230469 407.571289062 9 407 c 1
 0 475 l 1
 60.1103515625 484.633789062 91.435546875 497.478515625 138 532 c 1
 183 497 l 1
 176 482 164.307573276 452.976566334 163 438 c 0
 158 415.484157986 148 343.942040598 148 300 c 1
 193.76119403 333.489039964 254.776119403 398.49601863 294 431 c 1
 297 433 296 436 294 437 c 1
 286.090766058 439 274.227701822 440 265 441 c 1
 269 503 l 1
 298.65234375 501 324.478515625 498 357 498 c 1
 390.984706038 498 429.015293962 501 463 505 c 1
 468 442 l 1
 397.5 436.935546875 365.222598805 408.63671875 327 377 c 1
 240 308 l 1
 298.420009854 223.333059896 375.185797614 151.666940104 451 77 c 1
 467.070415296 61.904296875 483.807514391 58.7998046875 496 56 c 1
 493 -10 l 1
 456.398359375 -5 446.2740625 0 405 0 c 1
 372.149414062 0 343.73828125 -4.2001953125 310 -9 c 1
 305 60 l 1
 311.080859375 60.3999023438 316.756835937 61.6000976562 320 62 c 1
 280.660824424 124.25760438 241 170 159 247 c 1
EndSplineSet
Fore
SplineSet
167 230 m 1xb0
 167 228.401041667 149 215.598958333 149 214 c 1
 154.5 162.8125 159.397157682 107.52059127 160 97 c 0
 160.78667693 82.8018310458 168.493332216 66.8811078527 178 65 c 0
 184.174017255 63.778331945 192.519972279 61.66640625 200 61 c 1
 193 -10 l 1
 155.247979526 -4.0771484375 145.118904902 1 100 1 c 1
 71.1572265625 1 42.314453125 -3.2001953125 11 -8 c 1
 4 58 l 1
 14.0002790179 58.7145182292 25.111328125 60.1427408854 34 63 c 1
 44 66 49 78 53 98 c 1
 62.9166666667 144.153110048 67 222.526315789 67 280 c 3
 67 334.62475131 56.1176851039 369.698926483 54 387 c 0
 51.8384770532 404.659220128 46 409.466796875 30 409 c 1
 23.2639160156 408.428710938 14.1511230469 407.571289062 9 407 c 1
 0 475 l 1xd0
 60.1103515625 484.633789062 91.435546875 497.478515625 138 532 c 1
 183 497 l 1
 176 482 165.952496481 452.740761566 163 438 c 0
 158 413.036783854 148 333.718349359 148 285 c 1
 193.76119403 324.323662861 254.776119403 394.774188702 294 431 c 1
 297 433 296 436 294 437 c 1
 286.090766058 439 274.227701822 440 265 441 c 1
 269 503 l 1
 298.65234375 501 324.478515625 498 357 498 c 1
 390.984706038 498 429.015293962 501 463 505 c 1
 468 442 l 1
 397.5 436.935546875 365.222598805 408.63671875 327 377 c 1
 240 293 l 1
 298.420009854 213.83091315 375.185797614 146.8184375 451 77 c 1
 467.070415296 61.904296875 483.807514391 58.7998046875 496 56 c 1
 493 -10 l 1
 456.398359375 -5 446.2740625 0 405 0 c 1
 372.149414062 0 343.73828125 -4.2001953125 310 -9 c 1
 305 60 l 1
 311.080859375 60.3999023438 316.756835937 61.6000976562 320 62 c 1
 282.615566068 118.536635329 244.925465839 160.075675676 167 230 c 1xb0
EndSplineSet
EndChar
StartChar: OE
Encoding: 338 338 346
Width: 1071
Flags: HW
HStem: -16 72<346.672 521.131> 1 76<640.999 914.75> 305 69<642 857.281> 610 69<652.448 892.965> 616 73<284.654 474.365>
VStem: 46 119<261.919 449.449> 532 110<78.0134 305 374 570.632> 868 63<261.095 305.86 375.112 419.629> 907 59<543 603.448> 956 59<127.365 143.729>
AnchorPoint: "Bottom" 585.957 -15 basechar 0
AnchorPoint: "Top" 585.585 699 basechar 0
LayerCount: 2
Back
SplineSet
473 684 m 1xa680
 537 681 641 679 737 679 c 3xb680
 840 679 934 681 958 687 c 1
 980 671 987 660 987 647 c 3
 987 629 968 605 966 543 c 1
 907 538 l 1x2d
 900 566 915 600 899 602 c 0
 851 608 781 612 720 612 c 3
 698 612 677 611 659 610 c 0
 651 609 645 606 645 595 c 0
 644 523 643 441 642 374 c 1
 687 376 845 374 850 375 c 0
 859 376 858 400 869 432 c 1
 935 419 l 1
 927 387 923 357 923 327 c 3
 923 307 926 286 931 262 c 1
 868 243 l 1
 851 286 860 306 852 306 c 0
 818 305 696 304 640 305 c 1
 640 218 639 153 641 95 c 0
 641 80 648 78 654 78 c 0
 693 78 730 77 765 77 c 3
 803 77 838 78 872 79 c 0
 910 81 920 100 956 164 c 1
 1015 141 l 1
 1000 80 991 57 979 0 c 1
 888 -3 792 1 701 1 c 3x7680
 621 1 546 1.38777878078e-17 485 -14 c 1
 473 51 l 1
 511 59 531 67 531 75 c 1
 531 113 532 225 532 346 c 3
 532 474 531 591 531 602 c 0
 531 608 505 608 470 611 c 1
 473 684 l 1xa680
381 616 m 3
 255 616 165 528 165 381 c 3
 165 208 293 56 434 56 c 3
 568 56 653 163 653 297 c 3
 653 453 533 616 381 616 c 3
405 689 m 3
 594 689 768 540 768 329 c 3
 768 131 601 -16 414 -16 c 3
 242 -16 46 100 46 331 c 3
 46 533 215 689 405 689 c 3
EndSplineSet
Fore
SplineSet
381 616 m 3xae
 255 616 165 528 165 381 c 0
 165 208 293 56 434 56 c 3
 470.131814635 56 530.701050825 63.92656565 531.001953125 97.7705078125 c 1
 531.046306195 135.198369226 532 236.626147683 532 346 c 0
 532 420.065268677 531.560768975 489.911124092 531.264648438 531.380859375 c 1
 531 584 436.867698136 616 381 616 c 3xae
414 -16 m 3
 242 -16 46 100 46 331 c 0
 46 533 215 689 405 689 c 3xaf40
 484.032364774 689 509.980177077 679 737 679 c 3
 840 679 934 681 958 687 c 1
 980 671 987 660 987 647 c 0
 987 629 968 605 966 543 c 1
 907 538 l 1x3680
 900 566 915 600 899 602 c 0
 835.855279301 609.893090087 732.538169107 615.192271136 659 610 c 0
 650.957763708 609.432166018 645.152763044 605.998939197 645 595 c 0
 644 523 643 441 642 374 c 1
 687 376 844.932167443 374.436907494 850 375 c 0
 859 376 858 400 869 432 c 1
 935 419 l 1
 927 387 923 357 923 327 c 0
 923 307 926 286 931 262 c 1
 868 243 l 1
 851 286 859.996542036 306.235192413 852 306 c 0
 818 305 696 304 640 305 c 1
 640 218 641 153.034472514 641 95 c 0
 641 80 648 78 654 78 c 0
 693 78 730 77 765 77 c 0
 803 77 838.032311421 77.2122269169 872 79 c 0
 910 81 920 100 956 164 c 1
 1015 141 l 1
 1000 80 991 57 979 0 c 1
 888 -3 792 1 701 1 c 3x7740
 509.997382217 1 499.498478178 -16 414 -16 c 3
EndSplineSet
Position2: "cpsp-1" dx=0 dy=0 dh=50 dv=100
Substitution2: "c2pc-1" oe.pcap
Substitution2: "c2sc-1" oe.smcp
EndChar
StartChar: oe
Encoding: 339 339 871
Width: 833
UnlinkRmOvrlpSave: 1
Flags: HW
HStem: -11 74<210.997 323.127> 443 77<173.245 286.957>
VStem: 24 100<173.305 353.056> 370 104<143.621 341.303>
AnchorPoint: "Top" 422 537 basechar 0
AnchorPoint: "Bottom" 425 -15 basechar 0
LayerCount: 2
Fore
SplineSet
249 520 m 3
 391.307617188 520 474 379 474 254 c 3
 474 128.573242188 387.4609375 -11 249 -11 c 3
 128.807617188 -11 24 97.99609375 24 238 c 3
 24 419 157.654296875 520 249 520 c 3
232 443 m 3
 166.461914062 443 124 387.729492188 124 269 c 3
 124 166.9453125 197.350585938 63 266 63 c 3
 336.354492188 63 372 126.66015625 372 239 c 3
 372 360.379882812 290.095703125 443 232 443 c 3
EndSplineSet
Refer: 4 101 N 1 0 0 1 338 0 2
Substitution2: "smcp-1" oe.smcp
Substitution2: "pcap-1" oe.pcap
EndChar
StartChar: uogonek
Encoding: 371 371 262
Width: 539
UnlinkRmOvrlpSave: 1
Flags: HW
HStem: -177.1 75.1279<372.727 459.339>
VStem: 313.79 79.4385<-124.77 -34.6367>
LayerCount: 2
Fore
SplineSet
470.859375 -4.556640625 m 5
 403.399169588 -30.6948911965 393.228515625 -55.5583051553 393.228515625 -67.099609375 c 7
 393.228515625 -88.9919749042 406.544765679 -101.971679688 423.39453125 -101.971679688 c 7
 432.368918328 -101.971679688 443.144225415 -98.4562717014 454.201171875 -90.69921875 c 5
 454.201171875 -90.69921875 475.154062565 -118.986437988 480.228515625 -141.099609375 c 5
 459.802960835 -166.10445148 425.390067574 -177.099609375 394 -177.099609375 c 7
 351.453617298 -177.099609375 313.790039062 -148.606137637 313.790039062 -100.934570312 c 7
 313.790039062 -48.7662859338 350.550449445 12.2981540453 445.228515625 45.900390625 c 5
 470.859375 -4.556640625 l 5
EndSplineSet
Refer: 20 117 N 1 0 0 1 0 0 3
Substitution2: "smcp-1" uogonek.smcp
Substitution2: "case-1" Uogonek
Substitution2: "pcap-1" uogonek.pcap
EndChar
StartChar: longs
Encoding: 383 383 445
Width: 330
Flags: HW
HStem: -6 36<34 97.3708 215.17 284.568> 1 32<191.619 282.018> 356 25<46 67.3182> 701 55<273.459 377.117>
VStem: 113 72<42.1466 356 403 602.768>
AnchorPoint: "Top" 208 735 basechar 0
AnchorPoint: "Bottom" 145 -15 basechar 0
LayerCount: 2
Back
SplineSet
298 749 m 3
 335 749 378 741 410 721 c 1
 415 688 385 651 364 637 c 1
 329 657 294 670 266 670 c 3
 210 670 195.860016863 639.020118044 184 556 c 0
 175.463484157 496.244389097 170 357.867754667 170 304 c 3
 170 233 177 134 185 92 c 0
 189 71 199.005847009 65.1107862773 219 64 c 0
 237 63 257 62 275 61 c 1
 270 -8 l 1
 227 -3 167 1 118 1 c 3
 87 1 39 -4 11 -7 c 1
 9 59 l 1
 21 60 34.9833448914 60.1026334039 47 62 c 0
 66 65 73.106766919 68.9840225684 75 82 c 0
 83 137 87 214 87 280 c 3
 87 307 87 388 85 437 c 1
 61 437 35 437 8 437 c 1
 8 493 l 1
 33 494 60 497 82 499 c 1
 80 534 79 545 79 558 c 3
 79 614 126.291388649 655.63311092 178 697 c 0
 208 721 261 749 298 749 c 3
EndSplineSet
Fore
SplineSet
298 749 m 3
 335 749 378 741 410 721 c 1
 415 688 385 651 364 637 c 1
 329 657 294 670 266 670 c 3
 210 670 195.860016863 639.020118044 184 556 c 0
 175.463484157 496.244389097 170 357.867754667 170 304 c 3
 170 233 177 134 185 92 c 0
 189 71 199.005847009 65.1107862773 219 64 c 0
 237 63 257 62 275 61 c 1
 270 -8 l 1
 227 -3 167 1 118 1 c 3
 87 1 39 -4 11 -7 c 1
 9 59 l 1
 21 60 34.9833448914 60.1026334039 47 62 c 0
 66 65 73.106766919 68.9840225684 75 82 c 0
 83 137 87 214 87 280 c 3
 87 307 87 388 85 437 c 1
 61.3116883117 437 35.6493506494 437 9 437 c 1
 9 493 l 1
 33.6621621622 494 60.2972972973 497 82 499 c 1
 80 534 79 545 79 558 c 3
 79 614 126.291388649 655.63311092 178 697 c 0
 208 721 261 749 298 749 c 3
EndSplineSet
Substitution2: "pcap-1" s.pcap
Substitution2: "smcp-1" s.smcp
EndChar
StartChar: Ohorn
Encoding: 416 416 758
Width: 819
VWidth: 1159
UnlinkRmOvrlpSave: 1
Flags: HW
HStem: -16 72<346.672 526.99> 594.133 32.8672<626.38 718.511> 616 73<284.654 475.048>
VStem: 46 119<261.919 449.449> 653 115<214.618 413.376> 752 88.6436<675.042 757.455>
AnchorPoint: "Top" 420 699 basechar 0
AnchorPoint: "Bottom" 416 -15 basechar 0
AnchorPoint: "Middle" 417.697 364.853 basechar 0
LayerCount: 2
Fore
SplineSet
709.169921875 659.771484375 m 7xf4
 709.169921875 678.1171875 698.01171875 695.48046875 676.060546875 716.443359375 c 5
 698.998046875 751.08203125 731.950195312 770.768554688 763.627929688 770.768554688 c 7
 813.848632812 770.768554688 842.83203125 730.809570312 842.83203125 686.196289062 c 7
 842.83203125 608.349609375 749.942382812 553.314453125 675.782226562 553.314453125 c 7
 653.22265625 553.314453125 636.084960938 555.923828125 622.26953125 560.771484375 c 5
 613.138671875 570.870117188 586.766601562 620.385742188 582.537109375 639.822265625 c 5
 608.809570312 625.446289062 643.837890625 611.948242188 670.1640625 611.948242188 c 7
 686.879882812 611.948242188 709.169921875 628.670898438 709.169921875 659.771484375 c 7xf4
EndSplineSet
Refer: 40 79 N 1 0 0 1 0 0 2
Position2: "cpsp-1" dx=0 dy=0 dh=50 dv=100
Substitution2: "c2pc-1" ohorn.pcap
Substitution2: "c2sc-1" ohorn.smcp
EndChar
StartChar: ohorn
Encoding: 417 417 448
Width: 600
UnlinkRmOvrlpSave: 1
Flags: HW
HStem: -11 74<238.172 378.082> 418.221 53.3037<406.657 490.265> 440 77<196.925 337.408>
VStem: 32.4893 100<179.83 346.467> 438.489 104<152.433 329.656> 496.489 121.511<479.563 576.539>
AnchorPoint: "Middle" 287.187 252.853 basechar 0
AnchorPoint: "Bottom" 280.489 -15 basechar 0
AnchorPoint: "Top" 277.489 537 basechar 0
LayerCount: 2
Fore
SplineSet
381.369140625 496.864257812 m 1xd4
 405.252929688 483.794921875 437.096679688 471.524414062 461.029296875 471.524414062 c 3
 476.225585938 471.524414062 496.489257812 486.7265625 496.489257812 515 c 3
 496.489257812 531.677734375 486.345703125 547.462890625 466.389648438 566.520507812 c 1
 487.2421875 598.009765625 517.19921875 615.90625 545.997070312 615.90625 c 3
 591.651367188 615.90625 618 579.580078125 618 539.022460938 c 3
 618 468.252929688 533.5546875 418.220703125 466.13671875 418.220703125 c 3
 445.115234375 418.220703125 429.427734375 422.594726562 417.489257812 430.490234375 c 1
 397.248046875 443.875976562 387.783203125 467.384765625 381.369140625 496.864257812 c 1xd4
EndSplineSet
Refer: 14 111 N 1 0 0 1 2.48926 0 2
Substitution2: "smcp-1" ohorn.smcp
Substitution2: "pcap-1" ohorn.pcap
EndChar
StartChar: Uhorn
Encoding: 431 431 760
Width: 824
UnlinkRmOvrlpSave: 1
Flags: W
HStem: -13 88<308.037 549.516> 601.263 75.5498<716.677 794.94> 613 73<49.3288 109.652 222.011 277.8>
VStem: 109 113<150.891 608.316> 635 80<158.27 603.114> 799.28 137.914<681.842 764.065>
AnchorPoint: "Ogonek" 499.65 23.6582 basechar 0
AnchorPoint: "Top" 423 679 basechar 0
AnchorPoint: "Bottom" 420 -15 basechar 0
LayerCount: 2
Back
SplineSet
784 642 m 0xc6
 761.478546471 636.66795393 740.04456668 635.741559345 736 590 c 0xc6
 735.091705198 579.727744928 731.787772597 469.658489995 729 255 c 0
 728 178 703.339117404 117.635735037 662 74 c 0
 608 17 523 -10 412 -10 c 3
 299 -10 220.090904911 16.0950453125 172 62 c 0
 128 104 109 163 109 236 c 0xea
 109 266.168539326 114 578.915730337 114 594 c 0
 114 638 102 641 20 650 c 1
 25 690 l 1
 55 686.5 103.25 684.75 154.125 684.75 c 0
 205 684.75 258.5 686.5 299 690 c 1
 303 654 l 1
 235 648 204 646.009090158 204 591 c 0xd2
 204 583.958083832 196 287.191616766 196 255 c 0
 196 196 207.684535021 144.717092872 240 109 c 0
 278 67 345 44 453 44 c 3
 479 44 562.229152898 44.763500117 619 100 c 0
 656 136 668.983205589 181.001106759 674 257 c 0xea
 680 347.893371758 678.9219485 497.10161583 675 589 c 0
 673 635.863636364 645 650.568181818 579 652 c 1
 581 692 l 1
 621.355554481 685.58960168 705.122701859 680.796875 775.796875 680.796875 c 3
 803.822832579 680.796875 835.9140625 687.672407215 835.9140625 719.4453125 c 3
 835.9140625 734.991660599 824.343297353 747.24382169 805.458984375 760.080078125 c 1
 817.774221442 790.721679688 842.434890552 810 869 810 c 3
 906.495832074 810 931.1015625 781.841796875 931.1015625 752.943359375 c 3
 931.1015625 671.477853735 849.800683128 657.57858037 784 642 c 0xc6
EndSplineSet
Fore
SplineSet
788.526367188 601.262695312 m 0xdc
 760.415039062 601.262695312 715 608.043945313 715 597 c 0
 715 583 720 468 716 246 c 0
 715 167 692 105 647 62 c 0
 595 11 514 -13 419 -13 c 0
 303 -13 223 14 173 61 c 0
 131 101 117 161 113 229 c 0
 111 266 114 581 109 596 c 0
 106 608 95 608 43 613 c 1
 50 686 l 1
 78 681 123 679 169 679 c 0
 208 679 247 681 277 685 c 1
 285 616 l 1
 237 610 222 618 222 602 c 0
 222 586 219 387 225 250 c 0
 227 201 230 158 258 130 c 0
 292 95 344 75 454 75 c 0
 473 75 542 79 587 121 c 0
 617 148 628 186 633 246 c 0
 641 337 636 506 635 601 c 0
 635 617 617 612 574 613 c 1
 576 686 l 1xbc
 616.848609908 678.43544261 703.479492188 676.8125 754.331054688 676.8125 c 3
 772.264648438 676.8125 799.280273438 685.587890625 799.280273438 717.12109375 c 0
 799.280273438 731.131835938 793.651367188 742.107421875 783.092773438 761.728515625 c 1
 806.856445312 780.599609375 833.231445312 790.231445312 857.461914062 790.231445312 c 0
 908.838867188 790.231445312 937.194335938 751.4296875 937.194335938 712.498046875 c 0
 937.194335938 633.875 856.580078125 601.262695312 788.526367188 601.262695312 c 0xdc
EndSplineSet
Position2: "cpsp-1" dx=0 dy=0 dh=50 dv=100
Substitution2: "c2pc-1" uhorn.pcap
Substitution2: "c2sc-1" uhorn.smcp
EndChar
StartChar: uhorn
Encoding: 432 432 449
Width: 608
UnlinkRmOvrlpSave: 1
Flags: HW
HStem: -22 94<410.989 489.989> -8 84<191.538 302.243> 378 64<19.5049 65.7602> 407 63<337.489 375.163> 497 20G<129.489 170.489>
VStem: 76.4893 90<101.045 381.305> 377.489 87<102.339 407.304> 518.489 121.511<489.459 580.539>
AnchorPoint: "Top" 282.489 537 basechar 0
AnchorPoint: "Ogonek" 432.489 18 basechar 0
AnchorPoint: "Bottom" 281.489 -15 basechar 0
LayerCount: 2
Fore
SplineSet
422.489257812 471 m 1x0f
 440.640625 475.491210938 464.840820312 480.524414062 483.029296875 485.524414062 c 1
 498.225585938 487.524414062 518.489257812 497.23046875 518.489257812 519 c 1
 518.489257812 535.677734375 508.345703125 551.462890625 488.389648438 570.520507812 c 1
 509.2421875 602.009765625 539.19921875 619.90625 567.997070312 619.90625 c 3
 613.651367188 619.90625 640 583.580078125 640 543.022460938 c 3
 640 473.880859375 559.489257812 437 476.489257812 425 c 1
 467.237304688 425 459.693359375 425.645507812 453.489257812 427.057617188 c 0
 432.89453125 431.748046875 427.0625 444.899414062 422.489257812 471 c 1x0f
322.489257812 470 m 1x5f
 377.88671875 474.049804688 437.806640625 479.44921875 483.029296875 485.524414062 c 1
 494.489257812 477 l 1
 472.489257812 438 464.489257812 286 464.489257812 168 c 3
 464.489257812 139 463.489257812 111 471.489257812 85 c 1
 474.489257812 74 478.489257812 72 485.489257812 72 c 3
 494.489257812 72 512.489257812 76 523.489257812 78 c 1
 535.489257812 19 l 1
 516.489257812 11 468.254882812 -5.1171875 444.489257812 -17 c 0
 442.489257812 -18 432.489257812 -22 426.489257812 -22 c 3x9f
 395.489257812 -22 382.489257812 23 377.489257812 50 c 1
 331.489257812 26 269.489257812 -8 212.489257812 -8 c 3
 168.489257812 -8 124.489257812 14 100.489257812 53 c 1
 83.4892578125 84 76.4892578125 116 76.4892578125 168 c 3
 76.4892578125 224 75.4892578125 319 76.4892578125 376 c 1
 76.4892578125 381 75.4892578125 383 71.4892578125 383 c 3
 65.4892578125 383 39.4892578125 380 20.4892578125 378 c 1
 11.4892578125 442 l 1x6f
 55.4892578125 451 107.489257812 487 151.489257812 517 c 1
 189.489257812 477 l 1
 167.489257812 406 166.489257812 287 166.489257812 204 c 3
 166.489257812 126 180.489257812 76 248.489257812 76 c 3
 283.489257812 76 339.489257812 94 371.489257812 108 c 1
 366.489257812 196 377.489257812 386 377.489257812 396 c 3
 377.489257812 411 371.489257812 410 337.489257812 407 c 1
 322.489257812 470 l 1x5f
EndSplineSet
Substitution2: "smcp-1" uhorn.smcp
Substitution2: "pcap-1" uhorn.pcap
EndChar
StartChar: uni01EA
Encoding: 490 490 308
Width: 819
VWidth: 0
UnlinkRmOvrlpSave: 1
Flags: HW
HStem: -177.1 78.1279<408.688 510.275> -16 72<346.672 526.99> 0.443359 50.457<472.326 490.784> 616 73<284.654 475.048>
VStem: 46 119<261.919 449.449> 335.79 98.4385<-124.77 -35.2369> 653 115<214.618 413.376>
AnchorPoint: "Middle" 417.697 364.853 basechar 0
AnchorPoint: "Top" 420 699 basechar 0
LayerCount: 2
Fore
SplineSet
512.859375 0.443359375 m 1xbe
 444.530182616 -27.7845146261 434.228515625 -54.6356351534 434.228515625 -67.099609375 c 3
 434.228515625 -87.1086024517 447.544765679 -98.9716796875 464.39453125 -98.9716796875 c 3
 476.573365676 -98.9716796875 491.196167184 -96.3918459311 506.201171875 -90.69921875 c 1
 506.201171875 -90.69921875 527.154062565 -118.986437988 532.228515625 -141.099609375 c 1
 509.197313492 -166.10445148 470.394435976 -177.099609375 435 -177.099609375 c 3
 382.375302063 -177.099609375 335.790039062 -148.606137637 335.790039062 -100.934570312 c 3
 335.790039062 -46.9898600729 378.144003379 16.1539361981 487.228515625 50.900390625 c 1
 512.859375 0.443359375 l 1xbe
EndSplineSet
Refer: 40 79 N 1 0 0 1 0 0 3
Position2: "cpsp-1" dx=0 dy=0 dh=50 dv=100
EndChar
StartChar: uni01EB
Encoding: 491 491 309
Width: 550
VWidth: 0
UnlinkRmOvrlpSave: 1
Flags: HW
HStem: -177.1 75.1279<264.727 351.339> -11 74<225.683 365.593> 440 77<184.436 324.919>
VStem: 20 100<179.83 346.467> 205.79 79.4385<-124.77 -28.8901> 426 104<152.433 329.656>
AnchorPoint: "Top" 275 537 basechar 0
LayerCount: 2
Fore
SplineSet
362.859375 5.443359375 m 1
 295.399169588 -24.8741380557 285.228515625 -53.7129651514 285.228515625 -67.099609375 c 3
 285.228515625 -88.9919749042 298.544765679 -101.971679688 315.39453125 -101.971679688 c 3
 324.368918328 -101.971679688 335.144225415 -98.4562717014 346.201171875 -90.69921875 c 1
 346.201171875 -90.69921875 367.154062565 -118.986437988 372.228515625 -141.099609375 c 1
 351.802960835 -166.10445148 317.390067574 -177.099609375 286 -177.099609375 c 3
 243.453617298 -177.099609375 205.790039062 -148.606137637 205.790039062 -100.934570312 c 3
 205.790039062 -41.213434212 242.550449445 20.0097183509 337.228515625 55.900390625 c 1
 362.859375 5.443359375 l 1
EndSplineSet
Refer: 14 111 N 1 0 0 1 0 0 3
Substitution2: "case-1" uni01EA
EndChar
StartChar: uni0222
Encoding: 546 546 1751
Width: 618
UnlinkRmOvrlpSave: 1
Flags: HW
HStem: -7 69.3418<245.951 408.615> 618.404 55.5957<210.212 236.714> 687.332 57.3232<349 380.924>
VStem: 36 111.058<162.404 302.286> 96.0576 105.371<521.501 609.21> 414.314 95.6855<528.127 649.83> 467.942 114.058<135.584 296.075>
LayerCount: 2
Fore
SplineSet
241.771484375 618.404296875 m 1xea
 222.725312216 618.404296875 201.428710938 593.832327728 201.428710938 573.482421875 c 3
 201.428710938 512.534346586 264.811166812 487.026869029 330.124023438 476 c 0
 466.392566375 452.993574415 582 350.3513408 582 236.216796875 c 3xea
 582 90.0195062727 463.311284637 -7 305.713867188 -7 c 3
 165.943405299 -7 36 69.6120896794 36 214.11328125 c 3
 36 332.827374418 147.808024001 423.97973964 252 452.397460938 c 1
 268.490529486 464.685289361 284.790280065 472.67979361 300.42578125 476 c 1
 370.806542216 481.401787916 414.314453125 531.856160649 414.314453125 579.088867188 c 3
 414.314453125 615.245985302 392.724199369 679.503223464 341 687.33203125 c 1
 349 744.655273438 l 1
 424.947612627 741.612304688 510 700.469726562 510 599.005859375 c 3
 510 530.984898037 453.689357805 468.09270969 374 441.709960938 c 1
 356.446693614 428.538253115 337.759061186 419.38154818 318.2890625 415 c 1
 233.463102003 406.373933767 147.057617188 331.920339696 147.057617188 250.57421875 c 3xf4
 147.057617188 157.424902526 219.0098014 62.341796875 324.314453125 62.341796875 c 3
 453.105375615 62.341796875 467.942382812 165.736386512 467.942382812 210.11328125 c 3
 467.942382812 300.968382551 403.697854047 382.600710396 298.077148438 403.515625 c 0
 187.436945495 425.424495832 96.0576171875 476.221331764 96.0576171875 548.581054688 c 3
 96.0576171875 617.477539062 175.924929355 674 236.713867188 674 c 1
 241.771484375 618.404296875 l 1xea
EndSplineSet
Substitution2: "c2pc-1" uni0223.pcap
Substitution2: "c2sc-1" uni0223.smcp
EndChar
StartChar: uni0237
Encoding: 567 567 52
Width: 242
VWidth: 1159
Flags: HMW
AnchorPoint: "Top" 145 537 basechar 0
LayerCount: 2
Fore
SplineSet
-36 -175 m 1
 -32 -117 -18 -85 20 -52 c 0
 41 -34 63 -11 71 18 c 0
 73 25 84 66 84 147 c 3
 84 270 82 348 77 379 c 0
 75 391 68 392 61 392 c 3
 57 392 40 387 32 386 c 1
 20 449 l 1
 75 458 104 470 153 514 c 1
 201 498 l 1
 196 481 187 447 184 428 c 0
 177.933333333 388 171 275 171 257 c 3
 171 183.750432527 177 92 177 57 c 3
 177 4 163.896860009 -33.2895758332 143 -57 c 0
 119.857142857 -88 83.2142857143 -110 62 -128 c 0
 50 -138 37 -156 38 -175 c 1
 -36 -175 l 1
EndSplineSet
Validated: 33
EndChar
StartChar: uni0253
Encoding: 595 595 1992
Width: 507
Flags: HW
HStem: -9 45<176.282 316.246> 369 43<190.188 315.819> 661 107<253.336 313.412>
VStem: 71 66<69.4004 345.78 368 632.757> 398 69<132.207 275.055>
LayerCount: 2
Fore
SplineSet
137 332 m 1
 136 241 135 189 135 98 c 3
 135 92 139.047711202 85.0552192754 146 79 c 0
 177 52 219 36 260 36 c 3
 337 36 398 96 398 180 c 3
 398 270 344 369 243 369 c 3
 199 369 147 342 137 332 c 1
71 512 m 3
 71 606.576271186 91.6664492122 649.938384759 140 697 c 0
 178 734 266.484375 767.183908046 274 768 c 1
 295 768 329 740 329 713 c 3
 329 682 300 661 261 661 c 1
 252.882352941 694.75 235.294117647 701 215 701 c 3
 201.829268293 701 171.484739915 687.682705237 155 669 c 0
 140 652 140 563.432989691 140 541 c 0
 140 502 137 484 137 368 c 1
 170 382 226 412 286 412 c 3
 391 412 467 315 467 223 c 3
 467 94 351 -9 210 -9 c 3
 148 -9 141 15 108 15 c 3
 85 15 70 -3 63 -10 c 1
 45 2 l 1
 47 8 51.8855176995 21.6565530986 55 31 c 0
 61 40.9473684211 67.3038468848 51.9981262905 68 94 c 0
 69.5 257.764383562 71 348.235616438 71 512 c 3
EndSplineSet
EndChar
StartChar: uni025B
Encoding: 603 603 1188
Width: 444
Flags: HW
HStem: -12 84.6396<202.772 342.945> 210 75<233.655 340.561> 434 81.0801<166.777 287.936>
VStem: 34.7197 131.28<105.969 195.465> 58.2803 103.72<336.954 423.018>
AnchorPoint: "Bottom" 243 -15 basechar 0
AnchorPoint: "Top" 252 537 basechar 0
LayerCount: 2
Back
SplineSet
350 370 m 1
 336 384 275 431 232 431 c 3
 162 431 116 367 116 274 c 3
 116 169 185 79 278 79 c 3
 318 79 344 95 379 122 c 1
 421 56 l 1
 372 24 316 -10 249 -10 c 3
 190 -10 20 40 20 230 c 3
 20 389 133 516 269 516 c 3
 335 516 399 485 422 464 c 1
 407 399 418 404 350 370 c 1
EndSplineSet
Fore
SplineSet
350.120117188 368.080078125 m 1xe8
 311.465121634 401.040039062 259.586048653 434 225 434 c 3
 181.384615385 434 162 418 162 394 c 3xe8
 162 345.449541284 185.275862069 299.591326105 312 286 c 1
 312 260.137931034 310 234.275862069 308 211 c 1
 170.395097632 216.037037037 166 190.482103267 166 153 c 3
 166 110.141145833 214.156419837 72.6396484375 276.759765625 72.6396484375 c 3
 318.961790707 72.6396484375 354.671196546 94.4799804688 379.559570312 116.3203125 c 1
 420.400390625 54.080078125 l 1
 382.533637153 27.7789884868 316.823682598 -12 250 -12 c 3
 121.391005479 -12 34.7197265625 54.9321240718 34.7197265625 141.639648438 c 3xf0
 34.7197265625 174.58312016 70 228 128 248 c 1
 78.2001953125 274.441452206 58.2802734375 318.911167279 58.2802734375 350.16015625 c 3
 58.2802734375 444.400111607 158.720180377 515.080078125 269.080078125 515.080078125 c 3
 325.974975586 515.080078125 384.055183411 490.279932776 420.799804688 461.759765625 c 1
 409 400 415 401 350.120117188 368.080078125 c 1xe8
EndSplineSet
EndChar
StartChar: uni027E
Encoding: 638 638 1992
Width: 358
Flags: HW
HStem: -5 33<29.5758 59.5305 179.197 273> 316 107<273.336 333.412>
VStem: 87 73<52.5022 281.944>
AnchorPoint: "Top" 165.5 465 basechar 0
AnchorPoint: "Bottom" 145 -15 basechar 0
LayerCount: 2
Fore
SplineSet
160 352 m 0
 198 389 286.484375 422.183908046 294 423 c 1
 315 423 349 395 349 368 c 3
 349 337 320 316 281 316 c 1
 272.882352941 349.75 255.294117647 356 235 356 c 3
 221.829268293 356 188.816323543 344.734013813 175 324 c 0
 160 307 160 218.432989691 160 196 c 0
 160 157 161.185553521 61.3773357746 169 52 c 0
 179 40 189.018145158 36.3113659276 226 34 c 0
 242 33 260 33 274 32 c 1
 273 0 l 1
 234 1 162 4 120 4 c 3
 90 4 60 -1 30 -5 c 1
 28 28 l 1
 39 29 50 29 60 33 c 0
 70 37 84.7614449357 48.0180616964 87 76 c 0
 89 101 91 192 91 218 c 3
 91 261.152542373 119.735258602 312.794857059 160 352 c 0
EndSplineSet
EndChar
StartChar: gravecomb
Encoding: 768 768 94
Width: 0
VWidth: 1159
Flags: W
HStem: 569.951 193.429
VStem: -346.611 230.611
AnchorPoint: "TopMark" -185 768 basemark 0
AnchorPoint: "TopMark" -180 537 mark 0
AnchorPoint: "Top" -174 537 mark 0
LayerCount: 2
Fore
SplineSet
-116 613.625 m 1
 -141.669921875 569.951171875 l 1
 -208.39453125 618.27734375 -282.224609375 658.897460938 -346.611328125 683 c 1
 -329.452148438 725.131835938 -300.400390625 763.379882812 -300.400390625 763.379882812 c 1
 -238.754882812 725.711914062 -157.262695312 657.84765625 -116 613.625 c 1
EndSplineSet
Validated: 1
EndChar
StartChar: acutecomb
Encoding: 769 769 92
Width: 0
Flags: HW
HStem: 569.951 193.429
VStem: -232.611 230.611
AnchorPoint: "Top" -174 537 mark 0
AnchorPoint: "TopMark" -180 537 mark 0
AnchorPoint: "TopMark" -185 768 basemark 0
LayerCount: 2
Fore
SplineSet
-232.611328125 613.625 m 1
 -191.348220325 657.84751608 -109.856469681 725.712153957 -48.2109375 763.379882812 c 1
 -48.2109375 763.379882812 -19.1595663114 725.132086187 -2 683 c 1
 -66.3864957766 658.897178037 -140.216317355 618.277768662 -206.94140625 569.951171875 c 1
 -232.611328125 613.625 l 1
EndSplineSet
EndChar
StartChar: uni0302
Encoding: 770 770 93
Width: 0
Flags: HW
HStem: 576 155.801
VStem: -318.7 288.5
AnchorPoint: "TopMark" -179 768 basemark 0
AnchorPoint: "TopMark" -180 537 mark 0
AnchorPoint: "Top" -174 537 mark 0
LayerCount: 2
Fore
SplineSet
-30.2001953125 612.200195312 m 1
 -73 576 l 1
 -174.950195312 649.981445312 l 1
 -275.900390625 576 l 1
 -318.700195312 612.200195312 l 1
 -199.900390625 731.80078125 l 1
 -150 731.80078125 l 1
 -30.2001953125 612.200195312 l 1
EndSplineSet
EndChar
StartChar: tildecomb
Encoding: 771 771 100
Width: 0
Flags: HW
HStem: 582.408 86<-160.669 -92.0489> 629.746 85.4463<-245.514 -172.34>
VStem: -317.416 294.106
AnchorPoint: "TopMark" -185 768 basemark 0
AnchorPoint: "TopMark" -180 537 mark 0
AnchorPoint: "Top" -174 537 mark 0
LayerCount: 2
Fore
SplineSet
-317.416015625 601.708984375 m 1x60
 -289.614860112 666.190916225 -247.625625234 715.192382812 -240.600585938 715.192382812 c 3x60
 -200.552923824 715.192382812 -128.795543932 668.408203125 -115.815429688 668.408203125 c 3
 -106.215271394 668.408203125 -85.7889345928 693.53091314 -74.59375 724.178710938 c 1
 -23.3095703125 700.893554688 l 1
 -43.0160134907 641.043630573 -80.722396108 582.408203125 -92.482421875 582.408203125 c 3xa0
 -130.423202617 582.408203125 -204.374879275 629.74609375 -222.263671875 629.74609375 c 3
 -234.089762674 629.74609375 -252.489903949 597.894982291 -265 578 c 1
 -317.416015625 601.708984375 l 1x60
EndSplineSet
EndChar
StartChar: uni0306
Encoding: 774 774 105
Width: 0
Flags: HW
HStem: 576 76.7188<-248.603 -101.114>
VStem: -327.152 305.357
AnchorPoint: "Top" -174 537 mark 0
AnchorPoint: "TopMark" -180 537 mark 0
AnchorPoint: "TopMark" -179 768 basemark 0
LayerCount: 2
Fore
SplineSet
-327.15234375 685.375 m 1
 -279.072265625 713.135742188 l 1
 -264.143274579 672.900429107 -219.575301308 652.71875 -174.861328125 652.71875 c 3
 -130.240051195 652.71875 -85.4747733721 672.815654398 -69.8759765625 713.135742188 c 1
 -21.794921875 685.375 l 1
 -43.9987530778 612.458 -109.600301999 576 -175 576 c 3
 -240.467693038 576 -305.733900966 612.458 -327.15234375 685.375 c 1
EndSplineSet
EndChar
StartChar: hookabovecomb
Encoding: 777 777 748
Width: 0
Flags: HW
HStem: 577 21G<-198.656 -140> 667 60<-225.106 -173.31>
VStem: -173 68.5<635.662 666.626>
AnchorPoint: "Top" -174 537 mark 0
AnchorPoint: "TopMark" -180 537 mark 0
AnchorPoint: "TopMark" -179 768 basemark 0
LayerCount: 2
Back
SplineSet
-205.490707048 548.291192598 m 1
 -206.35449436 545.111806435 -207.217356733 540.725275478 -207.431415792 539.365497563 c 1
 -219.612139691 537.625394149 l 1
 -219.783291811 538.518058936 -219.888330541 539.336628014 -219.890138969 539.350929538 c 1
 -217.804325289 541.10095615 -212.45945402 544.153405485 -205.490707048 548.291192598 c 1
-178.557772823 578.684212454 m 1
 -177.649276238 582.358475381 -177 586.699310852 -177 590 c 0
 -177 610.435556597 -195.037776058 627.657056537 -217.310941642 628.988172326 c 1
 -216.787406798 628.999849025 -216.520994373 629 -216 629 c 0
 -183.670923868 629 -168.5 603.432654437 -168.5 595 c 0
 -168.5 589.911203194 -170.787775371 585.746078883 -178.557772823 578.684212454 c 1
EndSplineSet
Fore
SplineSet
-258.5 687 m 1
 -250.575471698 707.262295082 -215.815748428 727 -180 727 c 3
 -133.817899281 727 -104.5 691.619 -104.5 665 c 3
 -104.5 626.169141162 -133.054200309 609.854379979 -139 598 c 0
 -140.894748132 594.222364444 -139.571428571 589.387023926 -140 585 c 1
 -196 577 l 1
 -201.311197917 583.678839917 -208 598.12031987 -208 611 c 3
 -208 638.829844599 -173 640.074818182 -173 660 c 3
 -173 663.035590164 -176.072058824 667 -183 667 c 3
 -189.39424 667 -200.54528 660.068617768 -206.5 653.599609375 c 1
 -215.495449735 653.599609375 -246.291555556 661.551977674 -258.5 687 c 1
EndSplineSet
EndChar
StartChar: uni030A
Encoding: 778 778 98
Width: 0
Flags: HW
HStem: 562 53.6064<-218.185 -134.971> 715.864 51.6064<-217.625 -134.424>
VStem: -280.22 53.2266<624.785 706.198> -125.007 50.2266<625.75 706.026>
AnchorPoint: "TopMark" -185 752 basemark 0
AnchorPoint: "TopMark" -180 537 mark 0
AnchorPoint: "Top" -174 537 mark 0
LayerCount: 2
Fore
SplineSet
-176 715.864257812 m 3
 -202.477503141 715.864257812 -226.993164062 694.712805154 -226.993164062 665.870117188 c 3
 -226.993164062 635.711216989 -203.457857572 615.606445312 -176 615.606445312 c 3
 -149.522496859 615.606445312 -125.006835938 636.757897971 -125.006835938 665.600585938 c 3
 -125.006835938 693.748428074 -148.542142428 715.864257812 -176 715.864257812 c 3
-176 767.470703125 m 3
 -121.497070312 767.470703125 -74.7802734375 722.479326021 -74.7802734375 665.220703125 c 3
 -74.7802734375 605.670297476 -123.443603516 562 -176 562 c 3
 -232.118314303 562 -280.219726562 603.3 -280.219726562 665.25 c 3
 -280.219726562 724.222158813 -230.114088792 767.470703125 -176 767.470703125 c 3
EndSplineSet
EndChar
StartChar: uni0314
Encoding: 788 788 694
Width: 0
Flags: HW
HStem: 569 149<-187.67 -157.637>
VStem: -251 102<623.839 703.8>
AnchorPoint: "Top" -174 537 mark 0
AnchorPoint: "TopMark" -180 537 mark 0
AnchorPoint: "TopMark" -179 768 basemark 0
LayerCount: 2
Fore
SplineSet
-141 569 m 1
 -210.884991153 591.731507195 -251 639.570364627 -251 662 c 3
 -251 671.341428756 -247.906732102 677.587524509 -243 686 c 0
 -238.191312985 694.244379521 -234.352808439 698.463222435 -228 705 c 0
 -218.989078026 714.271866635 -209.427666545 718 -199 718 c 3
 -192.568316832 718 -186.952698596 715.739114348 -183 714 c 0
 -173.607989527 709.867688928 -162.662701471 703.208872594 -156 695 c 0
 -152.12844083 690.229992503 -149 685.307040928 -149 677 c 3
 -149 674.600163088 -150.232351854 672.151472219 -151 671 c 0
 -153.321244197 667.518133704 -155.948571489 664.994285429 -157 660 c 0
 -161 641 -137.865441527 624.435512276 -115 612 c 1
 -141 569 l 1
EndSplineSet
EndChar
StartChar: uni0315
Encoding: 789 789 113
Width: 0
Flags: HW
HStem: 442.494 214.751
VStem: -118 141.25
AnchorPoint: "TopRight" -110.5 531 mark 0
LayerCount: 2
Fore
SplineSet
-59.75 657.245 m 13
 23.25 639.245117188 l 5
 9.0849609375 577.094726562 -14.2685546875 493.133789062 -77 442.494140625 c 13
 -118 464.494140625 l 5
 -79.029296875 521.860351562 -68.2984 587.855 -59.75 657.245 c 13
EndSplineSet
EndChar
StartChar: uni031B
Encoding: 795 795 99
Width: 0
Flags: HW
HStem: 330 18<-84.5 -47.4434>
VStem: 12.8818 62.7432<400.38 466.056>
AnchorPoint: "Horn" -113.5 453.8 mark 0
LayerCount: 2
Fore
SplineSet
-66 515 m 3xf4
 -66 531.677734375 -76.143554688 547.462890625 -96.099609375 566.520507812 c 1
 -75.247070312 598.009765625 -45.290039062 615.90625 -16.4921875 615.90625 c 3
 29.1621093747 615.90625 55.5107421875 579.580078125 55.5107421875 539.022460938 c 3
 55.5107421875 468.252707867 -28.9346209115 418.220703125 -96.3525390625 418.220703125 c 3
 -116.861328125 418.220703125 -132.440429688 420.592605924 -145 425 c 1
 -153.30078125 434.180333272 -177.275390625 479.194414219 -181.120117188 496.864257812 c 1
 -157.236328125 483.794921875 -125.392578125 471.524414062 -101.459960938 471.524414062 c 3
 -86.2633454517 471.524414062 -66 486.726842612 -66 515 c 3xf4
EndSplineSet
EndChar
StartChar: uni0327
Encoding: 807 807 268
Width: 0
VWidth: 1159
UnlinkRmOvrlpSave: 1
Flags: W
HStem: -172 50.1914<-278.966 -212.797>
VStem: -209.825 76.4277<-122.225 -75.0357>
AnchorPoint: "Bottom" -193 -15 mark 0
LayerCount: 2
Fore
SplineSet
-283 -172 m 5
 -278.965820312 -121.80859375 l 5
 -243.574404884 -125.244627242 -209.825195312 -125.382709688 -209.825195312 -103.997070312 c 7
 -209.825195312 -92.6079730485 -216.150321394 -86.1115385651 -221.4609375 -82.1259765625 c 5
 -252.948242188 -59.4599609375 l 5
 -250.535248801 -57.698392598 -248.042839695 -55.045495327 -245.346679688 -52.0732421875 c 4
 -229.045341594 -34.1026086957 -221.092316902 -26.9686956522 -201 -2 c 5
 -141 6 l 5
 -141 6 -165.584014487 -42.1562847527 -168.897460938 -50.92578125 c 5
 -151.354332095 -59.8466796875 -133.397460938 -72.059792339 -133.397460938 -103.42578125 c 7
 -133.397460938 -156.707176565 -216.974575919 -185.889577706 -283 -172 c 5
EndSplineSet
EndChar
StartChar: uni0328
Encoding: 808 808 254
Width: 0
Flags: W
HStem: -177 75.1279<-194.502 -107.89>
VStem: -253.438 79.4385<-124.671 -30.2807>
AnchorPoint: "Ogonek" -104.35 21.6582 mark 0
LayerCount: 2
Fore
SplineSet
-95.369140625 5.54296875 m 5
 -163.698333009 -24.7745286807 -174 -53.6133557764 -174 -67 c 7
 -174 -88.8923655292 -160.683749946 -101.872070312 -143.833984375 -101.872070312 c 7
 -134.859597297 -101.872070312 -124.08429021 -98.3566623264 -113.02734375 -90.599609375 c 5
 -113.02734375 -90.599609375 -92.0744530605 -118.886828613 -87 -141 c 5
 -107.42555479 -166.004842105 -141.838448051 -177 -173.228515625 -177 c 7
 -215.774898327 -177 -253.438476562 -148.506528262 -253.438476562 -100.834960938 c 7
 -253.438476562 -45.113824837 -216.398388483 20.1093277259 -121 56 c 5
 -95.369140625 5.54296875 l 5
EndSplineSet
EndChar
StartChar: uni032B
Encoding: 811 811 696
Width: 0
VWidth: 1159
Flags: W
HStem: -153.727 66.7197<-280.97 -228.431 -161.209 -109.222>
VStem: -343 296.179
AnchorPoint: "Bottom" -193 -15 mark 0
LayerCount: 2
Fore
SplineSet
-343 -48.3505859375 m 5
 -286.7421875 -44.58984375 l 5
 -282.212127409 -72.8381679942 -268.688786136 -87.0068359375 -255.12109375 -87.0068359375 c 7
 -241.502525149 -87.0068359375 -227.839385775 -73.8950491223 -223.079101562 -47.58984375 c 5
 -166.7421875 -47.58984375 l 5
 -162.212127409 -73.8401846114 -148.689410799 -87.0068359375 -135.12109375 -87.0068359375 c 7
 -121.502498468 -87.0068359375 -107.839520653 -72.8970603852 -103.079101562 -44.58984375 c 5
 -46.8212890625 -48.3505859375 l 5
 -59.0497522792 -118.600703648 -95.1783435834 -153.7265625 -131.196289062 -153.7265625 c 7
 -155.271057504 -153.7265625 -179.29152706 -140.452148438 -195.0546875 -113.903320312 c 5
 -211.021961501 -140.452148438 -235.13530909 -153.7265625 -259.196289062 -153.7265625 c 7
 -295.255281421 -153.7265625 -331.201911027 -118.600703648 -343 -48.3505859375 c 5
EndSplineSet
Validated: 1
EndChar
StartChar: uni0357
Encoding: 855 855 2016
Width: 0
Flags: W
HStem: 562 56<-182 -136.958> 712 56<-182 -135.818>
VStem: -128 56<626.501 703.97>
AnchorPoint: "Top" -157 537 mark 0
AnchorPoint: "TopMark" -163 537 mark 0
AnchorPoint: "TopMark" -168 752 basemark 0
LayerCount: 2
Back
SplineSet
-176 715.864257812 m 3
 -202.477503141 715.864257812 -226.993164062 694.712805154 -226.993164062 665.870117188 c 3
 -226.993164062 635.711216989 -203.457857572 615.606445312 -176 615.606445312 c 3
 -149.522496859 615.606445312 -125.006835938 636.757897971 -125.006835938 665.600585938 c 3
 -125.006835938 693.748428074 -148.542142428 715.864257812 -176 715.864257812 c 3
-176 767.470703125 m 3
 -121.497070312 767.470703125 -74.7802734375 722.479326021 -74.7802734375 665.220703125 c 3
 -74.7802734375 605.670297476 -123.443603516 562 -176 562 c 3
 -232.118314303 562 -280.219726562 603.3 -280.219726562 665.25 c 3
 -280.219726562 724.222158813 -230.114088792 767.470703125 -176 767.470703125 c 3
EndSplineSet
Fore
SplineSet
-176 618 m 1
 -151.466666667 618 -128 638.266666667 -128 666 c 3
 -128 691.674418605 -150.4 712 -176 712 c 1
 -182 712 l 1
 -182 768 l 1
 -176 768 l 1
 -119.272727273 768 -72 723.12 -72 666 c 3
 -72 605.220779221 -121.974025974 562 -176 562 c 1
 -182 562 l 1
 -182 618 l 1
 -176 618 l 1
EndSplineSet
EndChar
StartChar: uni0371
Encoding: 881 881 954
Width: 440
UnlinkRmOvrlpSave: 1
Flags: HW
HStem: -205 57<59 135.033> 119 51<92 288.382> 126 44<92 355.462>
VStem: 22 63<-147.907 74.6915>
AnchorPoint: "Top" 118 465 basechar 0
LayerCount: 2
Fore
SplineSet
85 -116 m 3x90
 85 -144 93 -148 104 -148 c 3
 134 -148 163 -91.44140625 167 -81 c 1
 202 -92 l 1
 178 -146.203125 135 -205 75 -205 c 3
 43 -205 22 -177 22 -91 c 3
 22 69.3935546875 61.599609375 226.513671875 66 400 c 1
 66 400 138 426 156 410 c 1
 133.579101562 202.740234375 85 -9.2294921875 85 -116 c 3x90
92 170 m 1xd0
 178 170 l 2xd0
 281 170 338.934570312 158.42578125 389 216 c 1
 399 217 410 209 414 205 c 1
 414 189 353.00390625 128.9140625 294 126 c 0xb0
 172.495117188 120 157.049804688 121 86 119 c 1
 92 170 l 1xd0
EndSplineSet
EndChar
StartChar: uni0372
Encoding: 882 882 955
Width: 788
Flags: W
HStem: -15 35<286 342.216> 242 37<161.354 189.502 608 635.725> 244 42<32 66.3049> 643.531 38.1836<32.8474 72.5501 170.101 356.988 465.714 636.392 737.042 757.324>
VStem: 67 91<290.824 565.921> 356 105<544.26 638.014> 638 99<361.569 388.297 574.486 636.692>
LayerCount: 2
Fore
SplineSet
158 312 m 0xbe
 158.665039062 281.520507812 180.604492188 284.922851562 194 279 c 1
 194 279 190 256 189 242 c 1xde
 156.827148438 246.689453125 128.735351562 249.362304688 102 249.442382812 c 0
 78.232421875 249.50390625 55.537109375 247.805664062 32 244 c 1
 32 244 27 268 25 286 c 1
 44.63671875 290.875 66.4541015625 290.875 67 312 c 1
 79 416.999023438 84 603.912109375 72 627 c 1
 68.181640625 644.111328125 50.7275390625 644.111328125 30 648 c 1
 33 686 l 1
 56.6533203125 684.20703125 78.353515625 682.822265625 100.5 682.159179688 c 1
 266.081054688 682.954101562 520.212890625 682.123046875 692.5 681.71484375 c 1
 711.781561669 682.356445312 732.101313165 684.06640625 757 687 c 1
 763 650 l 1
 742.451843262 641.7890625 737.838684082 643.158203125 737 624 c 0
 726 527.192382812 709 335.813476562 730 300 c 1
 734.56677576 280.357421875 748.775918497 279.571289062 764 278 c 1
 764 278 759 258 760 244 c 1
 736.210531656 247.758789062 711.724685471 249.825195312 686 249.58984375 c 0
 661.250976562 249.32421875 635.399414062 246.657226562 608 241 c 1
 608 241 602 264 600 276 c 1
 622.897460938 284.461914062 637.20703125 286.1328125 638 309 c 0
 649.390625 412.486328125 649.434570312 496.606445312 643 611 c 0
 642.609375 627.709960938 617.73828125 642.413085938 576.5 643.53125 c 0
 529.358398438 645.216796875 463.9140625 651.794921875 461 611 c 0
 450 443.37890625 433 112.009765625 454 50 c 0
 463 25 491 24 521 22 c 1
 521 22 516 -0.94140625 517 -17 c 1
 442.306640625 5.56640625 367.328125 4.1357421875 286 -15 c 1
 286 -15 280 8 278 20 c 1
 325 30 354.373046875 31.974609375 356 59 c 0
 367.390625 248.15625 367.434570312 401.911132812 361 611 c 0
 360.181640625 655.258789062 275.310546875 646.499023438 226.5 646.43359375 c 0
 194.55859375 646.610351562 171.834960938 639.114257812 170 632 c 0
 156.96484375 567.3046875 151.73828125 391.74609375 158 312 c 0xbe
EndSplineSet
Position2: "cpsp-1" dx=0 dy=0 dh=50 dv=100
EndChar
StartChar: Gamma
Encoding: 915 915 978
Width: 630
VWidth: 1159
Flags: W
HStem: -13.8818 66.9883<95.8006 142.338> 505.313 181.902<505.648 568.49> 612.051 67.0885<85.251 143.283 257.752 489.343>
VStem: 143.562 109.714<78.815 608.235> 509.244 59.2461<510.141 596.29>
AnchorPoint: "Top" 321 699 basechar 0
AnchorPoint: "Bottom" 183 -15 basechar 0
LayerCount: 2
Back
SplineSet
367 -11 m 5
 317.662100722 -4.45290806362 265.938730077 3.3037109375 216.853515625 3.3037109375 c 7x76
 196.57509814 3.3037109375 130.98866446 0.09765625 97.078125 -13.8818359375 c 5
 84.8525390625 53.1064453125 l 5
 123.172851562 60.73046875 143.080078125 69.0830078125 143.092773438 77.1767578125 c 5
 143.387695312 115.657226562 143.561523438 225.0078125 143.561523438 345.940429688 c 7
 143.561523438 473.567382812 143.370305092 591.38513021 143.216796875 602.430664062 c 4
 143.131835938 608.543945312 116.502929688 608.177734375 81.6806640625 611.421875 c 5
 85.2509765625 684.215820312 l 5xa6
 149.500976562 681.030273438 252.91015625 679.139648438 348.677734375 679.139648438 c 7xb6
 446.905043268 679.139648438 536.758873592 681.123046875 559.581054688 687.215820312 c 5
 581.665039062 670.905273438 588.684570312 660.729492188 588.684570312 647.3359375 c 7
 588.684570312 627.670489199 570.731445312 600.772043206 568.490234375 533.140625 c 5
 509.244140625 528.313476562 l 5x2d
 502.6796875 561.29330398 516.924289957 599.29749298 500.74609375 601.708007812 c 4
 455.305001502 607.902634603 389.451917368 612.051155854 331.970473707 612.051155854 c 7
 309.819597887 612.051155854 288.838195322 611.564318054 270.506835938 610.302734375 c 4
 262.34765625 609.741210938 256.875849788 606.453307156 256.78515625 595.010742188 c 4
 256.120069434 511.098488873 252.275390625 417.204635161 252.275390625 339.376953125 c 7
 252.275390625 237.763554958 251.14488363 164.917048783 253.145507812 97.3759765625 c 4
 253.584960938 82.5400390625 260.116208137 80.5618689194 266.076171875 79.7763671875 c 4
 305.23046875 74.6159720307 341.966796875 70.001953125 376.833984375 65.001953125 c 5
 372.868834898 31.9625600198 370.278878706 19.9843214351 367 -11 c 5
EndSplineSet
Fore
SplineSet
367 -11 m 1xb8
 317.662100722 -4.45290806362 265.938730077 3.3037109375 216.853515625 3.3037109375 c 3
 196.57509814 3.3037109375 130.98866446 0.09765625 97.078125 -13.8818359375 c 1
 84.8525390625 53.1064453125 l 1
 123.172851562 60.73046875 143.080078125 69.0830078125 143.092773438 77.1767578125 c 1
 143.387695312 115.657226562 143.561523438 225.0078125 143.561523438 345.940429688 c 3
 143.561523438 473.567382812 143.370305092 591.38513021 143.216796875 602.430664062 c 0
 143.131835938 608.543945312 116.502929688 608.177734375 81.6806640625 611.421875 c 1
 85.2509765625 684.215820312 l 1
 149.500976562 681.030273438 252.91015625 679.139648438 348.677734375 679.139648438 c 3xb8
 446.905043268 679.139648438 536.758873592 681.123046875 559.581054688 687.215820312 c 1
 581.665039062 670.905273438 588.684570312 660.729492188 588.684570312 647.3359375 c 3
 588.684570312 623.709684671 570.731445312 591.393641016 568.490234375 510.140625 c 1
 509.244140625 505.313476562 l 1xd8
 496.685433306 548.628352351 503.2513448 597.199572104 478.74609375 601.708007812 c 0
 439.809456043 608.871506258 381.959177835 612.051155854 331.970473707 612.051155854 c 3
 310.179987812 612.051155854 289.539948097 611.564318054 271.506835938 610.302734375 c 0
 263.34765625 609.741210938 257.875849788 606.453307156 257.78515625 595.010742188 c 0
 257.120069434 511.098488873 253.275390625 417.20463516 253.275390625 339.376953125 c 3
 253.275390625 237.763554958 252.14488363 164.917048783 254.145507812 97.3759765625 c 0
 254.584960938 82.5400390625 261.116208137 80.5618689194 267.076171875 79.7763671875 c 0
 305.876956018 74.6159720307 342.281602546 70.001953125 376.833984375 65.001953125 c 1
 372.868834898 31.9625600198 370.278878706 19.9843214351 367 -11 c 1xb8
EndSplineSet
Validated: 33
Position2: "cpsp-1" dx=0 dy=0 dh=50 dv=100
Substitution2: "c2pc-1" gamma.pcap
Substitution2: "c2sc-1" gamma.smcp
EndChar
StartChar: Delta
Encoding: 916 916 979
AltUni2: 002206.ffffffff.0
Width: 785
Flags: HW
HStem: -4 21G<730.322 745.75> 2.27051 64.0293<181.894 579.606> 669 20G<372 444.036>
VStem: 374 67<609.555 689>
AnchorPoint: "Bottom" 390 -15 basechar 0
AnchorPoint: "Top" 410 699 basechar 0
LayerCount: 2
Back
SplineSet
252.236328125 252.388671875 m 1
 299.649796095 248.696289062 416.056493083 255.291015625 460.068359375 255.291015625 c 1
 430.663716066 331.849688928 390.779014945 423.919616462 364.260742188 506.700195312 c 1
 333.183450557 425.767388752 288.468711113 331.038213756 252.236328125 252.388671875 c 1
509.888671875 -7.9677734375 m 1
 509.888671875 -7.9677734375 493.834960938 55.16015625 493.491210938 56.451171875 c 1
 511.129882812 62.4765625 543.669111995 62.5008282298 531.536132812 85.34375 c 0
 509.317639013 127.174804688 504.16315987 146.46484375 484.896484375 189.09765625 c 1
 402.475609977 189.958007812 334.929395462 190.474609375 227.088867188 191.700195312 c 1
 206.983656761 149.208984375 201.412314429 141.435615007 182.458007812 98.171875 c 0
 172.167968751 74.6845703125 192.971679688 71.9794921875 226.80859375 66.365234375 c 1
 222.06640625 -5.9677734375 l 1
 192.038085938 0.8916015625 155.807617188 3.4072265625 120.09375 3.4072265625 c 3
 93.9653606848 3.4072265625 68.207124287 1.6005859375 46.0693359375 -1.1396484375 c 1
 45.5085019225 15.41015625 44.5617949314 39.904296875 43.4140625 63.451171875 c 1
 82.315659825 73.794921875 87.1208210221 78.351512429 97.4658203125 99.3974609375 c 0
 194.946287559 297.712495736 269.901189481 452.952421088 325.958984375 599.28515625 c 0
 342.707585862 643.005546436 341.1484375 649.484376818 349.12890625 688.512695312 c 1
 415.416015625 688.9609375 l 1
 421.564453125 653.31343782 423.441824058 644.45793154 438.330078125 599.821289062 c 0
 509.533416723 386.345756349 559.169909084 292.881478795 651.323242188 82.3115234375 c 0
 659.720471081 63.1238928475 666.972584155 65.3935546875 692.55859375 61.451171875 c 1
 693.37890625 44.8515625 695.918945312 19.0732421875 696.81640625 -0.1396484375 c 1
 664.649189366 1.16015625 635.190512371 3.2646484375 607.002929688 3.2646484375 c 3
 573.849609375 3.2646484375 542.422851562 0.83984375 509.888671875 -7.9677734375 c 1
EndSplineSet
Fore
SplineSet
454.5 66.2998046875 m 1x70
 549.361423399 66.5992838542 590.391336323 66.2998046875 585.5 74.2998046875 c 1
 523.490066395 195.001953125 433.149265129 399.763923208 390 506 c 1
 370.233648003 458.376749645 236.657084819 199.14485745 179.5 88.2998046875 c 1
 177.787627284 80.7998046875 191.012223582 66.2238769531 245.5 66.2998046875 c 1
 454.5 66.2998046875 l 1x70
45 -5 m 1
 44.2 62.659754136 77.2742660687 62.9104555521 99 102 c 0
 204.897137697 292.533074004 297.862237404 458.282856615 358 617 c 0
 372.474967446 655.202709653 370 656 374 689 c 1
 441 689 l 1
 447.071428571 662 443.642017067 658.837541281 458 619 c 0
 534.618913526 406.413793103 610.362394128 288.667890959 709 71 c 0
 724.176757812 37.5087890625 743.5 66.681640625 748 -4 c 1xb0
 712.643535605 0.250784817377 554.316211887 2.2705078125 390.493164062 2.2705078125 c 0
 234.678847334 2.2705078125 73.0239913497 -0.250951634898 45 -5 c 1
EndSplineSet
Position2: "cpsp-1" dx=0 dy=0 dh=50 dv=100
Substitution2: "c2pc-1" delta.pcap
Substitution2: "c2sc-1" delta.smcp
EndChar
StartChar: Theta
Encoding: 920 920 983
Width: 819
Flags: HW
HStem: -16 72<346.672 526.99> 302.5 84<311.488 503.665> 616 73<284.654 475.048>
VStem: 46 119<261.919 449.449> 228.5 71<247.5 290.382 398.511 441.5> 515.5 69<246.5 290.874 397.242 437.5> 653 115<214.618 413.376>
AnchorPoint: "Top" 426 699 basechar 0
AnchorPoint: "Bottom" 422 -15 basechar 0
LayerCount: 2
Fore
SplineSet
579.5 437.5 m 1
 577.443359375 386.929837022 577.918945312 300.429369767 584.5 246.5 c 1
 515.5 244.5 l 1
 506.731133644 291.576497396 499.985430374 289.680671767 477.5 295.5 c 0
 472.255665677 296.5 432.05089424 302.5 403.5 302.5 c 3
 375.612821691 302.5 336.889605739 296.312179971 331.5 295.5 c 0
 303.62890625 291.3 301.565429688 271.7 299.5 246.5 c 1
 228.5 247.5 l 1
 234.977539062 313.789827167 235.790039062 375.001059479 228.5 441.5 c 1
 298.5 443.5 l 1
 302.611328125 419.992828824 311.844324427 396.714735104 335.5 391.5 c 0
 341.290244 390.223579525 382.267962832 386.5 403.5 386.5 c 3
 442.805081408 386.5 472.03043918 390.480092143 475.5 391.5 c 0
 489.818181818 395.708955224 507.318181818 392.902985075 510.5 438.5 c 1
 579.5 437.5 l 1
EndSplineSet
Refer: 990 927 N 1 0 0 1 0 0 2
Position2: "cpsp-1" dx=0 dy=0 dh=50 dv=100
Substitution2: "c2pc-1" theta.pcap
Substitution2: "c2sc-1" theta.smcp
EndChar
StartChar: Lambda
Encoding: 923 923 986
Width: 733
Flags: HW
HStem: -10 64<510 529.895> -8 72<179.682 222.486 651.002 693.097> 669 20G<345 418>
VStem: 349 66<604.112 689>
AnchorPoint: "Bottom" 368 -15 basechar 0
AnchorPoint: "Top" 382 679 basechar 0
LayerCount: 2
Back
SplineSet
364 507 m 1
 312.501629389 371.110893755 238.604917999 226.191311398 182 96 c 0
 172 73 193 70 227 64 c 1
 222 -8 l 1
 192 -1 156 1 120 1 c 3
 94 1 68 0 46 -3 c 1
 45 14 44 37 43 61 c 1
 82 71 86.7672077901 76.1124447675 97 97 c 0
 194 295 269.643877136 453.137093764 326 599 c 0
 343 643 341 650 349 689 c 1
 415 689 l 1
 421 653 423 645 438 600 c 0
 509 387 561.675212583 292.146370115 651 80 c 0
 659 61 667 63 693 59 c 1
 694 42 696 17 697 -2 c 1
 665 -1 635 1 607 1 c 3
 574 1 543 -1 510 -10 c 1
 510 -10 493 53 493 54 c 1
 511 60 542.655651182 59.3471545497 532 83 c 0
 470.786730957 218.877945655 420.586516256 358.743971691 364 507 c 1
EndSplineSet
Fore
SplineSet
362 503 m 1xb0
 311.06754555 368.43341547 238.042850925 224.898557127 182 96 c 0
 172 73 193 70 227 64 c 1
 222 -8 l 1x70
 192 -1 156 1 120 1 c 3
 94 1 68 0 46 -3 c 1
 45 14 44 37 43 61 c 1
 82 71 86.7672077901 76.1124447675 97 97 c 0
 194 295 269.643877136 453.137093764 326 599 c 0
 343 643 341 650 349 689 c 1
 415 689 l 1
 421 653 423 645 438 600 c 0
 509 387 561.675212583 292.146370115 651 80 c 0
 659 61 667 63 693 59 c 1
 694 42 696 17 697 -2 c 1
 665 -1 635 1 607 1 c 3
 574 1 543 -1 510 -10 c 1
 510 -10 493 53 493 54 c 1
 509.615384615 60 539.255826133 59.5434209534 529 83 c 0
 470.151095654 217.596078244 418.249691755 356.142613468 362 503 c 1xb0
EndSplineSet
Position2: "cpsp-1" dx=0 dy=0 dh=50 dv=100
Substitution2: "c2pc-1" lambda.pcap
Substitution2: "c2sc-1" lambda.smcp
EndChar
StartChar: Xi
Encoding: 926 926 989
Width: 644
Flags: HW
HStem: -12 21G<38.1167 44.7158 593.339 600.642> 0.76101 74.3239<87.6715 545.261> 325.5 61<166.644 480.38> 485 21G<568 608> 610.915 74.3239<93.9293 552.632> 678 20G<42.042 50.5274 591.399 597.883>
VStem: 28 40<93.8399 209.875> 36 43<494.349 598.256> 123.5 26<242.5 304.54 413.595 461.5> 497.5 23<240.891 291.777 412.72 457.5> 568 40<489.125 595.04>
AnchorPoint: "Top" 332 699 basechar 0
AnchorPoint: "Bottom" 330 -15 basechar 0
LayerCount: 2
Back
SplineSet
85 684 m 5xa680
 149 681 253 679 349 679 c 7xb680
 452 679 546 681 570 687 c 5
 592 671 599 660 599 647 c 7
 599 629 580 605 578 543 c 5
 519 538 l 5x2d
 512 566 527 600 511 602 c 4
 463 608 393 612 332 612 c 7
 310 612 289 611 271 610 c 4
 263 609 257 606 257 595 c 4
 256 523 255 441 254 374 c 5
 299 376 457 374 462 375 c 4
 471 376 470 400 481 432 c 5
 547 419 l 5
 539 387 535 357 535 327 c 7
 535 307 538 286 543 262 c 5
 480 243 l 5
 463 286 472 306 464 306 c 4
 430 305 308 304 252 305 c 5
 252 218 251 153 253 95 c 4
 253 80 260 78 266 78 c 4
 305 78 342 77 377 77 c 7
 415 77 450 78 484 79 c 4
 522 81 532 100 568 164 c 5
 627 141 l 5
 612 80 603 57 591 0 c 5
 500 -3 404 1 313 1 c 7x7680
 233 1 158 0 97 -14 c 5
 85 51 l 5
 123 59 143 67 143 75 c 5
 143 113 144 225 144 346 c 7
 144 474 143 591 143 602 c 4
 143 608 117 608 82 611 c 5
 85 684 l 5xa680
EndSplineSet
Fore
SplineSet
36 528 m 1x39e0
 41.6767578125 594.745641549 42.8955078125 641.723974369 41.1884765625 698 c 1x35e0
 59.8662979113 689.765313358 198.456992217 685.238989596 333.069573583 685.238989596 c 3x39e0
 460.009300831 685.238989596 583.411491613 689.264022472 599.385742188 698 c 1x35e0
 596.380859375 638.361703726 598.53125 577.529221755 608 530 c 1
 548 525 l 1
 540 566.857285287 536.339441168 581.613106699 489 587 c 0
 443.743164062 592.426326558 384.21484375 595.915039062 325.758789062 595.915039062 c 3
 257.294921875 595.915039062 190.708028634 590.524167654 149 587 c 0
 113.657226562 583.311006434 105.578776042 565.877583466 99 524 c 1
 36 528 l 1x39e0
616 163 m 1
 601.571289062 94.2917073572 598.471679688 45.9314055266 602.811523438 -12 c 1xb2e0
 583.865813418 -3.76531335831 443.288853306 0.761010403635 306.747072738 0.761010403635 c 3x72e0
 177.988109738 0.761010403635 52.8174296741 -3.26402247191 36.6142578125 -12 c 1
 39.619140625 51.8984728507 37.4697265625 117.075137868 28 168 c 1
 88 173 l 1xb2e0
 98 124.462136995 106.927734375 101.001875 155 97 c 4
 200.104255124 93.2946083833 259.78515625 94.0849609375 318.241210938 94.0849609375 c 7
 386.705078125 94.0849609375 453.638133829 96.2373226219 495 99 c 4
 541.947265625 102.18254431 545.368421053 124.839576688 553 167 c 1
 616 163 l 1
515.5 435.5 m 1
 513.443359375 384.664930556 513.918945312 297.711805556 520.5 243.5 c 1
 457.5 241.5 l 1
 453.577086104 292.269073872 451.198494262 295.471482687 440.5 296.5 c 0
 432.208661417 297.5 368.641732283 303.5 323.5 303.5 c 3
 275.471830986 303.5 206.995992001 301.442280486 199.5 296.5 c 0
 190.790283203 291.957411729 190.145446777 270.756873985 189.5 243.5 c 1
 123.5 244.5 l 1
 129.977539062 311.131260702 130.790039062 372.658310146 123.5 439.5 c 1
 188.5 441.5 l 1
 190.166754645 420.253133745 188.731148227 400.724221742 203.5 394.5 c 0
 211.326086957 390.5 231.326086957 384.5 323.5 384.5 c 3
 413.66 384.5 433.481935601 386.984280614 438.5 389.5 c 0
 448.681818182 393.708955224 451.227272727 390.902985075 452.5 436.5 c 1
 515.5 435.5 l 1
EndSplineSet
Position2: "cpsp-1" dx=0 dy=0 dh=50 dv=100
Substitution2: "c2pc-1" xi.pcap
Substitution2: "c2sc-1" xi.smcp
EndChar
StartChar: Pi
Encoding: 928 928 991
Width: 870
Flags: W
HStem: -0.483398 76.7295<69.4941 129.55 748.181 805.212> 605.041 72.1311<248.038 639.677> 622.979 69.9023<755.241 798.754>
VStem: 135.61 106.819<82.4228 604.681> 640.104 113.591<335.311 604.957> 642.234 102.51<77.6339 499.138>
AnchorPoint: "Top" 384 699 basechar 0
AnchorPoint: "Bottom" 388 -15 basechar 0
LayerCount: 2
Back
SplineSet
245.684570312 88.2021484375 m 0
 246.612304688 67.4697265625 290.33984375 76.763671875 309.11328125 74.73046875 c 1
 309.11328125 74.73046875 302.37109375 -1.2783203125 302.28515625 -2.4833984375 c 1
 257.784179688 3.9814453125 220.34765625 6.9111328125 184.276367188 6.9111328125 c 3
 146.357421875 6.9111328125 109.79296875 4.30859375 69.494140625 -0.4833984375 c 1
 69.494140625 -0.4833984375 57.1826171875 74.697265625 57.0107421875 76.24609375 c 1
 86.2099609375 76.466796875 130.172851562 81.4052734375 130.54296875 90.6357421875 c 0
 135.353515625 206.40234375 135.610351562 340.05078125 135.610351562 462.693359375 c 3
 135.610351562 534.838867188 134.155273438 588.810546875 130.461914062 601.95703125 c 0
 127.333007812 612.546875 100.923828125 613.1484375 63.837890625 614.979492188 c 1
 68.666015625 686.794921875 l 1xea
 113.060546875 678.424804688 155.443359375 677.171875 199.573242188 677.171875 c 0
 696.56640625 676.740234375 l 3xda
 732.30859375 676.740234375 769.260742188 681.173828125 820.329101562 692.881835938 c 1
 834.5546875 622.979492188 l 1
 810.440429688 615.548828125 777.201171875 617.196289062 776.694335938 608.595703125 c 0xec
 770.990234375 501.268554688 767.744140625 358.397460938 767.744140625 231.573242188 c 3
 767.744140625 161.090820312 768.795898438 105.458984375 771.107421875 84.505859375 c 0
 772.456054688 75.8681640625 803.09765625 76.962890625 835.296875 76.4716796875 c 1
 835.296875 76.4716796875 827.5546875 -1.1064453125 827.641601562 -2.3115234375 c 1
 786.5078125 2.21484375 747.995117188 5.4072265625 708.767578125 5.4072265625 c 3
 678.268554688 5.4072265625 647.330078125 2.9111328125 613.676757812 -3.4833984375 c 1
 611.10546875 17.30859375 607.528320312 44.041015625 604.193359375 70.81640625 c 1
 637.1015625 72.5908203125 656.713221786 72.7771771032 657.620117188 88.0224609375 c 0
 660.051811392 128.900238308 665.234375 227.943359375 665.234375 330 c 3
 665.234375 443.69140625 666 533 663.103515625 579.998046875 c 0
 662.362123278 592.027800112 653 605 646 604.95703125 c 28
 497 605 413 605 264 605.040775423 c 28
 257 605 248.694516336 598.02871237 248 589 c 0
 245 550 242.4296875 454.194335938 242.4296875 344 c 3
 242.4296875 229.701171875 244.398099751 116.951379993 245.684570312 88.2021484375 c 0
EndSplineSet
Fore
SplineSet
245.684570312 88.2021484375 m 0xd8
 246.612304688 67.4697265625 290.33984375 76.763671875 309.11328125 74.73046875 c 1
 309.11328125 74.73046875 302.37109375 -1.2783203125 302.28515625 -2.4833984375 c 1
 257.784179688 3.9814453125 220.34765625 6.9111328125 184.276367188 6.9111328125 c 3
 146.357421875 6.9111328125 109.79296875 4.30859375 69.494140625 -0.4833984375 c 1
 69.494140625 -0.4833984375 57.1826171875 74.697265625 57.0107421875 76.24609375 c 1
 86.2099609375 76.466796875 130.172851562 81.4052734375 130.54296875 90.6357421875 c 0
 135.353515625 206.40234375 135.610351562 340.05078125 135.610351562 462.693359375 c 3
 135.610351562 534.838867188 134.155273438 588.810546875 130.461914062 601.95703125 c 0
 127.333007812 612.546875 100.923828125 613.1484375 63.837890625 614.979492188 c 1
 68.666015625 686.794921875 l 1
 113.060546875 678.424804688 155.443359375 677.171875 199.573242188 677.171875 c 0xd8
 673.56640625 676.740234375 l 3
 709.30859375 676.740234375 746.260742188 681.173828125 797.329101562 692.881835938 c 1
 811.5546875 622.979492188 l 1
 787.440429688 615.548828125 754.201171875 617.196289062 753.694335938 608.595703125 c 0xb8
 747.990234375 501.268554688 744.744140625 358.397460938 744.744140625 231.573242188 c 3
 744.744140625 161.090820312 745.795898438 105.458984375 748.107421875 84.505859375 c 0
 749.456054688 75.8681640625 780.09765625 76.962890625 812.296875 76.4716796875 c 1
 812.296875 76.4716796875 804.5546875 -1.1064453125 804.641601562 -2.3115234375 c 1
 763.5078125 2.21484375 724.995117188 5.4072265625 685.767578125 5.4072265625 c 3
 655.268554688 5.4072265625 624.330078125 2.9111328125 590.676757812 -3.4833984375 c 1
 588.10546875 17.30859375 584.528320312 44.041015625 581.193359375 70.81640625 c 1
 614.1015625 72.5908203125 633.712890625 72.77734375 634.620117188 88.0224609375 c 0
 637.051757812 128.900390625 642.234375 227.943359375 642.234375 330 c 3xb4
 642.234375 443.69140625 643 533 640.103515625 579.998046875 c 0
 639.362304688 592.02734375 630 605 623 604.95703125 c 28
 474 605 413 605 264 605.040775423 c 24
 257 605 248.694516336 598.02871237 248 589 c 0
 245 550 242.4296875 454.194335938 242.4296875 344 c 3
 242.4296875 229.701171875 244.398099751 116.951379993 245.684570312 88.2021484375 c 0xd8
EndSplineSet
Position2: "cpsp-1" dx=0 dy=0 dh=50 dv=100
Substitution2: "c2pc-1" pi.pcap
Substitution2: "c2sc-1" pi.smcp
EndChar
StartChar: Sigma
Encoding: 931 931 993
Width: 626
Flags: HW
HStem: 2.48309 38.5169<150 472.628> 648.077 36.8923<179.454 467.505> 659 31<28 50.0696>
VStem: 518 30<539 620.59> 578 28<152.034 171.75>
AnchorPoint: "Top" 310 699 basechar 0
AnchorPoint: "Bottom" 307 -15 basechar 0
LayerCount: 2
Back
SplineSet
18 548 m 5
 48 615 49 708 105 719 c 5
 122 700 144 680 146 680 c 4
 180.209416188 679.287344186 359.180360402 676.03515625 493.947265625 676.03515625 c 7
 556.234189517 676.03515625 599.343509288 678 635 678 c 5
 661 639 l 5
 662 639 656 633 655 633 c 4
 649 632 206 69 198 67 c 5
 294 67 404.968757626 70 469 70 c 7
 574.0428484 70 587 92 615 178 c 5
 677 150 l 5
 639 61 625 15 594 -30 c 5
 562 -11 561.022460938 2 473 2 c 7
 356.982421875 2 105 3 42 0 c 5
 22 53 l 5
 64 74 95 105 126 138 c 5
 248 284 376 456 497 606 c 5
 500 610 l 5
 478 606 150 606 139 605 c 5
 117 611 109 599 79 528 c 5
 18 548 l 5
EndSplineSet
Fore
SplineSet
40 1 m 1xd8
 21 53 l 1
 54.7731958763 68.0340909091 84.8550803365 92.0623947771 105 116 c 0
 168.08984375 190.967773438 231.771484375 266.940429688 295.001953125 343.299804688 c 1
 232.919921875 421.344726562 147.8984375 515.115234375 88.9716796875 588.299804688 c 0
 63.5045726168 619.928887251 49.5 628.299804688 23 635 c 1
 34 690 l 1xb8
 106.521484375 686.35546875 186.588460485 684.969176485 267.955928091 684.969176485 c 0
 416.808729307 684.969176485 550.666326891 689.186564497 568 693 c 1
 585.773556617 676.722710419 592.133789062 667.531857017 592.133789062 653.086914062 c 0
 592.133789062 636.768682218 572.221954362 609.343978007 562 522 c 1
 505 519 l 1
 491.035714286 554.234042553 511.214285714 603.545454545 459 611 c 1
 415.24715259 617.611961002 345.867634005 621.077148438 279.205078125 621.077148438 c 0
 256.383152767 621.077148438 222.982421875 619.799804688 202.997070312 617.193359375 c 1
 253.44921875 553.228515625 311.406838201 488.633657253 365.102539062 425.299804688 c 0
 377.669108989 410.477588491 408.323242188 389.299804688 424.703125 381.299804688 c 1
 424.703125 315.299804688 l 1
 408.173828125 307.461914062 380.354710844 292.522591925 371.6640625 281.299804688 c 0
 313.045632071 205.602095287 255.914544087 137.912666023 198 66 c 1
 260.350012183 67 323.544931462 67 386 67 c 0
 408.404296875 67 449.24081751 70.7916686561 470 82 c 0
 518.547121434 108.211640227 531.333333333 117.050420168 566 179 c 1
 621 163 l 1
 598.846153846 99.7176470588 583.615384615 59.4470588235 567 0 c 1
 418.446420524 -0.773710049693 287.995461185 2.4830933189 163.612260931 2.4830933189 c 0
 126.27277498 2.4830933189 86.1863772874 2.08995072445 40 1 c 1xd8
EndSplineSet
Position2: "cpsp-1" dx=0 dy=0 dh=50 dv=100
Substitution2: "c2pc-1" sigma.pcap
Substitution2: "c2sc-1" sigma.smcp
EndChar
StartChar: Upsilon
Encoding: 933 933 995
Width: 734
VWidth: 1159
Flags: HW
HStem: -11 42<192 270.062 401.394 490.814> 624 76<53.2333 162.515 523.65 633.052>
VStem: 304.377 78.0224<61.5545 369.397>
AnchorPoint: "Top" 367 699 basechar 0
AnchorPoint: "Bottom" 363 -15 basechar 0
LayerCount: 2
Back
SplineSet
274 611 m 5xb0
 255 612 252 604 241 604 c 4
 239 604 232 593 233 592 c 5
 292 481 370 385 396 348 c 5
 435 414 542 599 542 594 c 5
 546 599 549 606 537 607 c 4
 527 608 510 608 499 613 c 5
 504 688 l 5
 525 683 566 677 608 677 c 7
 637 677 667 682 688 689 c 5
 698 610 l 5
 659 610 643 603 633 590 c 5
 564 515 491 393 444 291 c 5
 443 249 440 205 450 88 c 4
 452 72 497 69 550 66 c 5
 541 -6 l 5
 488 0 438 0 389 0 c 7
 344 0 298 0 250 -11 c 5
 232 63 l 5
 302 72 340 79 338 94 c 5
 338 97 335 261 336 264 c 5
 313 297 221 456 106 591 c 5
 102 600 76 603 44 617 c 5
 50 687 l 5
 82 683 131 678 175 678 c 7xd0
 210 678 243 680 265 686 c 5
 274 611 l 5xb0
EndSplineSet
Fore
SplineSet
425 324 m 0
 419.54906044 290.205325962 417.399414062 252.581282281 417.399414062 214.342773438 c 0
 417.399414062 178.133325844 420.916734959 140.715006353 422 112 c 0
 423.420813047 74.3373282166 432.29245283 72.8333333333 525 66 c 1
 516 -8 l 1
 463.800509338 -2.75 415.401952462 1 366.75 1 c 0
 319.395378151 1 271.794117647 -2.33333333333 220 -11 c 1
 208 63 l 1
 312 75.8985507246 313.706970265 79.6099897174 315 110 c 0
 315.789825208 128.563220582 317.227340618 168.345289777 316.376953125 212 c 0
 315.482887614 257.896924742 311.355798638 308.259179162 308 325 c 0
 288.211538462 423.717213115 228.846153846 584 112 584 c 3
 93.5846153846 584 75.1692307692 578.666666667 55 568 c 1
 24 621 l 1
 42 647 95 692 136 692 c 3
 311 692 335 477.106382979 368 342 c 1
 400 477.106382979 424 692 599 692 c 3
 640 692 692 647 710 621 c 1
 679 568 l 1
 658.830769231 578.666666667 640.415384615 584 622 584 c 3
 504.557692308 584 441.211182142 424.505905498 425 324 c 0
EndSplineSet
Position2: "cpsp-1" dx=0 dy=0 dh=50 dv=100
Substitution2: "c2pc-1" upsilon.pcap
Substitution2: "c2sc-1" upsilon.smcp
EndChar
StartChar: Phi
Encoding: 934 934 996
Width: 714
UnlinkRmOvrlpSave: 1
Flags: W
HStem: -8 21G<201.083 226.635 483.685 509.767> 122 62<279.931 474.93> 507 65<236.722 433.792> 672 20G<206.188 233.425 485.14 513.295>
VStem: 41 113<296.86 420.599> 307.63 102.82<67.4773 555.247> 561 112<261.222 399.564>
LayerCount: 2
Fore
SplineSet
331 507 m 3
 232.861386139 507 154 449.851428571 154 370 c 3
 154 273.678571429 256.6 184 379 184 c 3
 488.920792079 184 561 252.043956044 561 328 c 3
 561 422.861751152 457.04 507 331 507 c 3
362 572 m 3
 534 572 673 468.129032258 673 342 c 3
 673 220.907563025 541 122 363 122 c 3
 185 122 41 219.983193277 41 342 c 3
 41 464.419354839 187 572 362 572 c 3
EndSplineSet
Refer: 984 921 N 0.97 0 0 1 134 0 2
Position2: "cpsp-1" dx=0 dy=0 dh=50 dv=100
Substitution2: "c2pc-1" phi.pcap
Substitution2: "c2sc-1" phi.smcp
EndChar
StartChar: Psi
Encoding: 936 936 998
Width: 756
Flags: W
HStem: -8 21G<214.158 240.5 505.5 532.389> 672 0G<249.421 272.338 483.075 507.026 597.808 703.566>
VStem: 323.913 106.174<67.4693 293.081 348.199 605.917>
LayerCount: 2
Back
SplineSet
235 692 m 1
 277.675324675 680.705882353 317.935064935 676 359 676 c 3
 400.75625 676 444.15 681.571428571 490 689 c 1
 494 611 l 1
 469.572916667 612 427.13216372 609.991227901 427 609 c 0
 417 534 414 428 414 283 c 3
 414 215 420 150.102496759 420 72 c 0
 420 67 462 64 520 64 c 1
 515 -8 l 1
 464 -1 411 0 360 0 c 3
 304 0 249 -2 200 -11 c 1
 193 65 l 1
 259 66 302.39925152 58.9800405349 303 75 c 0
 306 155 308 257 308 362 c 3
 308 465 303 547.923778049 303 607 c 0
 303 610 251.057692308 615 229 616 c 1
 235 692 l 1
EndSplineSet
Fore
SplineSet
251 692 m 1
 293.675324675 680 333.935064935 675 375 675 c 0
 416.75625 675 460.15 681 506 689 c 1
 510 611 l 1
 485.572916667 612 443.13216372 609.991227901 443 609 c 0
 435.439561707 543.543086814 431.88035927 457.630909561 430.59375 347.272460938 c 1
 573.782989888 411.215434484 516.616342956 672 679 672 c 0
 728.131147541 672 748.049180328 641.411764706 760 607 c 1
 594.157411432 524.169526351 622.087805459 329.004688749 430.086914062 288.873046875 c 1
 429.698530573 214.18961125 436 152.6786868 436 72 c 0
 436 67 478 64 536 64 c 1
 531 -8 l 1
 480 -1 427 0 376 0 c 0
 320 0 265 -2 216 -11 c 1
 209 65 l 1
 275 66 318.39925152 58.9800405349 319 75 c 0
 321.635934015 135.415406079 323.4997804 210.430168461 323.913085938 288.96484375 c 1
 132.909810754 330.148926987 160.847212127 524.905393286 -4 607 c 1
 7.95081967213 640.882352941 27.868852459 671 77 671 c 0
 239.525818702 671 182.117126372 412.608299335 323.971679688 348.19921875 c 1
 323.717317112 456.009285301 319 543.436206567 319 607 c 0
 319 610 267.057692308 615 245 616 c 1
 251 692 l 1
EndSplineSet
Position2: "cpsp-1" dx=0 dy=0 dh=50 dv=100
Substitution2: "c2pc-1" psi.pcap
Substitution2: "c2sc-1" psi.smcp
EndChar
StartChar: alpha
Encoding: 945 945 1003
Width: 638
UnlinkRmOvrlpSave: 1
Flags: HMW
AnchorPoint: "Bottom" 296 -15 basechar 0
AnchorPoint: "Top" 331 537 basechar 0
LayerCount: 2
Fore
SplineSet
562.799804688 473.110351562 m 1
 504.289252834 336.532226562 358.013390765 -12.099609375 209.299804688 -12.099609375 c 3
 103.5 -12.099609375 62.099609375 92.26171875 62.099609375 226.26953125 c 3
 62.099609375 340.009765625 131.099609375 511.830078125 225.400390625 511.830078125 c 3
 324.522507639 511.830078125 373.579965348 408.083914653 395.950195312 329.120117188 c 0
 411.870102067 279.349773818 452.64567205 108.860351562 498.400390625 108.860351562 c 3
 522.057394573 108.860351562 534.73109704 131.151249217 548.25 154.879882812 c 1
 597.299804688 135.51953125 l 1
 581.200195312 80.765625 544.400390625 -10.8896484375 492.650390625 -10.8896484375 c 3
 408.746627282 -10.8896484375 350.585220497 239.398000772 330.599609375 311.440429688 c 0
 316.561698788 364.458847428 278.677435336 404.610351562 226.549804688 404.610351562 c 3
 148.169837773 404.610351562 118.650390625 301.426253317 118.650390625 221.4296875 c 3
 118.650390625 159.321458834 139.124893852 91.8603515625 196.650390625 91.8603515625 c 3
 295.082744248 91.8603515625 414.032076436 384.224172778 460.799804688 484 c 1
 467.577148438 493.383789062 476.900390625 497.309570312 487.25 497.309570312 c 3
 513.758782385 497.309570312 546.342118885 479.787109376 562.799804688 473.110351562 c 1
EndSplineSet
Substitution2: "pcap-1" a.pcap
Substitution2: "smcp-1" a.smcp
EndChar
StartChar: beta
Encoding: 946 946 1004
Width: 545
UnlinkRmOvrlpSave: 1
Flags: HMW
AnchorPoint: "Bottom" 286 -15 basechar 0
LayerCount: 2
Fore
SplineSet
23 -162 m 1
 39.843634344 -31.2356337801 45.7410250453 100.260680188 61.0234375 244 c 0
 85.6811371674 475.918945312 149.018920869 711 298 711 c 3
 398.686733217 711 464 637.831054688 464 558 c 3
 464 417.440765073 323.403557404 280.717171717 199 275 c 1
 188 279.6875 178.571428571 317.1875 177 350 c 1
 204.358974359 365.757575758 233.955762553 376 274 376 c 3
 398.184273097 376 503 281.357214725 503 158 c 3
 503 47.0702084874 395.523871527 -25 283 -25 c 3
 191.758789062 -25 130 27 73 78 c 1
 74 113 75 134 76 169 c 1
 129.58974359 108.833333333 181.253605769 55 266 55 c 3
 339.247395833 55 387 88.3846153846 387 179 c 3
 387 256.488564307 340.333062056 309.234251738 266 321.041992188 c 1
 247 347 l 1
 315.815043959 376.837837838 354 450.330834742 354 531 c 3
 354 577.519308943 341.061692113 631 277 631 c 3
 172.885245902 631 94.3770491803 204.106060606 135 -174 c 1
 93.8457306338 -172.762695312 50.4947183099 -173.112304688 23 -162 c 1
EndSplineSet
Substitution2: "pcap-1" b.pcap
Substitution2: "smcp-1" b.smcp
EndChar
StartChar: gamma
Encoding: 947 947 1005
Width: 479
UnlinkRmOvrlpSave: 1
Flags: HMW
AnchorPoint: "Top" 274 537 basechar 0
LayerCount: 2
Fore
SplineSet
180 -51 m 1
 192.256405211 24.0430468476 219.629882812 153.008261574 219.629882812 240.6328125 c 3
 219.629882812 324.789606981 168.457231852 412 115 412 c 3
 90.869140625 412 76.25390625 397.729459616 55.568359375 382.931640625 c 1
 33.6474609375 393.103689809 -4 447.352541481 -4 466 c 3
 -4 471.098632812 8.998046875 517.5 61.2802734375 517.5 c 3
 163.833927824 517.5 292.497070312 378.557084222 292.497070312 201 c 3
 292.497070312 133.165811567 274.410124839 31.8129744901 252.379882812 -47 c 0
 241.610313477 -87.096370872 222.125024898 -121.568359375 208.859375 -145 c 1
 175.396226416 -161 88.3430068298 -187 66 -161 c 1
 78.7357266065 -123.60546875 100.981662465 -85.3750099014 123.169921875 -41.150390625 c 0
 256.480506963 225.079144944 358.046200252 370.890970548 389.516601562 471.040039062 c 0
 390.741019594 475.021735851 400.0078125 506.434570312 403.806640625 524 c 1
 433.791385599 519.672585143 477.213805853 508.132812193 491 488.139648438 c 1
 403.929614883 323.412200873 271.609116532 101.264265151 180 -51 c 1
EndSplineSet
Substitution2: "pcap-1" gamma.pcap
Substitution2: "smcp-1" gamma.smcp
EndChar
StartChar: epsilon
Encoding: 949 949 1007
Width: 481
UnlinkRmOvrlpSave: 1
Flags: HMW
AnchorPoint: "Top" 266 537 basechar 0
AnchorPoint: "Bottom" 232 -15 basechar 0
LayerCount: 2
Fore
SplineSet
420.900390625 491.580078125 m 1
 419.75 466.696283887 403.650390625 415.46619364 395.599609375 393.509765625 c 1
 334.650390625 398.349609375 303.599609375 405.610351562 241.5 405.610351562 c 3
 207.682923641 405.610351562 171.450195312 392.271394034 171.450195312 358.48046875 c 3
 171.450195312 325.813926975 213.194860787 302.335210518 269.549804688 282.940429688 c 1
 265.240234375 270.050828192 261.022460938 256.924409871 256.900390625 243.52734375 c 1
 195.687115632 227.695389335 157.650390625 206.600796386 157.650390625 167.559570312 c 3
 157.650390625 116.345370248 205.479805401 95.8603515625 250.700195312 95.8603515625 c 3
 318.549804688 95.8603515625 357.650390625 114.009765625 417.450195312 139.419921875 c 1
 424.349609375 127.413029949 433.549804688 77.8821780575 434.700195312 56.8701171875 c 1
 392.150390625 19.3603515625 313.950195312 -8.4697265625 227.700195312 -8.4697265625 c 3
 140.299804688 -8.4697265625 62.099609375 56.9528361361 62.099609375 143.360351562 c 3
 62.099609375 250.999980784 174.799804688 304.8203125 280.599609375 304.8203125 c 3
 312.799804688 304.8203125 331.200195312 302.400390625 363.400390625 299.98046875 c 1
 363.400390625 269.829916711 359.950195312 241.689293327 354.200195312 219.580078125 c 1
 320.849609375 217.16015625 302.450195312 213.530273438 269.099609375 213.530273438 c 3
 181.700195312 213.530273438 89.7001953125 291.934598674 89.7001953125 393.5703125 c 3
 89.7001953125 456.490234375 165.599609375 509.73046875 253 509.73046875 c 3
 320.849609375 509.73046875 380.650390625 498.83984375 420.900390625 491.580078125 c 1
EndSplineSet
Substitution2: "pcap-1" e.pcap
Substitution2: "smcp-1" e.smcp
EndChar
StartChar: zeta
Encoding: 950 950 1008
Width: 481
UnlinkRmOvrlpSave: 1
Flags: HMW
LayerCount: 2
Back
SplineSet
350.150390625 377.16015625 m 5
 341.038085938 361.422851562 331.669921875 342.252929688 322.157226562 320.059570312 c 5
 223.206054688 287.453125 139.05078125 222.763671875 139.05078125 169.280273438 c 7
 139.05078125 140.299804688 156.544921875 100.280273438 208.30078125 100.280273438 c 7
 278.340820312 100.280273438 360.232421875 146.259765625 431.350585938 146.259765625 c 7
 525.650390625 146.259765625 582 62.1669921875 582 -20.5703125 c 7
 582 -111.962890625 508.400390625 -174.870117188 440.55078125 -174.870117188 c 7
 392.25 -174.870117188 346.25 -137.961914062 332.450195312 -113.740234375 c 5
 353.150390625 -85.91015625 379.600585938 -48.400390625 403.75 -45.98046875 c 5
 417.55078125 -55.216796875 442.850585938 -76.9501953125 480.80078125 -76.9501953125 c 7
 488.916015625 -76.9501953125 519.350585938 -58.1455078125 519.350585938 -25.41015625 c 7
 519.350585938 27.830078125 469.859375 36.2998046875 441.700195312 36.2998046875 c 7
 361.8359375 36.2998046875 296.001953125 -14.51953125 212.900390625 -14.51953125 c 7
 87.55078125 -14.51953125 55.3505859375 88.4814453125 55.3505859375 151.709960938 c 7
 55.3505859375 200.827148438 104.104492188 278.096679688 198.600585938 351.75 c 4
 251.381835938 392.889648438 325.708984375 417.08984375 420.5 417.08984375 c 5
 422.80078125 393.59765625 412.450195312 321.5546875 394.05078125 302.759765625 c 5
 367.600585938 285.8203125 326.200195312 282.190429688 285.950195312 282.190429688 c 7
 109.872070312 282.190429688 107.75 422.19140625 107.75 446.540039062 c 7
 107.75 584.552734375 313.98828125 690.919921875 484.450195312 690.919921875 c 5
 484.450195312 672.65234375 477.55078125 599.581054688 464.900390625 573.009765625 c 5
 437.849609375 553.030273438 373.34375 539.709960938 313 539.709960938 c 7
 214.716796875 539.709960938 155.150390625 596.592773438 155.150390625 680.01953125 c 7
 155.150390625 741.73046875 205.75 775.610351562 269 775.610351562 c 5
 267.850585938 750.200195312 269 706.639648438 252.900390625 682.440429688 c 5
 244.013671875 676.389648438 232.350585938 678.809570312 232.350585938 660.66015625 c 7
 232.350585938 650.219726562 251.677734375 619.646484375 347.30078125 618.900390625 c 5
 344.985351562 604.146484375 342.671875 589.201171875 340.359375 574.059570312 c 5
 262.768554688 549.458007812 188.05078125 499.645507812 188.05078125 451.379882812 c 7
 188.05078125 378.065429688 279.626953125 377.16015625 350.150390625 377.16015625 c 5
EndSplineSet
Fore
SplineSet
59.7998046875 157.299804688 m 3
 59.7998046875 408.191723946 225.412799072 686.299037836 476 688 c 1
 477.150390625 683.16015625 477.150390625 677.110351562 477.150390625 671.060546875 c 0
 477.150390625 631.99582391 463.350183824 591.484259354 438.049804688 561.100585938 c 1
 403.550021701 546.580403646 362.150282118 539.3203125 313.850585938 539.3203125 c 3
 225.300214603 539.3203125 127.549804688 589.932240269 127.549804688 695.259765625 c 3
 127.549804688 740.029914407 153.76837509 775.12003102 241.600585938 777.540039062 c 1
 241.600585938 775.120117188 242.75 770.280273438 242.75 764.23046875 c 0
 242.75 740.778932733 239.3 700.773371292 237 682.83984375 c 1
 222.982553843 677.540039062 214.450195312 677.540039062 214.450195312 661.640625 c 3
 214.450195312 641.866306495 256.15675104 609.876420422 303.5 598.7734375 c 1
 313.723129176 582.666254064 324.136466931 571.294222356 334.549804688 565.830078125 c 1
 231.125860933 540.531785231 134.299804688 323.689274715 134.299804688 189.969726562 c 3
 134.299804688 102.326573989 176.100036621 99.1201171875 204.700195312 99.1201171875 c 3
 246.100195313 99.1201171875 266.800195313 108.799804688 308.200195312 108.799804688 c 3
 411.700338224 108.799804688 449.650390625 54.7600097656 449.650390625 -14.7197265625 c 3
 449.650390625 -101.840110085 382.95012718 -174.440429688 301.299804688 -174.440429688 c 3
 257.599804688 -174.440429688 224.249804687 -153.869948815 203.549804688 -139.349609375 c 1
 210.549804687 -110.604344223 250.799804688 -47.3647608902 273.549804688 -44.490234375 c 1
 289.449804688 -52.050234375 320.366471354 -75.990234375 353.049804688 -75.990234375 c 3
 369.266471354 -75.990234375 387.799804688 -61.2861328125 387.799804688 -40.2802734375 c 3
 387.799804688 -14.6221577659 345.897778888 -1.2099609375 305.900390625 -1.2099609375 c 3
 272.550326261 -1.2099609375 244.950272994 -9.6796875 204.700195312 -9.6796875 c 3
 97.749906994 -9.6796875 59.7998046875 68.970073313 59.7998046875 157.299804688 c 3
EndSplineSet
Substitution2: "pcap-1" z.pcap
Substitution2: "smcp-1" z.smcp
EndChar
StartChar: eta
Encoding: 951 951 1009
Width: 586
UnlinkRmOvrlpSave: 1
Flags: HMW
AnchorPoint: "Top" 362 537 basechar 0
AnchorPoint: "Bottom" 139 -15 basechar 0
LayerCount: 2
Fore
SplineSet
52.900390625 496.6796875 m 3
 154.395696994 496.6796875 212.556569508 370.83984375 193.549804688 136.099609375 c 1
 157.510794132 136.099609375 137.239205868 136.099609375 101.200195312 136.099609375 c 1
 109.78125 206.112304688 118.242417728 276.474889054 140.001953125 334.540039062 c 0
 182.508962419 437.321289062 277.361638442 511.200195312 363.700195312 511.200195312 c 3
 506.465820312 511.200195312 515.5 371.041015625 515.5 312.759765625 c 3
 515.5 260.555908563 481.700195312 78.7888909173 481.700195312 30.080078125 c 3
 481.700195312 -30.2294921875 496.554926187 -61.3876953125 594.350585938 -80.0302734375 c 1
 588.211220546 -116.074250194 585.139365392 -134.954735177 579 -171 c 1
 427.36482076 -171 404.900390625 -123.5703125 404.900390625 -47.580078125 c 3
 404.900390625 49.8895565934 454.099609375 194.28178577 454.099609375 310.33984375 c 3
 454.099609375 368.470703125 434.550429445 431.33984375 393.599609375 431.33984375 c 3
 332.873098121 431.33984375 270.076349014 408.85004946 231.5 307.919921875 c 0
 210.658203125 245.788085938 208.110351562 205.388671875 187.799804688 -0.6298828125 c 1
 169.480732371 -13.9404296875 98.8190723163 -1.83984375 80.5 3 c 1
 86.87890625 109.982421875 115 247.708007812 115 347.849609375 c 3
 115 375.8462825 101.039859013 403.682617188 67.1025390625 403.682617188 c 3
 53.6669921875 403.682617188 46.080078125 401.108398438 38.5 395.610351562 c 1
 32.6401082171 406.433255063 12.650390625 437.298003068 12.650390625 479.740234375 c 1
 18.748046875 486.516601562 31.6650390625 496.6796875 52.900390625 496.6796875 c 3
EndSplineSet
Substitution2: "pcap-1" h.pcap
Substitution2: "smcp-1" h.smcp
EndChar
StartChar: theta
Encoding: 952 952 1010
Width: 488
VWidth: 1039
UnlinkRmOvrlpSave: 1
Flags: HW
HStem: -11 44<184.489 283.36> 657 40<226.149 324.426>
VStem: 52 79<134.659 458.11> 376 78<221.369 559.965>
AnchorPoint: "Bottom" 252 -15 basechar 0
LayerCount: 2
Fore
SplineSet
245 67 m 3
 361.510638298 67 393 311.604340821 393 433 c 3
 393 531.392857143 374.702970297 623 305 623 c 3
 200.833333333 623 155 446.446115288 155 258 c 7
 155 138.729453125 187.019230769 67 245 67 c 3
292 697 m 3
 426.296703297 697 494 577 494 403 c 3
 494 143.506835938 369.821428571 -11 250 -11 c 3
 125.415730337 -11 52 115.298828125 52 286 c 3
 52 478 137.090909091 697 292 697 c 3
EndSplineSet
Refer: 1970 58113 N 0.297955 0.00520082 -0.0185432 1.06234 125.023 350.4 2
Position2: "cpsp-1" dx=0 dy=0 dh=50 dv=102
Substitution2: "pcap-1" theta.pcap
Substitution2: "smcp-1" theta.smcp
EndChar
StartChar: iota
Encoding: 953 953 1011
Width: 336
VWidth: 1043
Flags: HMW
AnchorPoint: "Top" 200 537 basechar 0
AnchorPoint: "Bottom" 159 -15 basechar 0
LayerCount: 2
Fore
SplineSet
171.549804688 92.7998046875 m 3
 171.549804688 78.1699912336 176.539497207 76.080078125 183.400390625 76.080078125 c 3
 217.424195014 76.080078125 250.313487356 135.229969223 254.849609375 146.150390625 c 1
 318 117 l 1
 287.395630906 55.6543286666 232.561810304 -10.8896484375 156.049804688 -10.8896484375 c 3
 110.193473315 -10.8896484375 80.099609375 19.5516361449 80.099609375 113.049804688 c 3
 80.099609375 239.126636191 113.85045856 362.631289996 117.599609375 499 c 1
 117.599609375 499 214.800526495 530.459960938 239.099609375 511.099609375 c 1
 217.768833633 346.277109704 171.549804688 177.709295152 171.549804688 92.7998046875 c 3
EndSplineSet
Substitution2: "pcap-1" i.pcap
Substitution2: "smcp-1" i.smcp
EndChar
StartChar: kappa
Encoding: 954 954 1012
Width: 603
UnlinkRmOvrlpSave: 1
Flags: HMW
AnchorPoint: "Bottom" 277 -15 basechar 0
LayerCount: 2
Fore
SplineSet
317 303 m 1
 351.344791742 232.46758414 416.596316653 122.75 494.25 122.75 c 3
 517.53515625 122.75 537.63671875 134.879224546 547.150390625 144.209960938 c 1
 559.554517663 132.330078125 566.99443784 124.41015625 579.400390625 112.530273438 c 1
 563.553229554 44.7695312498 536.105912126 -10.8896484375 477 -10.8896484375 c 3
 377.987356607 -10.8896484375 347.793385311 148.813929093 265 250 c 1
 317 303 l 1
31 451.970703125 m 1
 60.0406165082 483.545028406 99.9697944973 511 152 511 c 3
 192.319854327 511 209.600585938 489.313476562 209.600585938 457.760742188 c 3
 209.600585938 330.534970001 191.076997191 259.920060517 179.5 133.099609375 c 1
 165.461007872 135.51953125 158.439382753 135.51953125 144.400390625 137.940429688 c 1
 178.123349958 256.664458026 287.877120372 405.38317793 453.400390625 515.360351562 c 1
 490.93860394 506.129247801 506.745966372 437.817382812 514.650390625 411.969726562 c 1
 355.942832032 367.274081248 211.246828117 205.042620814 193.299804688 124.629882812 c 0
 182.373046875 75.671875 182.950195312 48.138671875 176.049804688 -1.2099609375 c 1
 137.012228261 -1.6259765625 89.3890752378 -0.9599609375 77.0498046875 4.83984375 c 1
 89.7788454225 154.009707172 109.450195312 239.529752422 109.450195312 388.790039062 c 3
 109.450195312 400.982118762 111.78125 417.870117188 91.0498046875 417.870117188 c 3
 77.9642630517 417.870117188 71.9959061353 409.48828125 60.2001953125 403.900390625 c 1
 31 451.970703125 l 1
EndSplineSet
Substitution2: "pcap-1" k.pcap
Substitution2: "smcp-1" k.smcp
EndChar
StartChar: lambda
Encoding: 955 955 1013
Width: 533
UnlinkRmOvrlpSave: 1
Flags: HMW
LayerCount: 2
Fore
SplineSet
256.450195312 491.259765625 m 1
 310 357 l 1
 101 -19.3603515625 l 1
 74.9863083813 -22.6691224713 19.0566504968 12.0743073294 6.0498046875 40.2001953125 c 1
 256.450195312 491.259765625 l 1
52.0498046875 613.889648438 m 1
 49.216796875 622.831054688 47.44921875 633.25 47.44921875 642.9296875 c 0
 47.44921875 691.201548591 71.7816343315 744 100 744 c 3
 147.660206575 744 195.239947906 688.010542575 221.799804688 633.889648438 c 0
 288.115668403 498.758127613 349.247463284 299.548402684 432.450195312 148.259765625 c 0
 449.962563182 116.416793621 483.859306094 99.8603515625 529 97.4404296875 c 1
 538.200195312 47.3119862613 539.349609375 4.34557469031 539.349609375 -31.4599609375 c 1
 525.549804688 -35.08984375 519.799804688 -41.1396484375 504.849609375 -41.1396484375 c 3
 446.760669052 -41.1396484375 405.587528483 27.6325675367 380.75 87.1201171875 c 0
 329.740717664 209.290775905 256.97004197 424.172277394 187.69921875 558.229492188 c 0
 160.813833439 610.259765625 118.041299338 616.309570312 52.0498046875 613.889648438 c 1
EndSplineSet
Substitution2: "pcap-1" lambda.pcap
Substitution2: "smcp-1" lambda.smcp
EndChar
StartChar: mu
Encoding: 956 956 1014
Width: 625
Flags: HMW
LayerCount: 2
Fore
SplineSet
220.599609375 514.099609375 m 1
 220.599609375 386.355383242 175.549804688 294.764733945 175.549804688 167.020507812 c 3
 175.549804688 107.304841233 210.636432117 74.400390625 249.849609375 74.400390625 c 3
 371.049609375 74.400390625 395.410422252 297.498941976 401.349609375 363 c 2
 413.700195312 499.209960938 l 1
 413.700195312 500.419921875 509.19457211 537.9296875 527.099609375 508.889648438 c 1
 525.870236073 456.003260408 496.349609375 165.76953125 496.349609375 165.76953125 c 0
 496.349609375 135.959764549 508.949609375 98.01953125 527.849609375 98.01953125 c 3
 547.367878427 98.01953125 552.504242064 116.576467326 556.099609375 128.259765625 c 1
 610.650390625 122.209960938 l 1
 610.650390625 16.9404296875 568.099609375 -7.259765625 535.900390625 -7.259765625 c 3
 479.549804688 -7.259765625 432.400390625 50.8203125 422.049804688 125.83984375 c 1
 422.049804688 125.83984375 l 1
 401.647213014 65.33984375 349.621124013 -1.2099609375 264.950195312 -1.2099609375 c 3
 182.00716513 -1.2099609375 165.849396338 37.7105817949 154 51 c 1
 148.144004699 35.7223140637 138.562124478 -101.776298899 144.950195312 -164.969726562 c 1
 129.102401331 -181.91015625 60.9566180543 -169.809570312 35.599609375 -150.450195312 c 1
 44.7998046875 -125.040039062 54.4341995331 -100.783611103 58.599609375 -50.01953125 c 2
 103.200195312 493.530273438 l 1
 104.744147739 506.83984375 195.884564621 532.25 220.599609375 514.099609375 c 1
EndSplineSet
Substitution2: "pcap-1" m.pcap
Substitution2: "smcp-1" m.smcp
EndChar
StartChar: nu
Encoding: 957 957 1015
Width: 578
Flags: HMW
AnchorPoint: "Bottom" 206 -15 basechar 0
LayerCount: 2
Fore
SplineSet
126.5 -14.51953125 m 1
 126.5 -10.8896484375 140.836480469 72.7415654004 154.099609375 229.900390625 c 1
 161 311.665205845 143.75 406.33984375 102.349609375 406.33984375 c 1
 85.4108032194 406.33984375 84.2816453702 384.357381942 79.2001953125 367.259765625 c 1
 24.349609375 383.73046875 l 1
 24.349609375 465.082274376 80.3749030424 506.990234375 117.299804688 506.990234375 c 1
 165.836385252 506.990234375 257.799804688 466.040623617 257.799804688 292.610351562 c 1
 257.799804688 206.722249697 240 102.208536958 240 96 c 1
 257.260002533 96 435.25 173.962442679 435.25 314.599609375 c 3
 435.25 383.529990264 396.928850638 392.254998377 370 394 c 1
 367.700195312 400.529232553 365.400390625 411.721808331 365.400390625 424.780273438 c 3
 365.400390625 463.334820708 417.423053419 521.509765625 430.799804688 521.509765625 c 3
 450.349609375 521.509765625 520.5 473.680664062 520.5 356.950195312 c 3
 520.5 222.639648438 420.608877421 130.951152639 335.75 75.01953125 c 0
 243.708870838 14.51953125 150.074842748 -22.990234375 135.700195312 -22.990234375 c 1
 126.5 -14.51953125 l 1
EndSplineSet
Substitution2: "pcap-1" n.pcap
Substitution2: "smcp-1" n.smcp
EndChar
StartChar: xi
Encoding: 958 958 1016
Width: 580
UnlinkRmOvrlpSave: 1
Flags: HMW
LayerCount: 2
Fore
SplineSet
350.150390625 377.16015625 m 1
 341.038085938 361.422851562 331.669921875 342.252929688 322.157226562 320.059570312 c 1
 223.206054688 287.453125 139.05078125 222.763671875 139.05078125 169.280273438 c 3
 139.05078125 140.299804688 156.544921875 100.280273438 208.30078125 100.280273438 c 3
 278.340820312 100.280273438 360.232421875 146.259765625 431.350585938 146.259765625 c 3
 525.650390625 146.259765625 582 62.1669921875 582 -20.5703125 c 3
 582 -111.962890625 508.400390625 -174.870117188 440.55078125 -174.870117188 c 3
 392.25 -174.870117188 346.25 -137.961914062 332.450195312 -113.740234375 c 1
 353.150390625 -85.91015625 379.600585938 -48.400390625 403.75 -45.98046875 c 1
 417.55078125 -55.216796875 442.850585938 -76.9501953125 480.80078125 -76.9501953125 c 3
 488.916015625 -76.9501953125 519.350585938 -58.1455078125 519.350585938 -25.41015625 c 3
 519.350585938 27.830078125 469.859375 36.2998046875 441.700195312 36.2998046875 c 3
 361.8359375 36.2998046875 296.001953125 -14.51953125 212.900390625 -14.51953125 c 3
 87.55078125 -14.51953125 55.3505859375 88.4814453125 55.3505859375 151.709960938 c 3
 55.3505859375 200.827148438 104.104492188 278.096679688 198.600585938 351.75 c 0
 251.381835938 392.889648438 325.708984375 417.08984375 420.5 417.08984375 c 1
 422.80078125 393.59765625 412.450195312 321.5546875 394.05078125 302.759765625 c 1
 367.600585938 285.8203125 326.200195312 282.190429688 285.950195312 282.190429688 c 3
 109.872070312 282.190429688 107.75 422.19140625 107.75 446.540039062 c 3
 107.75 584.552734375 313.98828125 690.919921875 484.450195312 690.919921875 c 1
 484.450195312 672.65234375 477.55078125 599.581054688 464.900390625 573.009765625 c 1
 437.849609375 553.030273438 373.34375 539.709960938 313 539.709960938 c 3
 214.716796875 539.709960938 155.150390625 596.592773438 155.150390625 680.01953125 c 3
 155.150390625 741.73046875 205.75 775.610351562 269 775.610351562 c 1
 267.850585938 750.200195312 269 706.639648438 252.900390625 682.440429688 c 1
 244.013671875 676.389648438 232.350585938 678.809570312 232.350585938 660.66015625 c 3
 232.350585938 650.219726562 251.677734375 619.646484375 347.30078125 618.900390625 c 1
 344.985351562 604.146484375 342.671875 589.201171875 340.359375 574.059570312 c 1
 262.768554688 549.458007812 188.05078125 499.645507812 188.05078125 451.379882812 c 3
 188.05078125 378.065429688 279.626953125 377.16015625 350.150390625 377.16015625 c 1
EndSplineSet
Substitution2: "pcap-1" xi.pcap
Substitution2: "smcp-1" xi.smcp
EndChar
StartChar: omicron
Encoding: 959 959 1017
Width: 586
VWidth: 1043
Flags: HMW
AnchorPoint: "Top" 311 537 basechar 0
AnchorPoint: "Bottom" 289 -15 basechar 0
LayerCount: 2
Fore
SplineSet
287.5 68.1396484375 m 3
 394.088292355 68.1396484375 417 198.323277293 417 266.150390625 c 3
 417 353.36015038 386.740972797 443.799804688 304.75 443.799804688 c 3
 251.769744862 443.799804688 171.799804688 414.207592056 171.799804688 232.26953125 c 3
 171.799804688 130.35944782 213.961846111 68.1396484375 287.5 68.1396484375 c 3
59.7998046875 258.889648438 m 3
 59.7998046875 379.889648438 138 514.200195312 290.950195312 514.200195312 c 3
 447.349609375 514.200195312 526.700195312 366.580078125 526.700195312 240.740234375 c 3
 526.700195312 79.8095703125 409.400390625 -6.099609375 292.099609375 -6.099609375 c 3
 148.349609375 -6.099609375 59.7998046875 141.51953125 59.7998046875 258.889648438 c 3
EndSplineSet
Substitution2: "pcap-1" o.pcap
Substitution2: "smcp-1" o.smcp
EndChar
